<svg width="144" height="203" viewBox="0 0 144 203" fill="none" xmlns="http://www.w3.org/2000/svg">
<path d="M34.0299 75.9336C33.7143 72.8718 33.3988 69.81 33.3988 67.0543C33.3988 44.3967 46.0201 26.3318 72.8403 26.3318C98.7139 26.3318 111.335 43.1719 111.335 61.2368C111.335 76.546 102.5 90.6305 83.2528 102.572L49.1754 124.005C14.4669 145.744 1.21456 170.544 0.583496 203H143.835V175.137H38.7628C41.6026 162.89 52.0152 154.623 63.6898 147.275L104.078 122.167C127.427 107.777 142.573 86.9563 142.573 60.9306C142.573 27.8627 117.33 0 73.4713 0C28.6658 0 2.79222 30.3122 2.79222 64.2987C2.79222 66.7481 2.79222 69.5038 3.10775 72.2594L34.0299 75.9336Z" fill="#EAF1F1" style="mix-blend-mode:multiply"/>
</svg>
