<svg width="249" height="332" viewBox="0 0 249 332" fill="none" xmlns="http://www.w3.org/2000/svg">
<path d="M58.5487 124.226C58.0039 119.228 57.4592 114.231 57.4592 109.733C57.4592 72.7501 79.2488 43.264 125.552 43.264C170.22 43.264 192.01 70.751 192.01 100.237C192.01 125.225 176.757 148.215 143.528 167.705L84.6961 202.689C24.7749 238.172 1.89581 278.653 0.806335 331.628H248.118V286.15H66.7198C71.6224 266.159 89.5988 252.665 109.754 240.671L179.481 199.69C219.791 176.201 245.939 142.217 245.939 99.7374C245.939 45.7628 202.36 0.28418 126.641 0.28418C49.2881 0.28418 4.61951 49.7609 4.61951 105.235C4.61951 109.233 4.61951 113.731 5.16425 118.229L58.5487 124.226Z" fill="#EAF1F1" style="mix-blend-mode:multiply"/>
</svg>
