<svg width="248" height="361" viewBox="0 0 248 361" fill="none" xmlns="http://www.w3.org/2000/svg">
<path d="M58.2595 135.162C57.7165 129.733 57.1736 124.303 57.1736 119.417C57.1736 79.2389 78.8913 47.2053 125.041 47.2053C169.563 47.2053 191.28 77.0672 191.28 109.101C191.28 136.248 176.078 161.223 142.959 182.398L84.3207 220.404C24.597 258.953 1.79341 302.931 0.70752 360.483H247.204V311.076H66.4036C71.2901 289.358 89.2072 274.698 109.296 261.668L178.793 217.146C218.971 191.628 245.032 154.708 245.032 108.558C245.032 49.92 201.596 0.512207 126.127 0.512207C49.0294 0.512207 4.50812 54.2636 4.50812 114.53C4.50812 118.874 4.50812 123.76 5.05106 128.647L58.2595 135.162Z" fill="white" fill-opacity="0.7"/>
</svg>
