<svg width="142" height="192" viewBox="0 0 142 192" fill="none" xmlns="http://www.w3.org/2000/svg">
<g filter="url(#filter0_d_11_165)">
<path d="M55.8345 100.337C60.8833 98.6024 66.8232 97.4458 72.763 97.4458C91.7705 97.4458 111.966 107.855 111.966 132.434C111.966 151.229 97.7103 167.133 71.278 167.133C48.1127 167.133 29.6992 151.518 28.5112 126.651L0 133.012C1.78195 163.663 27.0263 192 71.575 192C116.421 192 141.368 163.373 141.368 131.855C141.368 93.3976 110.184 74.8916 81.9697 74.8916L136.913 25.4458V0H6.23683V26.0241H98.3043L41.5789 76.9157L55.8345 100.337Z" fill="white" fill-opacity="0.7" shape-rendering="crispEdges"/>
</g>
<defs>
<filter id="filter0_d_11_165" x="0" y="0" width="141.368" height="192" filterUnits="userSpaceOnUse" color-interpolation-filters="sRGB">
<feFlood flood-opacity="0" result="BackgroundImageFix"/>
<feColorMatrix in="SourceAlpha" type="matrix" values="0 0 0 0 0 0 0 0 0 0 0 0 0 0 0 0 0 0 127 0" result="hardAlpha"/>
<feOffset/>
<feComposite in2="hardAlpha" operator="out"/>
<feColorMatrix type="matrix" values="0 0 0 0 1 0 0 0 0 1 0 0 0 0 1 0 0 0 0.01 0"/>
<feBlend mode="normal" in2="BackgroundImageFix" result="effect1_dropShadow_11_165"/>
<feBlend mode="normal" in="SourceGraphic" in2="effect1_dropShadow_11_165" result="shape"/>
</filter>
</defs>
</svg>
