<svg width="157" height="202" viewBox="0 0 157 202" fill="none" xmlns="http://www.w3.org/2000/svg">
<path d="M0.583466 141.856C3.09344 172.839 33.8406 202 78.0789 202C127.023 202 156.202 170.105 156.202 133.35C156.202 91.1278 127.337 67.4346 86.5501 67.4346C73.059 67.4346 58.6266 71.6872 49.8417 79.585L59.8816 36.1474H145.221V0H30.3894L6.23091 101.152C10.6234 102.367 41.6843 112.695 45.763 114.214C52.3517 106.923 63.3328 100.848 77.1377 100.848C95.9625 100.848 113.219 111.48 113.219 133.958C113.219 153.702 97.5312 166.156 78.0789 166.156C56.4304 166.156 41.998 151.272 41.0568 133.047L0.583466 141.856Z" fill="#F7F4EC" style="mix-blend-mode:multiply"/>
</svg>
