<svg width="169" height="220" viewBox="0 0 169 220" fill="none" xmlns="http://www.w3.org/2000/svg">
<g filter="url(#filter0_d_11_179)">
<path d="M0.0407715 154.496C2.75606 188.241 36.0183 220 83.8753 220C136.823 220 168.389 185.263 168.389 145.233C168.389 99.2481 137.163 73.4436 93.0394 73.4436C78.4447 73.4436 62.8318 78.0752 53.3283 86.6767L64.1894 39.3684H156.509V0H32.2848L6.15017 110.165C10.9019 111.489 44.5036 122.737 48.9159 124.391C56.0436 116.451 67.923 109.835 82.857 109.835C103.222 109.835 121.889 121.414 121.889 145.895C121.889 167.398 104.919 180.962 83.8753 180.962C60.4559 180.962 44.843 164.752 43.8248 144.902L0.0407715 154.496Z" fill="white" fill-opacity="0.7" shape-rendering="crispEdges"/>
</g>
<defs>
<filter id="filter0_d_11_179" x="0.0407715" y="0" width="168.348" height="220" filterUnits="userSpaceOnUse" color-interpolation-filters="sRGB">
<feFlood flood-opacity="0" result="BackgroundImageFix"/>
<feColorMatrix in="SourceAlpha" type="matrix" values="0 0 0 0 0 0 0 0 0 0 0 0 0 0 0 0 0 0 127 0" result="hardAlpha"/>
<feOffset/>
<feComposite in2="hardAlpha" operator="out"/>
<feColorMatrix type="matrix" values="0 0 0 0 1 0 0 0 0 1 0 0 0 0 1 0 0 0 0.01 0"/>
<feBlend mode="normal" in2="BackgroundImageFix" result="effect1_dropShadow_11_179"/>
<feBlend mode="normal" in="SourceGraphic" in2="effect1_dropShadow_11_179" result="shape"/>
</filter>
</defs>
</svg>
