<svg width="270" height="363" viewBox="0 0 270 363" fill="none" xmlns="http://www.w3.org/2000/svg">
<path d="M0.536865 254.503C4.88041 309.883 58.0888 362.005 134.644 362.005C219.343 362.005 269.837 304.996 269.837 239.3C269.837 163.831 219.886 121.482 149.303 121.482C125.957 121.482 100.981 129.083 85.7789 143.199L103.153 65.5585H250.834V0.948273H52.1164L10.3098 181.748C17.911 183.92 71.6624 202.38 78.7206 205.095C90.1224 192.064 109.125 181.205 133.015 181.205C165.592 181.205 195.453 200.208 195.453 240.386C195.453 275.677 168.306 297.938 134.644 297.938C97.1807 297.938 72.2053 271.334 70.5765 238.757L0.536865 254.503Z" fill="white" fill-opacity="0.7"/>
</svg>
