<svg width="271" height="333" viewBox="0 0 271 333" fill="none" xmlns="http://www.w3.org/2000/svg">
<path d="M0 233.984C4.35791 284.96 57.7423 332.937 134.551 332.937C219.53 332.937 270.191 280.462 270.191 219.99C270.191 150.523 220.075 111.542 149.258 111.542C125.835 111.542 100.777 118.538 85.524 131.532L102.956 60.0658H251.125V0.59375H51.7502L9.8053 167.015C17.4316 169.014 71.3608 186.006 78.4424 188.505C89.8819 176.511 108.948 166.516 132.916 166.516C165.601 166.516 195.561 184.007 195.561 220.99C195.561 253.475 168.324 273.965 134.551 273.965C96.9635 273.965 71.9055 249.477 70.2713 219.491L0 233.984Z" fill="#F7F4EC" style="mix-blend-mode:multiply"/>
</svg>
