<svg width="179" height="227" viewBox="0 0 179 227" fill="none" xmlns="http://www.w3.org/2000/svg">
<g filter="url(#filter0_d_11_184)">
<path d="M172.769 9.94598C163.927 4.95335 147.602 0.959229 126.856 0.959229C50.3343 0.959229 0 51.2185 0 127.772C0 189.681 39.1111 226.959 91.486 226.959C142.841 226.959 178.551 194.008 178.551 149.74C178.551 107.802 149.643 77.8458 104.75 77.8458C78.9024 77.8458 60.1971 88.1639 52.3749 100.479C58.8367 63.2008 87.4048 45.5601 123.795 45.5601C136.039 45.5601 148.282 48.8885 158.485 52.5498L172.769 9.94598ZM56.456 151.737C56.456 132.432 71.7604 120.117 90.8058 120.117C109.851 120.117 125.496 132.432 125.496 151.737C125.496 170.709 109.851 183.024 90.8058 183.024C71.7604 183.024 56.456 170.043 56.456 151.737Z" fill="white" fill-opacity="0.6" shape-rendering="crispEdges"/>
</g>
<defs>
<filter id="filter0_d_11_184" x="0" y="0.959229" width="178.551" height="226" filterUnits="userSpaceOnUse" color-interpolation-filters="sRGB">
<feFlood flood-opacity="0" result="BackgroundImageFix"/>
<feColorMatrix in="SourceAlpha" type="matrix" values="0 0 0 0 0 0 0 0 0 0 0 0 0 0 0 0 0 0 127 0" result="hardAlpha"/>
<feOffset/>
<feComposite in2="hardAlpha" operator="out"/>
<feColorMatrix type="matrix" values="0 0 0 0 1 0 0 0 0 1 0 0 0 0 1 0 0 0 0.01 0"/>
<feBlend mode="normal" in2="BackgroundImageFix" result="effect1_dropShadow_11_184"/>
<feBlend mode="normal" in="SourceGraphic" in2="effect1_dropShadow_11_184" result="shape"/>
</filter>
</defs>
</svg>
