<svg width="279" height="361" viewBox="0 0 279 361" fill="none" xmlns="http://www.w3.org/2000/svg">
<path d="M269.589 14.4494C255.791 6.48916 230.318 0.120895 197.946 0.120895C78.5416 0.120895 0 80.2546 0 202.313C0 301.02 61.029 360.457 142.755 360.457C222.888 360.457 278.61 307.919 278.61 237.338C278.61 170.471 233.502 122.71 163.451 122.71C123.119 122.71 93.9315 139.161 81.7257 158.796C91.8088 99.3593 136.386 71.2329 193.17 71.2329C212.275 71.2329 231.379 76.5398 247.3 82.3773L269.589 14.4494ZM88.094 240.522C88.094 209.742 111.975 190.107 141.693 190.107C171.412 190.107 195.823 209.742 195.823 240.522C195.823 270.771 171.412 290.406 141.693 290.406C111.975 290.406 88.094 269.71 88.094 240.522Z" fill="white" fill-opacity="0.6"/>
</svg>
