<svg width="41" height="40" viewBox="0 0 41 40" fill="none" xmlns="http://www.w3.org/2000/svg">
<path d="M20.9729 39.98C32.0131 39.98 40.963 31.0302 40.963 19.99C40.963 8.94984 32.0131 0 20.9729 0C9.93275 0 0.98291 8.94984 0.98291 19.99C0.98291 31.0302 9.93275 39.98 20.9729 39.98Z" fill="#FFBD59"/>
<path d="M27.1782 12.4282C26.4189 12.4282 25.8028 13.0443 25.8028 13.8037C25.8028 14.563 26.4189 15.1791 27.1782 15.1791C27.9376 15.1791 28.5537 14.563 28.5537 13.8037C28.5537 13.0443 27.9376 12.4282 27.1782 12.4282Z" fill="white"/>
<path d="M21.0681 14.1904C17.8845 14.1904 15.2969 16.7809 15.2969 19.9616C15.2969 23.1424 17.8874 25.7328 21.0681 25.7328C24.2489 25.7328 26.8393 23.1424 26.8393 19.9616C26.8393 16.7809 24.2489 14.1904 21.0681 14.1904ZM21.0681 23.661C19.0279 23.661 17.3716 22.0019 17.3716 19.9645C17.3716 17.9271 19.0307 16.2679 21.0681 16.2679C23.1055 16.2679 24.7647 17.9271 24.7647 19.9645C24.7647 22.0019 23.1055 23.661 21.0681 23.661Z" fill="white"/>
<path d="M25.6501 31.6818H16.2912C12.4084 31.6818 9.25058 28.524 9.25058 24.6412V15.2823C9.25058 11.3995 12.4084 8.2417 16.2912 8.2417H25.6501C29.5329 8.2417 32.6907 11.3995 32.6907 15.2823V24.6412C32.6907 28.524 29.5329 31.6818 25.6501 31.6818V31.6818ZM16.2912 10.4482C13.6262 10.4482 11.457 12.6174 11.457 15.2823V24.6412C11.457 27.3061 13.6262 29.4754 16.2912 29.4754H25.6501C28.315 29.4754 30.4842 27.3061 30.4842 24.6412V15.2823C30.4842 12.6145 28.315 10.4482 25.6501 10.4482H16.2912Z" fill="white"/>
</svg>
