<svg width="232" height="33" viewBox="0 0 232 33" fill="none" xmlns="http://www.w3.org/2000/svg">
<path d="M110.33 31.1104C110.328 31.5856 110.136 32.0407 109.795 32.376C109.454 32.7113 108.992 32.8996 108.511 32.8996C98.3026 32.1164 88.0477 32.1164 77.8388 32.8996C77.6001 32.9023 77.3631 32.8585 77.1414 32.7707C76.9198 32.6829 76.7178 32.5529 76.547 32.388C76.3763 32.2231 76.2401 32.0266 76.1462 31.8097C76.0524 31.5928 76.0027 31.3598 76 31.1239C76.417 26.3887 76.417 21.6266 76 16.8914C76.001 16.4252 76.1847 15.9775 76.5127 15.6423L81.7626 9.80212C82.5283 12.0099 82.2138 16.5538 80.8808 22.3332C80.8808 22.3873 80.8808 22.4548 80.8398 22.5426C80.7988 22.6303 80.8398 22.5425 80.8398 22.5831C80.8099 22.6886 80.8016 22.7989 80.8155 22.9077C80.8293 23.0164 80.8649 23.1213 80.9203 23.2162C80.9757 23.3112 81.0497 23.3942 81.138 23.4606C81.2263 23.5269 81.3271 23.5752 81.4345 23.6026C81.6535 23.6519 81.8832 23.6183 82.0782 23.5082C82.2732 23.3982 82.4192 23.2198 82.4872 23.0084V22.9341C82.7604 21.7113 83.1708 20.5224 83.7109 19.3895C84.3056 18.2012 85.078 17.2425 85.8573 17.2357C85.929 17.2255 86.0022 17.2353 86.0686 17.2639C86.1351 17.2925 86.1921 17.3389 86.2333 17.3978C86.6845 17.9919 86.5272 19.7136 86.2333 21.1382C86.0761 21.6851 85.9804 22.0902 85.953 22.2455C85.9166 22.4555 85.962 22.6714 86.0801 22.8498C86.1981 23.0282 86.3802 23.1558 86.5896 23.2071C86.799 23.2584 87.0204 23.2295 87.2091 23.1263C87.3979 23.0231 87.5402 22.8531 87.6073 22.6506C87.6688 22.4615 87.7782 22.0699 87.8944 21.5568C88.4071 19.8824 89.4803 17.3775 90.9637 17.3775C91.1141 17.3775 91.1551 17.4248 91.1893 17.4653C91.5995 17.9852 91.4354 19.7811 91.1551 20.8951C91.0041 21.2614 90.9562 21.6613 91.0163 22.0523C91.0765 22.4433 91.2425 22.811 91.4969 23.1164C91.7294 23.3772 92.0279 23.5722 92.3619 23.6813C92.6959 23.7905 93.0532 23.8099 93.3973 23.7376C93.8904 23.6102 94.3402 23.3554 94.7006 22.9994C95.0611 22.6434 95.319 22.1991 95.448 21.7121C95.4754 21.6311 95.5164 21.5298 95.5711 21.4083C95.6432 21.6948 95.7609 21.9683 95.9197 22.2185C96.1234 22.5322 96.4019 22.7917 96.7309 22.9741C97.0599 23.1566 97.4292 23.2565 97.8064 23.265C98.3949 23.3092 98.9833 23.1775 99.4949 22.8869C98.9786 25.0042 98.6695 27.1657 98.572 29.3415C98.5632 29.5283 98.6184 29.7126 98.7289 29.8646C98.8393 30.0165 98.9984 30.1272 99.1804 30.1787C99.2578 30.2026 99.3386 30.214 99.4197 30.2125C99.5666 30.2127 99.7111 30.1756 99.8392 30.1046C99.9673 30.0337 100.075 29.9313 100.151 29.8074C100.192 29.7398 104.123 23.3933 109.933 22.34C109.751 25.2691 109.884 28.209 110.33 31.1104V31.1104Z" fill="#FFBD59"/>
<path d="M83.1775 8.74887C83.1442 8.672 83.0979 8.60124 83.0408 8.53957L86.0964 5.89291C87.9507 4.48016 89.7112 2.95113 91.3669 1.31527C91.6898 1.01529 92.1126 0.842191 92.5557 0.828514C92.9989 0.814837 93.4318 0.961528 93.7731 1.241C98.7059 5.96883 104.059 10.2487 109.769 14.0287C109.983 14.1964 110.156 14.4099 110.274 14.6532C110.393 14.8964 110.454 15.1631 110.453 15.433C110.282 17.256 110.138 19.0047 110.049 20.6521C109.928 20.6249 109.802 20.6249 109.68 20.6521C105.579 21.388 102.441 24.271 100.582 26.4248C100.971 23.9785 101.542 21.5639 102.291 19.2005C102.617 18.4018 102.876 17.5775 103.063 16.7361C103.109 16.5252 103.072 16.3048 102.959 16.1202C102.846 15.9356 102.665 15.8009 102.455 15.7436C102.243 15.6895 102.018 15.7165 101.825 15.8191C101.632 15.9218 101.486 16.0926 101.416 16.2973C101.163 17.0872 100.923 17.8366 100.698 18.5591C100.089 20.0579 99.1392 21.6041 97.9635 21.5568C97.8543 21.5655 97.7449 21.5442 97.6472 21.4954C97.5495 21.4465 97.4673 21.372 97.4098 21.28C96.8766 20.463 97.4098 18.1472 97.9293 16.7631C97.9888 16.5661 97.9735 16.3544 97.8861 16.1677C97.7988 15.9811 97.6455 15.8324 97.455 15.7495C97.2645 15.6666 97.0499 15.6552 96.8515 15.7175C96.6531 15.7799 96.4846 15.9116 96.3775 16.0879C96.1588 16.4931 94.2516 20.0782 93.8756 21.1652C93.609 21.9484 93.192 22.0834 93.0963 22.1037C93.0471 22.1157 92.9955 22.1151 92.9465 22.1022C92.8975 22.0892 92.8526 22.0642 92.8161 22.0294C92.7705 21.9417 92.7467 21.8445 92.7467 21.7459C92.7467 21.6472 92.7705 21.55 92.8161 21.4623C92.8189 21.4376 92.8189 21.4127 92.8161 21.388C92.9596 20.8074 93.65 17.8569 92.5495 16.466C92.367 16.2227 92.1288 16.0254 91.8544 15.8905C91.5799 15.7555 91.277 15.6867 90.9704 15.6896V15.6896C90.3906 15.7157 89.8252 15.8766 89.3204 16.1594C88.8155 16.4421 88.3854 16.8387 88.0651 17.3168C87.9829 16.9733 87.8319 16.6496 87.6208 16.3648C87.4227 16.0941 87.1598 15.876 86.8557 15.7299C86.5516 15.5838 86.2156 15.5143 85.8777 15.5276V15.5276C85.4609 15.5412 85.0511 15.6366 84.672 15.8081C84.293 15.9797 83.9522 16.224 83.6697 16.5268C84.0183 13.5021 84.0183 10.5786 83.1775 8.74887Z" fill="#FFBD59"/>
<path d="M226.265 14.9807V12.2328H225.294C225.116 12.2328 225.027 12.1517 225.027 11.9829V11.9424C225.027 11.7736 225.116 11.6926 225.294 11.6926H227.864C228.042 11.6926 228.131 11.7736 228.131 11.9424V11.9829C228.131 12.1517 228.042 12.2328 227.864 12.2328H226.894V14.9807C226.898 15.0163 226.894 15.0525 226.882 15.0864C226.87 15.1203 226.851 15.1512 226.825 15.1765C226.8 15.2019 226.768 15.2212 226.734 15.2329C226.7 15.2446 226.663 15.2484 226.627 15.244H226.545C226.508 15.2507 226.47 15.2487 226.433 15.238C226.397 15.2274 226.364 15.2084 226.337 15.1828C226.31 15.1571 226.289 15.1254 226.276 15.0903C226.264 15.0552 226.26 15.0176 226.265 14.9807V14.9807ZM228.657 11.9424C228.656 11.9082 228.662 11.8741 228.676 11.8424C228.689 11.8107 228.709 11.7821 228.734 11.7585C228.759 11.7349 228.789 11.7168 228.822 11.7055C228.854 11.6941 228.889 11.6897 228.924 11.6926H229.013C229.081 11.6858 229.151 11.7021 229.209 11.7388C229.267 11.7756 229.311 11.8307 229.334 11.8952L230.086 13.5493C230.133 13.659 230.172 13.7718 230.202 13.8869V13.8869C230.233 13.7718 230.271 13.659 230.318 13.5493L231.07 11.8952C231.093 11.8307 231.137 11.7756 231.195 11.7388C231.254 11.7021 231.323 11.6858 231.392 11.6926H231.48C231.515 11.6897 231.55 11.6941 231.583 11.7055C231.615 11.7168 231.645 11.7349 231.67 11.7585C231.696 11.7821 231.715 11.8107 231.729 11.8424C231.742 11.8741 231.748 11.9082 231.747 11.9424L231.993 14.9739C232.001 15.0102 232 15.0478 231.99 15.0836C231.981 15.1194 231.962 15.1523 231.937 15.1795C231.911 15.2068 231.879 15.2275 231.844 15.2399C231.808 15.2523 231.771 15.256 231.733 15.2508H231.651C231.617 15.2536 231.582 15.2492 231.549 15.2379C231.516 15.2265 231.486 15.2085 231.461 15.1849C231.436 15.1613 231.416 15.1327 231.403 15.101C231.39 15.0693 231.384 15.0352 231.385 15.0009L231.234 13.124C231.227 13.0431 231.227 12.9618 231.234 12.8809V12.8809L230.551 14.3865C230.531 14.4506 230.49 14.5061 230.434 14.5441C230.378 14.5821 230.311 14.6003 230.243 14.5958H230.195C230.128 14.6003 230.06 14.5821 230.005 14.5441C229.949 14.5061 229.908 14.4506 229.888 14.3865L229.204 12.8809C229.211 12.9618 229.211 13.0431 229.204 13.124L229.019 15.0144C229.021 15.0487 229.014 15.0828 229.001 15.1145C228.988 15.1462 228.968 15.1748 228.943 15.1984C228.918 15.222 228.888 15.24 228.855 15.2514C228.822 15.2628 228.787 15.2671 228.753 15.2643H228.671C228.634 15.2695 228.596 15.2658 228.56 15.2534C228.525 15.241 228.493 15.2203 228.468 15.193C228.442 15.1658 228.424 15.1329 228.414 15.0971C228.404 15.0613 228.403 15.0237 228.411 14.9874L228.657 11.9424Z" fill="#142640"/>
<path d="M117.392 13.1915C117.381 13.117 117.387 13.0409 117.411 12.9693C117.434 12.8977 117.475 12.8326 117.529 12.7794C117.583 12.7261 117.649 12.6862 117.721 12.6627C117.794 12.6393 117.871 12.6331 117.946 12.6446H118.466C118.539 12.6366 118.614 12.6454 118.684 12.6703C118.754 12.6953 118.817 12.7357 118.868 12.7886C118.92 12.8414 118.958 12.9052 118.981 12.975C119.004 13.0449 119.01 13.1189 118.999 13.1915V16.5673C119.001 16.8045 118.985 17.0414 118.951 17.2762V17.2762C119.224 16.7998 119.622 16.4051 120.103 16.134C120.585 15.863 121.131 15.7258 121.685 15.7369C123.927 15.7369 125.384 17.5193 125.384 20.0984C125.384 22.6776 123.852 24.5208 121.61 24.5208C121.049 24.5373 120.495 24.3972 120.012 24.1165C119.528 23.8358 119.134 23.426 118.876 22.9342V22.9342C118.911 23.0984 118.927 23.266 118.924 23.4338V23.8456C118.924 24.1427 118.725 24.325 118.37 24.325H117.953C117.878 24.3365 117.801 24.3303 117.728 24.3069C117.656 24.2834 117.59 24.2435 117.536 24.1902C117.482 24.1369 117.441 24.0719 117.418 24.0003C117.394 23.9287 117.388 23.8526 117.399 23.7781L117.392 13.1915ZM121.344 23.1164C122.711 23.1164 123.804 22.0429 123.804 20.139C123.804 18.235 122.82 17.148 121.412 17.148C120.14 17.148 118.965 18.0392 118.965 20.1255C118.965 21.6783 119.751 23.1164 121.344 23.1164Z" fill="#142640"/>
<path d="M130.987 15.7571C133.332 15.7571 134.638 17.4113 134.638 19.7406C134.638 19.8893 134.578 20.0318 134.471 20.1369C134.365 20.242 134.221 20.301 134.07 20.301H128.41C128.411 20.6797 128.489 21.0545 128.639 21.4029C128.789 21.7512 129.009 22.0662 129.285 22.3289C129.562 22.5916 129.888 22.7967 130.247 22.932C130.605 23.0673 130.987 23.1301 131.37 23.1165C132.109 23.1131 132.828 22.8766 133.421 22.4413C133.479 22.3959 133.548 22.3642 133.621 22.3487C133.694 22.3332 133.769 22.3343 133.842 22.3519C133.914 22.3694 133.981 22.403 134.039 22.4501C134.096 22.4972 134.142 22.5565 134.173 22.6236L134.323 22.8734C134.371 22.9338 134.404 23.0045 134.419 23.0798C134.433 23.1551 134.43 23.2328 134.409 23.3065C134.387 23.3803 134.349 23.448 134.296 23.5041C134.243 23.5603 134.177 23.6033 134.104 23.6296C133.264 24.2077 132.264 24.5187 131.24 24.5208C130.649 24.5442 130.059 24.4473 129.508 24.236C128.956 24.0246 128.454 23.7035 128.034 23.2925C127.613 22.8816 127.283 22.3895 127.063 21.847C126.843 21.3045 126.738 20.7231 126.756 20.139C126.749 17.4788 128.574 15.7571 130.987 15.7571ZM133.038 19.2478C132.963 17.7759 132.054 17.04 130.953 17.04C130.333 17.0408 129.735 17.2704 129.277 17.6839C128.82 18.0973 128.535 18.6646 128.478 19.2748L133.038 19.2478Z" fill="#142640"/>
<path d="M135.958 22.8666L136.129 22.6371C136.348 22.3535 136.566 22.34 136.901 22.5223C137.502 22.9437 138.216 23.1787 138.952 23.1975C139.786 23.1975 140.394 22.7991 140.394 22.0902C140.394 20.4563 136.026 20.9964 136.026 18.1742C136.026 16.5876 137.434 15.7639 139.089 15.7639C139.92 15.7596 140.735 15.9941 141.433 16.439C141.495 16.4691 141.548 16.5115 141.592 16.5636C141.635 16.6156 141.667 16.6761 141.685 16.7411C141.703 16.8061 141.707 16.8741 141.697 16.9407C141.686 17.0073 141.662 17.071 141.625 17.1277L141.474 17.3775C141.304 17.6746 141.058 17.7083 140.736 17.5598C140.216 17.2496 139.621 17.084 139.014 17.0804C138.207 17.0804 137.592 17.4248 137.592 18.1404C137.592 19.8081 141.96 19.214 141.96 22.0564C141.96 23.481 140.736 24.5208 138.911 24.5208C137.888 24.5286 136.891 24.2088 136.067 23.6093C136.005 23.5721 135.952 23.5219 135.912 23.4621C135.872 23.4023 135.846 23.3344 135.835 23.2635C135.825 23.1925 135.83 23.1201 135.852 23.0515C135.873 22.9828 135.909 22.9197 135.958 22.8666Z" fill="#142640"/>
<path d="M143.777 16.4998C143.766 16.4253 143.772 16.3492 143.796 16.2776C143.819 16.206 143.86 16.1409 143.914 16.0877C143.968 16.0344 144.034 15.9944 144.106 15.971C144.179 15.9476 144.256 15.9414 144.331 15.9529H144.714C145.083 15.9529 145.267 16.1352 145.267 16.4188V16.9116C145.279 17.06 145.279 17.2089 145.267 17.3572V17.3572C145.54 16.8527 145.952 16.4347 146.455 16.1516C146.959 15.8684 147.533 15.7317 148.111 15.7571C150.388 15.7571 151.83 17.5395 151.83 20.1389C151.83 22.7383 150.21 24.5208 147.995 24.5208C147.461 24.5359 146.934 24.4053 146.471 24.1432C146.008 23.8811 145.627 23.4977 145.37 23.0354V23.0354C145.394 23.2867 145.399 23.5396 145.384 23.7916V27.1134C145.395 27.186 145.388 27.26 145.366 27.3299C145.343 27.3997 145.305 27.4635 145.253 27.5163C145.202 27.5691 145.139 27.6096 145.069 27.6346C144.999 27.6595 144.924 27.6683 144.85 27.6603H144.358C144.283 27.6718 144.206 27.6656 144.133 27.6422C144.061 27.6187 143.995 27.5788 143.941 27.5255C143.887 27.4722 143.847 27.4072 143.823 27.3356C143.799 27.264 143.793 27.1879 143.805 27.1134L143.777 16.4998ZM147.776 23.1164C149.143 23.1164 150.223 22.0429 150.223 20.1389C150.223 18.235 149.239 17.1479 147.831 17.1479C146.559 17.1479 145.384 18.0257 145.384 20.1592C145.35 21.6581 146.19 23.1164 147.776 23.1164Z" fill="#142640"/>
<path d="M157.674 15.7571C158.547 15.7797 159.394 16.0563 160.108 16.5522C160.823 17.0481 161.373 17.7413 161.691 18.5448C162.008 19.3484 162.078 20.2266 161.893 21.0694C161.707 21.9123 161.273 22.6822 160.646 23.2827C160.02 23.8833 159.227 24.2877 158.369 24.4454C157.51 24.6031 156.623 24.507 155.82 24.1692C155.016 23.8313 154.332 23.2668 153.852 22.5462C153.371 21.8257 153.117 20.9812 153.121 20.1187C153.121 19.5344 153.239 18.956 153.47 18.4178C153.7 17.8796 154.038 17.3927 154.462 16.9858C154.887 16.579 155.39 16.2606 155.942 16.0495C156.494 15.8385 157.083 15.739 157.674 15.7571V15.7571ZM157.674 23.1299C158.067 23.1285 158.457 23.0485 158.818 22.895C159.18 22.7414 159.507 22.5173 159.778 22.2362C160.05 21.955 160.262 21.6226 160.401 21.2587C160.539 20.8949 160.602 20.5071 160.586 20.1187C160.586 19.3559 160.279 18.6243 159.733 18.0849C159.187 17.5455 158.446 17.2425 157.674 17.2425C156.901 17.2425 156.161 17.5455 155.615 18.0849C155.069 18.6243 154.762 19.3559 154.762 20.1187C154.749 20.5056 154.815 20.891 154.955 21.2525C155.095 21.6139 155.307 21.944 155.579 22.2233C155.85 22.5026 156.175 22.7255 156.535 22.8789C156.895 23.0323 157.282 23.113 157.674 23.1164V23.1299Z" fill="#142640"/>
<path d="M164.053 13.1915C164.041 13.117 164.047 13.0409 164.071 12.9693C164.095 12.8977 164.135 12.8326 164.189 12.7794C164.243 12.7261 164.309 12.6862 164.381 12.6627C164.454 12.6393 164.531 12.6331 164.606 12.6446H165.126C165.2 12.6366 165.274 12.6454 165.344 12.6703C165.414 12.6953 165.477 12.7357 165.529 12.7886C165.58 12.8414 165.619 12.9052 165.641 12.975C165.664 13.0449 165.67 13.1189 165.659 13.1915V19.0114H166.917L168.968 16.3108C169.034 16.1924 169.134 16.0963 169.256 16.0349C169.378 15.9735 169.515 15.9497 169.651 15.9664H170.273C170.724 15.9664 170.875 16.2635 170.608 16.6416L168.263 19.6663L170.998 23.6498C171.23 24.0279 171.08 24.325 170.629 24.325H169.945C169.806 24.3388 169.665 24.3099 169.543 24.2423C169.421 24.1746 169.322 24.0715 169.261 23.9469L166.917 20.4158H165.659V23.7916C165.67 23.8642 165.664 23.9382 165.641 24.0081C165.619 24.0779 165.58 24.1417 165.529 24.1945C165.477 24.2473 165.414 24.2878 165.344 24.3128C165.274 24.3377 165.2 24.3465 165.126 24.3385H164.606C164.531 24.35 164.454 24.3438 164.381 24.3204C164.309 24.2969 164.243 24.257 164.189 24.2037C164.135 24.1504 164.095 24.0854 164.071 24.0138C164.047 23.9422 164.041 23.8661 164.053 23.7916V13.1915Z" fill="#142640"/>
<path d="M176.126 15.7571C178.471 15.7571 179.776 17.4113 179.776 19.7406C179.776 19.8893 179.716 20.0318 179.61 20.1369C179.504 20.242 179.359 20.301 179.209 20.301H173.549C173.549 20.678 173.627 21.051 173.776 21.398C173.925 21.745 174.143 22.059 174.417 22.3214C174.691 22.5839 175.015 22.7894 175.371 22.926C175.727 23.0625 176.107 23.1273 176.488 23.1165C177.227 23.1131 177.946 22.8766 178.539 22.4413C178.598 22.3959 178.666 22.3642 178.739 22.3487C178.812 22.3332 178.887 22.3343 178.96 22.3519C179.032 22.3694 179.1 22.403 179.157 22.4501C179.214 22.4972 179.26 22.5565 179.291 22.6236L179.441 22.8734C179.485 22.9303 179.516 22.996 179.531 23.0658C179.546 23.1357 179.546 23.208 179.529 23.2777C179.513 23.3473 179.481 23.4125 179.437 23.4687C179.392 23.5248 179.335 23.5706 179.27 23.6026C178.43 24.1807 177.43 24.4917 176.406 24.4938C175.815 24.5172 175.225 24.4203 174.674 24.2089C174.122 23.9976 173.62 23.6765 173.2 23.2655C172.779 22.8546 172.449 22.3625 172.229 21.82C172.009 21.2775 171.904 20.6961 171.922 20.112C171.894 17.4788 173.713 15.7571 176.126 15.7571ZM178.177 19.2478C178.129 17.7759 177.24 17.013 176.126 17.013C175.506 17.0138 174.908 17.2434 174.45 17.6568C173.992 18.0703 173.707 18.6376 173.651 19.2478H178.177Z" fill="#142640"/>
<path d="M184.341 16.4998C184.331 16.4256 184.339 16.3501 184.363 16.2792C184.387 16.2083 184.427 16.1438 184.481 16.0909C184.535 16.038 184.6 15.998 184.672 15.974C184.744 15.9501 184.82 15.9429 184.895 15.9529H185.374C185.449 15.9414 185.526 15.9476 185.598 15.971C185.671 15.9945 185.737 16.0344 185.791 16.0877C185.845 16.141 185.885 16.206 185.909 16.2776C185.933 16.3492 185.939 16.4253 185.927 16.4998V17.4585C185.928 17.6687 185.912 17.8787 185.879 18.0864V18.0864C186.249 16.9791 187.199 15.8854 188.477 15.8854C188.86 15.8854 189.01 16.0677 189.01 16.4323V16.8981C189.01 17.2627 188.792 17.445 188.409 17.445C186.754 17.445 185.948 19.214 185.948 20.8681V23.7916C185.959 23.866 185.953 23.9422 185.929 24.0138C185.906 24.0853 185.865 24.1504 185.811 24.2037C185.757 24.257 185.691 24.2969 185.619 24.3203C185.547 24.3438 185.469 24.35 185.394 24.3385H184.875C184.799 24.3485 184.723 24.3413 184.651 24.3173C184.579 24.2934 184.514 24.2534 184.461 24.2005C184.407 24.1476 184.366 24.0831 184.342 24.0122C184.318 23.9413 184.311 23.8658 184.321 23.7916L184.341 16.4998Z" fill="#142640"/>
<path d="M193.986 15.7571C194.859 15.7797 195.706 16.0563 196.421 16.5522C197.135 17.0481 197.686 17.7413 198.003 18.5448C198.321 19.3484 198.391 20.2266 198.205 21.0694C198.019 21.9123 197.586 22.6822 196.959 23.2827C196.332 23.8833 195.54 24.2877 194.681 24.4454C193.823 24.6031 192.936 24.507 192.133 24.1692C191.329 23.8313 190.644 23.2668 190.164 22.5462C189.684 21.8257 189.43 20.9812 189.434 20.1187C189.433 19.5344 189.552 18.956 189.782 18.4178C190.013 17.8796 190.35 17.3927 190.775 16.9858C191.2 16.579 191.703 16.2606 192.255 16.0495C192.806 15.8385 193.395 15.739 193.986 15.7571ZM193.986 23.1299C194.38 23.1285 194.769 23.0485 195.131 22.895C195.493 22.7414 195.819 22.5173 196.091 22.2362C196.363 21.955 196.575 21.6226 196.713 21.2587C196.852 20.8949 196.915 20.5071 196.899 20.1187C196.899 19.3559 196.592 18.6243 196.046 18.0849C195.499 17.5455 194.759 17.2425 193.986 17.2425C193.214 17.2425 192.473 17.5455 191.927 18.0849C191.381 18.6243 191.074 19.3559 191.074 20.1187C191.062 20.5056 191.127 20.891 191.268 21.2525C191.408 21.6139 191.62 21.944 191.891 22.2233C192.163 22.5026 192.488 22.7255 192.847 22.8789C193.207 23.0323 193.595 23.113 193.986 23.1164V23.1299Z" fill="#142640"/>
<path d="M204.35 15.7571C205.223 15.7797 206.069 16.0563 206.784 16.5522C207.499 17.0481 208.049 17.7413 208.366 18.5448C208.684 19.3484 208.754 20.2266 208.568 21.0694C208.383 21.9123 207.949 22.6822 207.322 23.2827C206.695 23.8833 205.903 24.2877 205.044 24.4454C204.186 24.6031 203.299 24.507 202.496 24.1692C201.692 23.8313 201.007 23.2668 200.527 22.5462C200.047 21.8257 199.793 20.9812 199.797 20.1187C199.797 19.5344 199.915 18.956 200.146 18.4178C200.376 17.8796 200.714 17.3927 201.138 16.9858C201.563 16.579 202.066 16.2606 202.618 16.0495C203.169 15.8385 203.758 15.739 204.35 15.7571V15.7571ZM204.35 23.1299C204.741 23.1266 205.129 23.0456 205.488 22.8916C205.848 22.7377 206.172 22.5139 206.443 22.2337C206.713 21.9535 206.924 21.6224 207.062 21.2603C207.2 20.8981 207.264 20.5122 207.248 20.1254C207.248 19.3626 206.941 18.631 206.395 18.0916C205.849 17.5522 205.108 17.2492 204.336 17.2492C203.564 17.2492 202.823 17.5522 202.277 18.0916C201.731 18.631 201.424 19.3626 201.424 20.1254C201.412 20.5129 201.479 20.8987 201.62 21.2603C201.762 21.6218 201.975 21.9517 202.248 22.2305C202.521 22.5092 202.847 22.7312 203.208 22.8834C203.569 23.0356 203.957 23.1148 204.35 23.1164V23.1299Z" fill="#142640"/>
<path d="M210.714 16.4998C210.704 16.4256 210.712 16.3501 210.736 16.2792C210.76 16.2083 210.801 16.1438 210.854 16.0909C210.908 16.038 210.973 15.998 211.045 15.974C211.117 15.9501 211.193 15.9429 211.268 15.9529H211.74C211.815 15.9414 211.892 15.9476 211.965 15.971C212.037 15.9945 212.103 16.0344 212.157 16.0877C212.211 16.141 212.251 16.206 212.275 16.2776C212.299 16.3492 212.305 16.4253 212.293 16.4998V17.2425C212.293 17.4034 212.276 17.5638 212.246 17.7218C212.507 17.1589 212.92 16.6779 213.44 16.3314C213.959 15.9848 214.566 15.7862 215.192 15.7571C215.782 15.6939 216.374 15.8559 216.846 16.2099C217.319 16.5639 217.637 17.0831 217.735 17.6611V17.6611C218.009 17.1026 218.433 16.6294 218.961 16.2935C219.489 15.9576 220.101 15.772 220.729 15.7571C222.657 15.7571 223.525 16.8306 223.525 18.9641V23.7916C223.536 23.866 223.53 23.9422 223.506 24.0138C223.483 24.0853 223.442 24.1504 223.388 24.2037C223.334 24.257 223.269 24.2969 223.196 24.3203C223.124 24.3438 223.046 24.35 222.971 24.3385H222.452C222.376 24.3485 222.3 24.3413 222.228 24.3173C222.156 24.2934 222.091 24.2534 222.038 24.2005C221.984 24.1476 221.944 24.0831 221.919 24.0122C221.895 23.9413 221.888 23.8658 221.898 23.7916V19.3085C221.898 18.1337 221.665 17.2087 220.408 17.2087C218.835 17.2087 217.899 18.8156 217.899 20.4158V23.7916C217.91 23.8641 217.904 23.9382 217.881 24.008C217.858 24.0779 217.82 24.1417 217.768 24.1945C217.717 24.2473 217.654 24.2878 217.584 24.3127C217.514 24.3377 217.44 24.3465 217.366 24.3385H216.833C216.759 24.3465 216.684 24.3377 216.614 24.3127C216.544 24.2878 216.481 24.2473 216.43 24.1945C216.378 24.1417 216.34 24.0779 216.317 24.008C216.294 23.9382 216.288 23.8641 216.299 23.7916V19.3085C216.299 18.2147 216.128 17.2087 214.823 17.2087C213.216 17.2087 212.28 18.8629 212.28 20.4158V23.7916C212.291 23.866 212.285 23.9422 212.261 24.0138C212.238 24.0853 212.197 24.1504 212.143 24.2037C212.089 24.257 212.024 24.2969 211.951 24.3203C211.879 24.3438 211.801 24.35 211.726 24.3385H211.207C211.131 24.3485 211.055 24.3413 210.983 24.3173C210.911 24.2934 210.846 24.2534 210.793 24.2005C210.739 24.1476 210.699 24.0831 210.674 24.0122C210.65 23.9413 210.643 23.8658 210.653 23.7916L210.714 16.4998Z" fill="#142640"/>
<rect y="9.00006" width="28" height="4" fill="#142640"/>
<rect y="17.0001" width="28" height="4" fill="#142640"/>
<rect y="25.0001" width="28" height="4" fill="#142640"/>
</svg>
