<svg width="41" height="40" viewBox="0 0 41 40" fill="none" xmlns="http://www.w3.org/2000/svg">
<path d="M20.9729 39.98C32.0131 39.98 40.963 31.0302 40.963 19.99C40.963 8.94984 32.0131 0 20.9729 0C9.93275 0 0.98291 8.94984 0.98291 19.99C0.98291 31.0302 9.93275 39.98 20.9729 39.98Z" fill="#FFBD59"/>
<path d="M27.1781 12.4282C26.4188 12.4282 25.8027 13.0443 25.8027 13.8037C25.8027 14.563 26.4188 15.1791 27.1781 15.1791C27.9375 15.1791 28.5536 14.563 28.5536 13.8037C28.5536 13.0443 27.9375 12.4282 27.1781 12.4282Z" fill="white"/>
<path d="M21.0681 14.1904C17.8845 14.1904 15.2969 16.7809 15.2969 19.9616C15.2969 23.1424 17.8874 25.7328 21.0681 25.7328C24.2489 25.7328 26.8393 23.1424 26.8393 19.9616C26.8393 16.7809 24.2489 14.1904 21.0681 14.1904ZM21.0681 23.661C19.0278 23.661 17.3715 22.0019 17.3715 19.9645C17.3715 17.9271 19.0307 16.2679 21.0681 16.2679C23.1055 16.2679 24.7646 17.9271 24.7646 19.9645C24.7646 22.0019 23.1055 23.661 21.0681 23.661Z" fill="white"/>
<path d="M25.65 31.6818H16.2911C12.4083 31.6818 9.25049 28.524 9.25049 24.6412V15.2823C9.25049 11.3995 12.4083 8.2417 16.2911 8.2417H25.65C29.5328 8.2417 32.6906 11.3995 32.6906 15.2823V24.6412C32.6906 28.524 29.5328 31.6818 25.65 31.6818V31.6818ZM16.2911 10.4482C13.6261 10.4482 11.4569 12.6174 11.4569 15.2823V24.6412C11.4569 27.3061 13.6261 29.4754 16.2911 29.4754H25.65C28.3149 29.4754 30.4841 27.3061 30.4841 24.6412V15.2823C30.4841 12.6145 28.3149 10.4482 25.65 10.4482H16.2911Z" fill="white"/>
</svg>
