<svg width="41" height="40" viewBox="0 0 41 40" fill="none" xmlns="http://www.w3.org/2000/svg">
<path d="M20.9529 0C9.91198 0 0.962891 8.94909 0.962891 19.99C0.962891 28.1224 5.82573 35.1057 12.7976 38.2292C12.7747 37.6675 12.7488 37.1059 12.7689 36.5414C12.8348 34.5957 13.0727 33.928 15.58 23.3914C15.6173 23.2309 15.5772 23.0963 15.5227 22.953C14.9238 21.3339 14.8035 19.692 15.3279 18.0271C16.4626 14.4337 20.5374 14.1558 21.2509 17.1245C21.6894 18.9584 20.5288 21.3597 19.6376 24.9073C18.8983 27.8359 22.3456 29.9163 25.2914 27.7786C28.0079 25.8099 29.0624 21.0846 28.8618 17.7377C28.4664 11.0638 21.1478 9.61962 16.5027 11.7688C11.1785 14.2303 9.96931 20.8296 12.3735 23.8442C12.6772 24.2281 12.9122 24.4631 12.8119 24.85C12.6572 25.4546 12.5196 26.0621 12.3534 26.6639C12.2302 27.1109 11.8548 27.2742 11.4049 27.0908C10.5195 26.7326 9.78014 26.1681 9.18124 25.4259C7.14098 22.8985 6.55641 17.8982 9.25575 13.6658C12.2445 8.97488 17.8065 7.08074 22.8871 7.65385C28.9535 8.34445 32.7876 12.488 33.504 17.1904C33.8307 19.3309 33.5957 24.6121 30.5898 28.3459C27.1311 32.6356 21.5231 32.9193 18.9384 30.2859C18.7378 30.0853 18.5803 29.8475 18.3854 29.6068C18.3567 29.7042 18.3309 29.7844 18.308 29.8675C17.0672 34.7332 16.9268 35.8135 15.6517 38.0716C15.4539 38.4183 15.2362 38.7507 15.0241 39.086C16.8982 39.6677 18.8926 39.9829 20.9558 39.9829C31.9967 39.9829 40.9458 31.0338 40.9458 19.9929C40.9458 8.95194 31.9967 0.00286834 20.9558 0.00286834L20.9529 0Z" fill="#FFBD59"/>
<path d="M18.3053 29.865C18.3254 29.7819 18.3541 29.7017 18.3827 29.6043C18.5776 29.845 18.738 30.0828 18.9357 30.2834C21.5233 32.9169 27.1284 32.6303 30.5871 28.3434C33.593 24.6096 33.828 19.3285 33.5013 17.1879C32.7821 12.4855 28.948 8.34198 22.8845 7.65138C17.8067 7.07541 12.2447 8.97239 9.25307 13.6633C6.55373 17.8957 7.13829 22.896 9.17856 25.4235C9.77746 26.1656 10.5168 26.7301 11.4022 27.0883C11.855 27.2717 12.2275 27.1084 12.3507 26.6614C12.5169 26.0596 12.6545 25.4521 12.8092 24.8475C12.9095 24.4578 12.6746 24.2257 12.3708 23.8417C9.96662 20.8271 11.1787 14.2278 16.5 11.7663C21.1451 9.61714 28.4637 11.0585 28.8591 17.7352C29.0597 21.0822 28.0052 25.8074 25.2887 27.7761C22.3429 29.9138 18.8957 27.8334 19.635 24.9048C20.5262 21.3573 21.6867 18.9559 21.2483 17.122C20.5347 14.1562 16.46 14.4312 15.3252 18.0246C14.8008 19.6895 14.9211 21.3315 15.52 22.9505C15.5745 23.0966 15.6146 23.2285 15.5773 23.3889C13.07 33.9284 12.8321 34.5961 12.7662 36.5389C12.7462 37.1034 12.772 37.665 12.7949 38.2267C13.517 38.5505 14.2535 38.8457 15.0186 39.0835C15.2306 38.7482 15.4484 38.4158 15.6461 38.0691C16.9213 35.811 17.0588 34.7307 18.3025 29.865H18.3053Z" fill="white"/>
</svg>
