<svg width="40" height="40" viewBox="0 0 40 40" fill="none" xmlns="http://www.w3.org/2000/svg">
<path d="M39.98 19.99C39.98 8.94909 31.0309 0 19.99 0C8.94909 0 0 8.94909 0 19.99C0 29.9678 7.31003 38.2378 16.8666 39.7365V25.7669H11.7917V19.9872H16.8666V15.5828C16.8666 10.5738 19.8496 7.80573 24.4173 7.80573C26.6037 7.80573 28.8933 8.19545 28.8933 8.19545V13.1156H26.3716C23.8872 13.1156 23.1134 14.6572 23.1134 16.2362V19.9872H28.6583L27.7728 25.7669H23.1163V39.7365C32.6729 38.2378 39.9829 29.9678 39.9829 19.99H39.98Z" fill="#FFBD59"/>
<path d="M27.7698 25.7698L28.6553 19.99H23.1105V16.239C23.1105 14.6572 23.8842 13.1184 26.3686 13.1184H28.8903V8.19831C28.8903 8.19831 26.6035 7.80859 24.4143 7.80859C19.8466 7.80859 16.8636 10.5767 16.8636 15.5857V19.99H11.7887V25.7698H16.8636V39.7393C17.8809 39.8998 18.9239 39.9829 19.987 39.9829C21.0501 39.9829 22.0932 39.8998 23.1105 39.7393V25.7698H27.767H27.7698Z" fill="white"/>
</svg>
