<svg width="34" height="34" viewBox="0 0 34 34" fill="none" xmlns="http://www.w3.org/2000/svg">
<path d="M16.8531 33.4075C26.0784 33.4075 33.5569 25.929 33.5569 16.7038C33.5569 7.47853 26.0784 0 16.8531 0C7.62791 0 0.149376 7.47853 0.149376 16.7038C0.149376 25.929 7.62791 33.4075 16.8531 33.4075Z" fill="#132549"/>
<path d="M22.0384 10.3848C21.4039 10.3848 20.8891 10.8996 20.8891 11.5341C20.8891 12.1686 21.4039 12.6835 22.0384 12.6835C22.6729 12.6835 23.1877 12.1686 23.1877 11.5341C23.1877 10.8996 22.6729 10.3848 22.0384 10.3848Z" fill="white"/>
<path d="M16.932 11.8574C14.2718 11.8574 12.1095 14.022 12.1095 16.6799C12.1095 19.3377 14.2741 21.5023 16.932 21.5023C19.5899 21.5023 21.7544 19.3377 21.7544 16.6799C21.7544 14.022 19.5899 11.8574 16.932 11.8574ZM16.932 19.7711C15.2271 19.7711 13.8431 18.3847 13.8431 16.6823C13.8431 14.9798 15.2295 13.5934 16.932 13.5934C18.6345 13.5934 20.0208 14.9798 20.0208 16.6823C20.0208 18.3847 18.6345 19.7711 16.932 19.7711Z" fill="white"/>
<path d="M20.761 26.4734H12.9407C9.69619 26.4734 7.05753 23.8347 7.05753 20.5902V12.7699C7.05753 9.52541 9.69619 6.88672 12.9407 6.88672H20.761C24.0055 6.88672 26.6442 9.52541 26.6442 12.7699V20.5902C26.6442 23.8347 24.0055 26.4734 20.761 26.4734V26.4734ZM12.9407 8.73045C10.7138 8.73045 8.90126 10.5431 8.90126 12.7699V20.5902C8.90126 22.8171 10.7138 24.6297 12.9407 24.6297H20.761C22.9879 24.6297 24.8005 22.8171 24.8005 20.5902V12.7699C24.8005 10.5407 22.9879 8.73045 20.761 8.73045H12.9407Z" fill="white"/>
</svg>
