<svg width="34" height="34" viewBox="0 0 34 34" fill="none" xmlns="http://www.w3.org/2000/svg">
<path d="M17.2962 33.4075C26.5215 33.4075 34 25.929 34 16.7038C34 7.47853 26.5215 0 17.2962 0C8.07099 0 0.592453 7.47853 0.592453 16.7038C0.592453 25.929 8.07099 33.4075 17.2962 33.4075Z" fill="#132549"/>
<path d="M26.2388 14.3164C26.2388 12.1015 24.443 10.3057 22.2281 10.3057H11.9702C9.75533 10.3057 7.95949 12.1015 7.95949 14.3164V19.0885C7.95949 21.3034 9.75533 23.0993 11.9702 23.0993H22.2281C24.443 23.0993 26.2388 21.3034 26.2388 19.0885V14.3164ZM20.2071 17.0604L15.6074 19.3352C15.4278 19.4333 14.8149 19.3017 14.8149 19.0981V14.4265C14.8149 14.2182 15.4326 14.0889 15.6122 14.1919L20.0156 16.5863C20.2 16.6917 20.3939 16.9575 20.2071 17.0604Z" fill="white"/>
</svg>
