<svg width="16" height="16" viewBox="0 0 16 16" fill="none" xmlns="http://www.w3.org/2000/svg">
<circle cx="8" cy="8" r="8" fill="#D43B33"/>
<path d="M7.34908 8.34036C7.51036 8.28276 7.7062 8.22516 8.02876 8.22516C8.743 8.22516 9.24988 8.62836 9.24988 9.33108C9.24988 9.95316 8.77756 10.46 7.98268 10.46C7.19932 10.46 6.65788 9.90708 6.62332 9.14676L5.09116 9.44628C5.18332 10.702 6.24316 11.8309 7.98268 11.8309C9.79132 11.8309 10.8512 10.6444 10.8512 9.35412C10.8512 7.98324 9.81436 7.11924 8.6854 7.07316L10.6208 5.46036V4.18164H5.33308V5.55252H8.60476L6.64636 7.23444L7.34908 8.34036Z" fill="white"/>
</svg>
