<svg width="41" height="40" viewBox="0 0 41 40" fill="none" xmlns="http://www.w3.org/2000/svg">
<path d="M20.9158 39.98C31.956 39.98 40.9058 31.0302 40.9058 19.99C40.9058 8.94984 31.956 0 20.9158 0C9.87562 0 0.925781 8.94984 0.925781 19.99C0.925781 31.0302 9.87562 39.98 20.9158 39.98Z" fill="#FFBD59"/>
<path d="M31.6182 17.1328C31.6182 14.4822 29.4691 12.333 26.8185 12.333H14.5425C11.8918 12.333 9.74268 14.4822 9.74268 17.1328V22.8438C9.74268 25.4944 11.8918 27.6436 14.5425 27.6436H26.8185C29.4691 27.6436 31.6182 25.4944 31.6182 22.8438V17.1328ZM24.3999 20.4167L18.8952 23.139C18.6803 23.2564 17.9468 23.0988 17.9468 22.8553V17.2646C17.9468 17.0153 18.686 16.8606 18.9009 16.9838L24.1707 19.8493C24.3914 19.9754 24.6234 20.2935 24.3999 20.4167Z" fill="white"/>
</svg>
