<svg width="41" height="40" viewBox="0 0 41 40" fill="none" xmlns="http://www.w3.org/2000/svg">
<path d="M20.953 0C9.91204 0 0.962952 8.94909 0.962952 19.99C0.962952 28.1224 5.82579 35.1057 12.7977 38.2292C12.7747 37.6675 12.7489 37.1059 12.769 36.5414C12.8349 34.5957 13.0727 33.928 15.5801 23.3914C15.6173 23.2309 15.5772 23.0963 15.5228 22.953C14.9239 21.3339 14.8036 19.692 15.3279 18.0271C16.4627 14.4337 20.5375 14.1558 21.251 17.1245C21.6894 18.9584 20.5288 21.3597 19.6377 24.9073C18.8984 27.8359 22.3457 29.9163 25.2914 27.7786C28.008 25.8099 29.0625 21.0846 28.8619 17.7377C28.4664 11.0638 21.1478 9.61962 16.5028 11.7688C11.1786 14.2303 9.96937 20.8296 12.3736 23.8442C12.6773 24.2281 12.9123 24.4631 12.812 24.85C12.6573 25.4546 12.5197 26.0621 12.3535 26.6639C12.2303 27.1109 11.8549 27.2742 11.405 27.0908C10.5195 26.7326 9.7802 26.1681 9.1813 25.4259C7.14104 22.8985 6.55647 17.8982 9.25581 13.6658C12.2446 8.97488 17.8066 7.08074 22.8872 7.65385C28.9536 8.34445 32.7877 12.488 33.5041 17.1904C33.8307 19.3309 33.5958 24.6121 30.5898 28.3459C27.1311 32.6356 21.5232 32.9193 18.9385 30.2859C18.7379 30.0853 18.5803 29.8475 18.3855 29.6068C18.3568 29.7042 18.331 29.7844 18.3081 29.8675C17.0673 34.7332 16.9269 35.8135 15.6517 38.0716C15.454 38.4183 15.2362 38.7507 15.0242 39.086C16.8982 39.6677 18.8926 39.9829 20.9558 39.9829C31.9968 39.9829 40.9459 31.0338 40.9459 19.9929C40.9459 8.95194 31.9968 0.00286834 20.9558 0.00286834L20.953 0Z" fill="#FFBD59"/>
<path d="M18.3054 29.865C18.3255 29.7819 18.3541 29.7017 18.3828 29.6043C18.5777 29.845 18.7381 30.0828 18.9358 30.2834C21.5234 32.9169 27.1285 32.6303 30.5872 28.3434C33.5931 24.6096 33.8281 19.3285 33.5014 17.1879C32.7822 12.4855 28.948 8.34198 22.8846 7.65138C17.8068 7.07541 12.2448 8.97239 9.25316 13.6633C6.55382 17.8957 7.13839 22.896 9.17865 25.4235C9.77755 26.1656 10.5169 26.7301 11.4023 27.0883C11.8551 27.2717 12.2276 27.1084 12.3508 26.6614C12.517 26.0596 12.6546 25.4521 12.8093 24.8475C12.9096 24.4578 12.6747 24.2257 12.3709 23.8417C9.96671 20.8271 11.1788 14.2278 16.5001 11.7663C21.1452 9.61714 28.4638 11.0585 28.8592 17.7352C29.0598 21.0822 28.0053 25.8074 25.2888 27.7761C22.343 29.9138 18.8958 27.8334 19.6351 24.9048C20.5263 21.3573 21.6868 18.9559 21.2483 17.122C20.5348 14.1562 16.46 14.4312 15.3253 18.0246C14.8009 19.6895 14.9212 21.3315 15.5201 22.9505C15.5746 23.0966 15.6147 23.2285 15.5774 23.3889C13.0701 33.9284 12.8322 34.5961 12.7663 36.5389C12.7463 37.1034 12.7721 37.665 12.795 38.2267C13.5171 38.5505 14.2536 38.8457 15.0187 39.0835C15.2307 38.7482 15.4485 38.4158 15.6462 38.0691C16.9214 35.811 17.0589 34.7307 18.3026 29.865H18.3054Z" fill="white"/>
</svg>
