<svg width="16" height="16" viewBox="0 0 16 16" fill="none" xmlns="http://www.w3.org/2000/svg">
<circle cx="8" cy="8" r="8" fill="#D43B33"/>
<path d="M7.34905 8.34036C7.51033 8.28276 7.70617 8.22516 8.02873 8.22516C8.74297 8.22516 9.24985 8.62836 9.24985 9.33108C9.24985 9.95316 8.77753 10.46 7.98265 10.46C7.19929 10.46 6.65785 9.90708 6.62329 9.14676L5.09113 9.44628C5.18329 10.702 6.24313 11.8309 7.98265 11.8309C9.79129 11.8309 10.8511 10.6444 10.8511 9.35412C10.8511 7.98324 9.81433 7.11924 8.68537 7.07316L10.6207 5.46036V4.18164H5.33305V5.55252H8.60473L6.64633 7.23444L7.34905 8.34036Z" fill="white"/>
</svg>
