<svg width="34" height="34" viewBox="0 0 34 34" fill="none" xmlns="http://www.w3.org/2000/svg">
<path d="M17.0002 0C7.77437 0 0.296463 7.47791 0.296463 16.7038C0.296463 23.4993 4.35988 29.3345 10.1856 31.9445C10.1664 31.4752 10.1449 31.0059 10.1616 30.5342C10.2167 28.9083 10.4155 28.3504 12.5106 19.546C12.5417 19.4119 12.5082 19.2994 12.4627 19.1796C11.9623 17.8268 11.8617 16.4547 12.2999 15.0636C13.2481 12.0609 16.653 11.8286 17.2493 14.3093C17.6156 15.8418 16.6458 17.8483 15.9012 20.8127C15.2834 23.2598 18.164 24.9982 20.6255 23.2119C22.8954 21.5669 23.7766 17.6184 23.609 14.8217C23.2785 9.24501 17.163 8.03821 13.2816 9.83406C8.83272 11.8909 7.82227 17.4053 9.83123 19.9243C10.085 20.2452 10.2814 20.4415 10.1976 20.7648C10.0683 21.27 9.95333 21.7776 9.81445 22.2805C9.71149 22.654 9.3978 22.7905 9.02187 22.6372C8.28198 22.3379 7.66421 21.8662 7.16376 21.2461C5.45891 19.1341 4.97044 14.9558 7.22602 11.4192C9.72345 7.49946 14.3711 5.91671 18.6165 6.3956C23.6856 6.97266 26.8894 10.4351 27.488 14.3644C27.761 16.153 27.5646 20.566 25.0528 23.686C22.1627 27.2705 17.4767 27.5076 15.3169 25.3071C15.1493 25.1395 15.0176 24.9407 14.8548 24.7396C14.8309 24.821 14.8093 24.888 14.7901 24.9575C13.7533 29.0233 13.636 29.926 12.5705 31.8128C12.4053 32.1025 12.2233 32.3803 12.0461 32.6605C13.6121 33.1465 15.2786 33.4099 17.0026 33.4099C26.2285 33.4099 33.7064 25.932 33.7064 16.7062C33.7064 7.48029 26.2285 0.0023968 17.0026 0.0023968L17.0002 0Z" fill="#132549"/>
<path d="M14.7881 24.9556C14.8049 24.8861 14.8288 24.8191 14.8528 24.7377C15.0156 24.9388 15.1497 25.1376 15.3149 25.3052C17.4771 27.5057 22.1607 27.2662 25.0508 23.6841C27.5626 20.5641 27.7589 16.1511 27.4859 14.3625C26.8849 10.4332 23.6811 6.97078 18.6145 6.39371C14.3715 5.91242 9.7238 7.49755 7.22398 11.4173C4.9684 14.9539 5.45687 19.1322 7.16172 21.2442C7.66217 21.8643 8.27994 22.336 9.01983 22.6353C9.39815 22.7886 9.70945 22.6521 9.81241 22.2786C9.95129 21.7757 10.0662 21.2681 10.1955 20.7629C10.2794 20.4372 10.083 20.2433 9.82919 19.9224C7.82023 17.4034 8.83307 11.889 13.2796 9.83216C17.161 8.03631 23.2765 9.24073 23.6069 14.8198C23.7745 17.6166 22.8934 21.565 20.6234 23.21C18.1619 24.9963 15.2814 23.2579 15.8992 20.8108C16.6438 17.8464 17.6136 15.8399 17.2472 14.3074C16.651 11.8291 13.2461 12.059 12.2979 15.0617C11.8597 16.4528 11.9603 17.8249 12.4607 19.1777C12.5062 19.2999 12.5397 19.41 12.5086 19.5441C10.4134 28.3509 10.2147 28.9088 10.1596 30.5323C10.1428 31.004 10.1644 31.4733 10.1836 31.9426C10.787 32.2132 11.4023 32.4598 12.0417 32.6586C12.2189 32.3784 12.4008 32.1006 12.566 31.8109C13.6316 29.9241 13.7465 29.0214 14.7857 24.9556H14.7881Z" fill="white"/>
</svg>
