<svg width="34" height="34" viewBox="0 0 34 34" fill="none" xmlns="http://www.w3.org/2000/svg">
<path d="M33.4075 16.7038C33.4075 7.47791 25.9296 0 16.7038 0C7.47791 0 0 7.47791 0 16.7038C0 25.0413 6.1083 31.9517 14.0938 33.204V21.531H9.85325V16.7014H14.0938V13.0211C14.0938 8.83556 16.5864 6.52251 20.4032 6.52251C22.2302 6.52251 24.1434 6.84816 24.1434 6.84816V10.9595H22.0362C19.9602 10.9595 19.3137 12.2477 19.3137 13.567V16.7014H23.947L23.2071 21.531H19.3161V33.204C27.3016 31.9517 33.4099 25.0413 33.4099 16.7038H33.4075Z" fill="#132549"/>
<path d="M23.2049 21.5334L23.9448 16.7038H19.3115V13.5694C19.3115 12.2477 19.958 10.9618 22.034 10.9618H24.1411V6.85055C24.1411 6.85055 22.2303 6.5249 20.401 6.5249C16.5842 6.5249 14.0916 8.83795 14.0916 13.0235V16.7038H9.851V21.5334H14.0916V33.2064C14.9416 33.3405 15.8132 33.4099 16.7015 33.4099C17.5899 33.4099 18.4615 33.3405 19.3115 33.2064V21.5334H23.2025H23.2049Z" fill="white"/>
</svg>
