<svg width="41" height="40" viewBox="0 0 41 40" fill="none" xmlns="http://www.w3.org/2000/svg">
<path d="M20.9358 39.98C31.976 39.98 40.9258 31.0302 40.9258 19.99C40.9258 8.94984 31.976 0 20.9358 0C9.89564 0 0.945801 8.94984 0.945801 19.99C0.945801 31.0302 9.89564 39.98 20.9358 39.98Z" fill="#FFBD59"/>
<path d="M31.9802 13.1415C31.2868 13.4538 30.5217 13.6458 29.7766 13.769C30.132 13.7088 30.6506 13.0669 30.8598 12.809C31.1779 12.4136 31.4415 11.9608 31.5905 11.4737C31.6105 11.4365 31.6249 11.3877 31.5847 11.3591C31.536 11.339 31.5045 11.3505 31.4673 11.3677C30.6334 11.8147 29.7709 12.1385 28.8539 12.3678C28.7766 12.3878 28.7221 12.3678 28.6734 12.319C28.596 12.2331 28.5243 12.1528 28.4441 12.0841C28.0573 11.7545 27.6446 11.4995 27.1776 11.3075C26.5643 11.0582 25.8967 10.9522 25.2347 10.9952C24.5928 11.0381 23.9624 11.2187 23.3922 11.5167C22.822 11.8147 22.3119 12.2302 21.905 12.7317C21.4866 13.2503 21.1743 13.8607 21.0167 14.5083C20.8648 15.133 20.8763 15.752 20.9708 16.3852C20.9852 16.4913 20.9765 16.5056 20.8791 16.4913C17.2886 15.9583 14.3113 14.6716 11.8956 11.9179C11.7896 11.7975 11.7352 11.7975 11.6492 11.9265C10.5918 13.5111 11.1047 16.0586 12.4258 17.3079C12.6006 17.4741 12.7839 17.6404 12.9788 17.7951C12.9072 17.8094 12.0274 17.7149 11.2451 17.3079C11.1391 17.242 11.0876 17.2793 11.079 17.3996C11.0704 17.5716 11.0847 17.7292 11.1076 17.9154C11.311 19.523 12.4229 21.0074 13.9474 21.5862C14.1279 21.6636 14.3285 21.7295 14.5234 21.761C14.1766 21.8384 13.8184 21.8928 12.824 21.8126C12.7008 21.7897 12.6521 21.8498 12.7008 21.9702C13.4487 24.0105 15.0649 24.6151 16.2742 24.9618C16.4346 24.9905 16.598 24.9905 16.7613 25.0277C16.7527 25.042 16.7413 25.0421 16.7327 25.0564C16.3315 25.6667 14.9417 26.1223 14.2941 26.3487C13.1164 26.7614 11.8326 26.9448 10.589 26.8215C10.3913 26.7929 10.3483 26.7958 10.2938 26.8215C10.2394 26.8559 10.2881 26.9018 10.3511 26.9534C10.6033 27.1196 10.8612 27.2686 11.1219 27.4118C11.9128 27.8302 12.7381 28.1655 13.5978 28.4033C18.048 29.6326 23.0627 28.73 26.4039 25.4088C29.0287 22.8012 29.9485 19.2049 29.9485 15.6058C29.9485 15.4654 30.1148 15.388 30.2151 15.3135C30.8971 14.8006 31.4472 14.1874 31.9573 13.5025C32.0719 13.3478 32.0719 13.2102 32.0719 13.1558V13.1357C32.0719 13.0784 32.0719 13.0956 31.9831 13.1357L31.9802 13.1415Z" fill="white"/>
</svg>
