<svg width="34" height="34" viewBox="0 0 34 34" fill="none" xmlns="http://www.w3.org/2000/svg">
<path d="M17.1493 33.4075C26.3745 33.4075 33.853 25.929 33.853 16.7038C33.853 7.47853 26.3745 0 17.1493 0C7.92403 0 0.445496 7.47853 0.445496 16.7038C0.445496 25.929 7.92403 33.4075 17.1493 33.4075Z" fill="#132549"/>
<path d="M26.3778 10.9809C25.7984 11.2419 25.159 11.4024 24.5365 11.5053C24.8334 11.455 25.2668 10.9187 25.4416 10.7032C25.7074 10.3727 25.9276 9.99441 26.0521 9.58735C26.0689 9.55622 26.0809 9.51552 26.0473 9.49157C26.0066 9.47481 25.9803 9.48439 25.9492 9.49876C25.2524 9.87229 24.5317 10.1429 23.7655 10.3344C23.7008 10.3512 23.6553 10.3344 23.6146 10.2937C23.5499 10.2219 23.4901 10.1548 23.423 10.0974C23.0998 9.82201 22.755 9.6089 22.3647 9.44847C21.8523 9.24015 21.2944 9.15156 20.7412 9.18747C20.2049 9.22339 19.6781 9.37424 19.2016 9.62327C18.7251 9.87229 18.2989 10.2195 17.9589 10.6385C17.6093 11.0719 17.3483 11.5819 17.2166 12.1231C17.0897 12.6451 17.0993 13.1623 17.1783 13.6915C17.1903 13.7801 17.1831 13.792 17.1017 13.7801C14.1014 13.3347 11.6135 12.2596 9.59501 9.95849C9.50641 9.85792 9.46095 9.85792 9.38912 9.96567C8.50556 11.2898 8.93416 13.4185 10.038 14.4625C10.1841 14.6014 10.3373 14.7402 10.5001 14.8695C10.4403 14.8815 9.70515 14.8025 9.05146 14.4625C8.96287 14.4074 8.91981 14.4385 8.91262 14.5391C8.90544 14.6828 8.91738 14.8145 8.93653 14.9701C9.10654 16.3134 10.0356 17.5537 11.3095 18.0374C11.4603 18.1021 11.6279 18.1571 11.7908 18.1835C11.501 18.2481 11.2017 18.2936 10.3708 18.2266C10.2679 18.2074 10.2272 18.2577 10.2679 18.3583C10.8928 20.0631 12.2433 20.5684 13.2538 20.8581C13.3878 20.882 13.5243 20.882 13.6608 20.9132C13.6536 20.9251 13.6441 20.9251 13.6369 20.9371C13.3017 21.4471 12.1404 21.8278 11.5992 22.017C10.6151 22.3618 9.54238 22.5151 8.50318 22.4121C8.33796 22.3881 8.30204 22.3905 8.25654 22.4121C8.21105 22.4408 8.25174 22.4791 8.30442 22.5222C8.51513 22.6611 8.73062 22.7856 8.94852 22.9053C9.60939 23.2549 10.299 23.5351 11.0174 23.7338C14.736 24.7611 18.9263 24.0068 21.7182 21.2316C23.9115 19.0527 24.6801 16.0476 24.6801 13.0402C24.6801 12.9228 24.819 12.8582 24.9028 12.7959C25.4727 12.3673 25.9324 11.8549 26.3586 11.2826C26.4544 11.1533 26.4545 11.0384 26.4545 10.9929V10.9761C26.4545 10.9282 26.4544 10.9426 26.3802 10.9761L26.3778 10.9809Z" fill="white"/>
</svg>
