<svg width="16" height="16" viewBox="0 0 16 16" fill="none" xmlns="http://www.w3.org/2000/svg">
<circle cx="8" cy="8" r="8" fill="#D43B33"/>
<path d="M7.34923 8.34036C7.51051 8.28276 7.70635 8.22516 8.02891 8.22516C8.74315 8.22516 9.25003 8.62836 9.25003 9.33108C9.25003 9.95316 8.77771 10.46 7.98283 10.46C7.19947 10.46 6.65803 9.90708 6.62347 9.14676L5.09131 9.44628C5.18347 10.702 6.24331 11.8309 7.98283 11.8309C9.79147 11.8309 10.8513 10.6444 10.8513 9.35412C10.8513 7.98324 9.81451 7.11924 8.68555 7.07316L10.6209 5.46036V4.18164H5.33323V5.55252H8.60491L6.64651 7.23444L7.34923 8.34036Z" fill="white"/>
</svg>
