<svg width="62" height="57" viewBox="0 0 62 57" fill="none" xmlns="http://www.w3.org/2000/svg">
<g clip-path="url(#clip0_6_272)">
<path d="M30.0131 29.7837C30.2202 29.9737 30.4927 30.0837 30.787 30.0837C31.0813 30.0837 31.3538 29.9737 31.5609 29.7837L46.8861 15.5437C49.6438 12.4937 49.9817 8.19373 47.7254 4.83373C46.2321 2.62373 43.8233 1.21373 40.9239 0.873726C37.5231 0.473726 33.9261 1.58373 31.332 3.85373L30.787 4.32373L30.242 3.85373C27.6478 1.57373 24.0508 0.463726 20.6501 0.863726C17.7507 1.20373 15.3418 2.61373 13.8485 4.82373C11.5813 8.18373 11.9192 12.4837 14.7423 15.5937L30.0131 29.7737V29.7837ZM15.7015 5.88373C16.8351 4.19373 18.699 3.11373 20.9334 2.85373C21.304 2.81373 21.6746 2.78373 22.0452 2.78373C24.4541 2.78373 26.8957 3.68373 28.7487 5.29373L30.0349 6.42373C30.46 6.79373 31.114 6.79373 31.5391 6.42373L32.8252 5.29373C34.9616 3.43373 37.8719 2.51373 40.6405 2.84373C42.875 3.10373 44.7279 4.18373 45.8724 5.87373C47.6382 8.50373 47.3766 11.8637 45.2838 14.1937L30.787 27.6537L16.3555 14.2637C14.1973 11.8737 13.9357 8.51373 15.7015 5.88373Z" fill="black"/>
<path d="M59.6717 27.8737C57.7751 26.3237 54.8867 26.3737 53.0991 27.9937C52.7067 28.3537 52.2707 28.7237 51.8238 29.1137C50.0253 27.6937 47.3548 27.7437 45.6871 29.2537C43.202 31.5137 39.496 33.9537 36.6184 35.7337C35.9208 35.3337 35.1033 35.0937 34.2204 35.0937H25.7294C24.683 35.0937 23.5712 34.9737 22.3068 34.7337C15.1456 33.3437 10.1752 37.0937 8.36585 38.7637C7.83176 39.2637 7.23226 39.6737 6.61097 39.9637L0.866714 42.6737C0.332619 42.9237 0.125521 43.5337 0.398018 44.0237C0.594217 44.3637 0.975714 44.5637 1.36811 44.5637C1.53161 44.5637 1.70601 44.5237 1.86951 44.4537L7.61376 41.7437C8.44215 41.3537 9.22694 40.8237 9.92454 40.1737C11.4723 38.7337 15.7451 35.5037 21.8599 36.6937C23.266 36.9637 24.5304 37.1037 25.7294 37.1037H34.2204C35.5829 37.1037 36.6838 38.1337 36.6838 39.4037C36.6838 40.6737 35.5829 41.7037 34.2204 41.7037H24.4759C23.8764 41.7037 23.3859 42.1537 23.3859 42.7037C23.3859 43.2537 23.8764 43.7037 24.4759 43.7037H34.2204C35.4194 43.7037 36.4985 43.2737 37.316 42.5837C37.316 42.5837 37.3378 42.5837 37.3487 42.5737C37.8283 42.2437 49.186 34.3737 54.636 29.4337C55.6061 28.5537 57.1865 28.5337 58.222 29.3837C58.767 29.8337 59.094 30.4537 59.1267 31.1237C59.1703 31.8037 58.9196 32.4437 58.4182 32.9437L57.1102 34.2837C52.9792 38.5037 46.7444 44.8737 39.4742 49.4437C38.2098 50.2337 36.6947 50.6337 35.1687 50.6137C32.1386 50.5537 26.2853 50.3837 21.1078 49.8437C18.1104 49.5337 15.0148 50.1537 12.3879 51.6137L6.36027 54.9437C5.84797 55.2337 5.67357 55.8437 5.98967 56.3137C6.19677 56.6237 6.55647 56.7937 6.92706 56.7937C7.12326 56.7937 7.30856 56.7437 7.49386 56.6537L13.5215 53.3237C15.7342 52.0937 18.3502 51.5637 20.868 51.8337C26.1327 52.3837 32.0623 52.5637 35.136 52.6137C37.1743 52.6437 39.0818 52.1237 40.7168 51.0937C48.205 46.3837 54.5488 39.9037 58.7452 35.6137L60.0532 34.2837C60.9361 33.3837 61.3939 32.2237 61.3176 31.0137C61.2522 29.8037 60.6636 28.6937 59.6826 27.8837L59.6717 27.8737ZM47.224 30.6737C48.0088 29.9537 49.2623 29.8937 50.1888 30.4737C46.4828 33.4837 41.7632 36.9037 38.8202 39.0037C38.7548 38.3437 38.5368 37.7237 38.1771 37.1837C41.0874 35.3737 44.717 32.9437 47.224 30.6737Z" fill="black"/>
</g>
<defs>
<clipPath id="clip0_6_272">
<rect width="61.0395" height="56" fill="white" transform="translate(0.267212 0.783691)"/>
</clipPath>
</defs>
</svg>
