<svg width="162" height="40" viewBox="0 0 162 40" fill="none" xmlns="http://www.w3.org/2000/svg">
<path d="M38.3816 37.7404C38.3796 38.3326 38.1645 38.8997 37.7835 39.3177C37.4025 39.7356 36.8865 39.9702 36.3487 39.9702C24.9349 38.9942 13.4696 38.9942 2.05589 39.9702C1.78891 39.9736 1.52395 39.919 1.27614 39.8096C1.02833 39.7001 0.802525 39.5381 0.611615 39.3326C0.420705 39.1271 0.268431 38.8822 0.16349 38.6119C0.058548 38.3416 0.00299404 38.0512 0 37.7573C0.466244 31.8559 0.466244 25.9211 0 20.0197C0.00106786 19.4387 0.206509 18.8808 0.573202 18.463L6.4428 11.1846C7.29878 13.9361 6.94721 19.599 5.45689 26.8017C5.45689 26.869 5.45689 26.9532 5.41103 27.0625C5.36517 27.1719 5.41103 27.0625 5.41103 27.113C5.37761 27.2445 5.36836 27.3821 5.38382 27.5176C5.39928 27.6531 5.43913 27.7838 5.50105 27.9021C5.56297 28.0204 5.64571 28.124 5.74443 28.2066C5.84314 28.2893 5.95585 28.3495 6.07595 28.3836C6.32073 28.4452 6.57757 28.4032 6.79557 28.266C7.01357 28.1289 7.17681 27.9066 7.25292 27.6431V27.5506C7.55832 26.0266 8.01718 24.545 8.62096 23.133C9.28588 21.6521 10.1495 20.4572 11.0208 20.4488C11.101 20.4361 11.1828 20.4483 11.257 20.484C11.3313 20.5196 11.395 20.5774 11.4411 20.6508C11.9455 21.3912 11.7698 23.5369 11.4411 25.3124C11.2653 25.9939 11.1583 26.4988 11.1278 26.6923C11.087 26.9541 11.1378 27.2232 11.2698 27.4455C11.4018 27.6678 11.6053 27.8269 11.8395 27.8908C12.0737 27.9547 12.3211 27.9187 12.5322 27.7901C12.7432 27.6614 12.9022 27.4496 12.9773 27.1972C13.0461 26.9616 13.1684 26.4735 13.2983 25.834C13.8715 23.7473 15.0714 20.6255 16.7299 20.6255C16.898 20.6255 16.9439 20.6844 16.9821 20.7349C17.4406 21.3828 17.2572 23.6211 16.9439 25.0094C16.775 25.466 16.7214 25.9642 16.7887 26.4515C16.856 26.9388 17.0416 27.3971 17.326 27.7778C17.5859 28.1027 17.9197 28.3457 18.2931 28.4818C18.6665 28.6178 19.066 28.642 19.4507 28.5519C20.002 28.3931 20.5049 28.0755 20.9079 27.6319C21.3108 27.1883 21.5992 26.6345 21.7435 26.0276C21.7741 25.9266 21.8199 25.8004 21.881 25.6489C21.9617 26.0061 22.0933 26.3469 22.2708 26.6587C22.4985 27.0496 22.81 27.373 23.1778 27.6004C23.5456 27.8278 23.9585 27.9523 24.3802 27.9629C25.0382 28.018 25.6959 27.8538 26.268 27.4917C25.6907 30.1305 25.3452 32.8243 25.2362 35.5359C25.2263 35.7687 25.2881 35.9984 25.4115 36.1878C25.535 36.3771 25.7129 36.5151 25.9164 36.5792C26.0029 36.609 26.0932 36.6233 26.1839 36.6213C26.3481 36.6216 26.5096 36.5754 26.6529 36.4869C26.7961 36.3985 26.9163 36.2709 27.0017 36.1164C27.0475 36.0323 31.4421 28.1228 37.9384 26.8101C37.7346 30.4606 37.8832 34.1245 38.3816 37.7404V37.7404Z" fill="#FFBD59"/>
<path d="M8.0259 9.87198C7.98865 9.77617 7.93697 9.68798 7.87305 9.61113L11.2893 6.31268C13.3625 4.55203 15.3308 2.64644 17.1819 0.607722C17.5429 0.233871 18.0156 0.0181382 18.5111 0.00109297C19.0065 -0.0159523 19.4905 0.166864 19.8721 0.515163C25.3871 6.40731 31.3726 11.7411 37.756 16.452C37.9955 16.661 38.1887 16.9271 38.3211 17.2303C38.4534 17.5335 38.5216 17.8658 38.5203 18.2022C38.3292 20.4741 38.1687 22.6535 38.0694 24.7066C37.9335 24.6726 37.7925 24.6726 37.6567 24.7066C33.071 25.6237 29.563 29.2167 27.4842 31.9009C27.9195 28.8522 28.5581 25.8429 29.3949 22.8975C29.7603 21.9021 30.0492 20.8748 30.2585 19.8262C30.3103 19.5634 30.2686 19.2887 30.1421 19.0587C30.0156 18.8286 29.8138 18.6606 29.5783 18.5893C29.3413 18.5218 29.09 18.5555 28.8745 18.6834C28.6591 18.8114 28.4956 19.0242 28.4166 19.2793C28.1338 20.2638 27.8664 21.1978 27.6141 22.0981C26.9339 23.9661 25.8716 25.893 24.5571 25.8341C24.435 25.8449 24.3126 25.8184 24.2034 25.7575C24.0942 25.6967 24.0023 25.6038 23.938 25.4891C23.3419 24.471 23.938 21.5848 24.5188 19.8599C24.5854 19.6143 24.5682 19.3505 24.4706 19.1179C24.3729 18.8852 24.2015 18.6999 23.9885 18.5966C23.7755 18.4933 23.5356 18.4791 23.3138 18.5568C23.092 18.6345 22.9036 18.7986 22.784 19.0184C22.5394 19.5233 20.4071 23.9913 19.9867 25.3461C19.6887 26.3221 19.2225 26.4904 19.1155 26.5157C19.0604 26.5306 19.0028 26.5299 18.948 26.5137C18.8932 26.4976 18.843 26.4664 18.8021 26.4231C18.7511 26.3137 18.7246 26.1926 18.7246 26.0697C18.7246 25.9468 18.7511 25.8256 18.8021 25.7163C18.8053 25.6855 18.8053 25.6545 18.8021 25.6237C18.9626 24.9001 19.7345 21.223 18.504 19.4896C18.3001 19.1863 18.0338 18.9405 17.7269 18.7723C17.42 18.6041 17.0813 18.5183 16.7386 18.522V18.522C16.0904 18.5545 15.4583 18.7551 14.8938 19.1075C14.3294 19.4598 13.8485 19.9541 13.4904 20.5498C13.3985 20.1218 13.2296 19.7184 12.9937 19.3634C12.7721 19.0261 12.4783 18.7543 12.1382 18.5722C11.7982 18.3902 11.4226 18.3035 11.0448 18.32V18.32C10.5789 18.3371 10.1207 18.4559 9.69686 18.6697C9.27306 18.8835 8.89211 19.188 8.57618 19.5654C8.96595 15.7957 8.96595 12.1523 8.0259 9.87198Z" fill="#FFBD59"/>
<path d="M49.1545 22.422C49.1421 22.334 49.1488 22.244 49.174 22.1593C49.1991 22.0746 49.242 21.9976 49.2993 21.9346C49.3565 21.8716 49.4264 21.8243 49.5033 21.7967C49.5802 21.769 49.662 21.7616 49.742 21.7752H50.2932C50.3715 21.7657 50.4508 21.7761 50.5249 21.8056C50.5989 21.8352 50.6659 21.883 50.7205 21.9455C50.7752 22.008 50.8161 22.0834 50.8401 22.166C50.8641 22.2487 50.8706 22.3362 50.859 22.422V26.4149C50.8608 26.6953 50.8439 26.9756 50.8082 27.2534V27.2534C51.0975 26.6898 51.5199 26.223 52.0308 25.9024C52.5416 25.5818 53.1217 25.4195 53.7095 25.4326C56.0886 25.4326 57.6335 27.5408 57.6335 30.5914C57.6335 33.6419 56.0088 35.822 53.6297 35.822C53.0347 35.8415 52.4468 35.6757 51.9336 35.3438C51.4203 35.0118 51.0026 34.5271 50.7284 33.9453V33.9453C50.7654 34.1396 50.7824 34.3378 50.7792 34.5363V35.0234C50.7792 35.3748 50.5689 35.5904 50.1917 35.5904H49.7492C49.6693 35.604 49.5875 35.5966 49.5106 35.5689C49.4337 35.5412 49.3637 35.4939 49.3065 35.4309C49.2493 35.3679 49.2064 35.291 49.1812 35.2063C49.1561 35.1216 49.1494 35.0316 49.1617 34.9435L49.1545 22.422ZM53.3469 34.1609C54.7975 34.1609 55.958 32.8912 55.958 30.6393C55.958 28.3873 54.9136 27.1016 53.4194 27.1016C52.0703 27.1016 50.8227 28.1557 50.8227 30.6233C50.8227 32.46 51.6568 34.1609 53.3469 34.1609Z" fill="#142640"/>
<path d="M63.3736 25.7822C65.8615 25.7822 67.2468 27.7387 67.2468 30.4938C67.2468 30.6696 67.1834 30.8381 67.0705 30.9624C66.9576 31.0867 66.8045 31.1566 66.6448 31.1566H60.6391C60.6398 31.6045 60.7224 32.0477 60.882 32.4598C61.0415 32.8718 61.2748 33.2443 61.5678 33.5551C61.8609 33.8658 62.2078 34.1084 62.5878 34.2684C62.9678 34.4285 63.3732 34.5027 63.7798 34.4866C64.5639 34.4826 65.3263 34.2028 65.9557 33.688C66.018 33.6343 66.0906 33.5969 66.168 33.5785C66.2453 33.5602 66.3254 33.5615 66.4023 33.5823C66.4791 33.603 66.5507 33.6427 66.6116 33.6984C66.6724 33.7541 66.721 33.8243 66.7536 33.9036L66.9132 34.1991C66.964 34.2705 66.9987 34.3542 67.0144 34.4432C67.0302 34.5323 67.0267 34.6242 67.004 34.7114C66.9814 34.7986 66.9403 34.8787 66.8842 34.9451C66.8281 35.0115 66.7585 35.0624 66.6811 35.0935C65.7891 35.7773 64.7288 36.145 63.642 36.1476C63.0147 36.1753 62.389 36.0606 61.8037 35.8107C61.2184 35.5607 60.686 35.1809 60.2398 34.6948C59.7935 34.2087 59.4428 33.6268 59.2095 32.9851C58.9763 32.3434 58.8654 31.6558 58.8838 30.9649C58.8766 27.8186 60.8132 25.7822 63.3736 25.7822ZM65.5496 29.9108C65.4698 28.1699 64.5051 27.2995 63.3373 27.2995C62.6792 27.3005 62.0451 27.5721 61.5593 28.0611C61.0736 28.55 60.7713 29.2211 60.7116 29.9428L65.5496 29.9108Z" fill="#142640"/>
<path d="M68.8534 34.2076L69.0348 33.9361C69.2669 33.6007 69.499 33.5847 69.8544 33.8003C70.4915 34.2988 71.2491 34.5768 72.0304 34.5989C72.9153 34.5989 73.5608 34.1278 73.5608 33.2893C73.5608 31.3567 68.926 31.9956 68.926 28.6576C68.926 26.781 70.4202 25.8067 72.1755 25.8067C73.0575 25.8016 73.9219 26.0791 74.6633 26.6053C74.7281 26.6408 74.7854 26.691 74.8313 26.7526C74.8773 26.8142 74.911 26.8857 74.9301 26.9626C74.9493 27.0395 74.9535 27.1199 74.9426 27.1987C74.9316 27.2775 74.9056 27.3528 74.8664 27.4198L74.7068 27.7153C74.5255 28.0666 74.2644 28.1066 73.9235 27.9309C73.3718 27.564 72.7402 27.3681 72.0957 27.3639C71.2398 27.3639 70.587 27.7712 70.587 28.6177C70.587 30.5901 75.2218 29.8874 75.2218 33.2493C75.2218 34.9343 73.9235 36.1641 71.9869 36.1641C70.9017 36.1733 69.843 35.7951 68.9695 35.086C68.9036 35.0421 68.8473 34.9826 68.8047 34.9119C68.7621 34.8412 68.7343 34.7609 68.7232 34.677C68.7121 34.593 68.718 34.5074 68.7406 34.4262C68.7631 34.3451 68.8016 34.2704 68.8534 34.2076Z" fill="#142640"/>
<path d="M77.1506 26.3361C77.1382 26.248 77.1449 26.158 77.17 26.0733C77.1952 25.9886 77.2381 25.9117 77.2954 25.8487C77.3526 25.7857 77.4225 25.7384 77.4994 25.7107C77.5763 25.683 77.6581 25.6756 77.7381 25.6892H78.1443C78.5359 25.6892 78.7318 25.9048 78.7318 26.2402V26.8232C78.7437 26.9986 78.7437 27.1748 78.7318 27.3502V27.3502C79.0213 26.7535 79.4583 26.2591 79.9922 25.9242C80.5261 25.5893 81.1352 25.4276 81.7491 25.4576C84.1645 25.4576 85.6949 27.5659 85.6949 30.6403C85.6949 33.7148 83.9759 35.823 81.6258 35.823C81.0596 35.841 80.5 35.6864 80.0085 35.3764C79.517 35.0664 79.1129 34.613 78.8406 34.0662V34.0662C78.8664 34.3635 78.8713 34.6625 78.8551 34.9606V38.8895C78.8666 38.9753 78.8602 39.0629 78.8362 39.1455C78.8122 39.2281 78.7713 39.3036 78.7166 39.3661C78.662 39.4285 78.595 39.4764 78.521 39.5059C78.4469 39.5354 78.3676 39.5458 78.2893 39.5364H77.7671C77.6871 39.5499 77.6053 39.5426 77.5284 39.5149C77.4515 39.4872 77.3816 39.4399 77.3244 39.3769C77.2672 39.3139 77.2242 39.237 77.1991 39.1523C77.1739 39.0676 77.1672 38.9776 77.1796 38.8895L77.1506 26.3361ZM81.3937 34.162C82.8444 34.162 83.9904 32.8923 83.9904 30.6403C83.9904 28.3884 82.9459 27.1027 81.4518 27.1027C80.1026 27.1027 78.8551 28.1408 78.8551 30.6643C78.8188 32.4371 79.711 34.162 81.3937 34.162Z" fill="#142640"/>
<path d="M91.8952 25.4571C92.8215 25.4838 93.72 25.8109 94.4782 26.3975C95.2364 26.984 95.8205 27.8039 96.1573 28.7543C96.4941 29.7047 96.5686 30.7435 96.3715 31.7403C96.1744 32.7372 95.7145 33.6478 95.0493 34.3581C94.3842 35.0684 93.5434 35.5468 92.6324 35.7333C91.7214 35.9198 90.7806 35.8062 89.928 35.4066C89.0754 35.007 88.3489 34.3392 87.8395 33.487C87.3301 32.6348 87.0605 31.636 87.0645 30.6158C87.0642 29.9247 87.19 29.2406 87.4345 28.604C87.679 27.9675 88.0372 27.3916 88.4878 26.9104C88.9383 26.4292 89.4722 26.0526 90.0575 25.8029C90.6428 25.5533 91.2678 25.4357 91.8952 25.4571V25.4571ZM91.8952 34.1774C92.3129 34.1757 92.7259 34.0811 93.1096 33.8995C93.4933 33.7179 93.8398 33.4528 94.1283 33.1203C94.4168 32.7878 94.6414 32.3946 94.7886 31.9642C94.9358 31.5339 95.0026 31.0752 94.9851 30.6158C94.9851 29.7136 94.6595 28.8483 94.0801 28.2103C93.5006 27.5723 92.7147 27.2139 91.8952 27.2139C91.0757 27.2139 90.2898 27.5723 89.7103 28.2103C89.1308 28.8483 88.8053 29.7136 88.8053 30.6158C88.7917 31.0734 88.8614 31.5293 89.0103 31.9568C89.1591 32.3843 89.3841 32.7747 89.672 33.1051C89.9599 33.4354 90.3049 33.6991 90.6867 33.8805C91.0685 34.0619 91.4794 34.1574 91.8952 34.1614V34.1774Z" fill="#142640"/>
<path d="M98.6642 22.422C98.6519 22.334 98.6586 22.244 98.6837 22.1593C98.7089 22.0746 98.7518 21.9976 98.809 21.9346C98.8663 21.8716 98.9362 21.8243 99.0131 21.7967C99.09 21.769 99.1718 21.7616 99.2517 21.7752H99.803C99.8813 21.7657 99.9606 21.7761 100.035 21.8056C100.109 21.8352 100.176 21.883 100.23 21.9455C100.285 22.008 100.326 22.0834 100.35 22.166C100.374 22.2487 100.38 22.3362 100.369 22.422V29.3057H101.703L103.879 26.1114C103.949 25.9714 104.056 25.8578 104.185 25.7851C104.315 25.7125 104.461 25.6843 104.605 25.7041H105.265C105.743 25.7041 105.903 26.0555 105.62 26.5027L103.132 30.0803L106.034 34.7918C106.28 35.239 106.121 35.5904 105.642 35.5904H104.917C104.769 35.6067 104.62 35.5725 104.49 35.4925C104.36 35.4125 104.256 35.2906 104.191 35.1432L101.703 30.9667H100.369V34.9595C100.38 35.0453 100.374 35.1329 100.35 35.2155C100.326 35.2981 100.285 35.3736 100.23 35.4361C100.176 35.4985 100.109 35.5464 100.035 35.5759C99.9606 35.6054 99.8813 35.6158 99.803 35.6063H99.2517C99.1718 35.6199 99.09 35.6126 99.0131 35.5849C98.9362 35.5572 98.8663 35.5099 98.809 35.4469C98.7518 35.3839 98.7089 35.307 98.6837 35.2223C98.6586 35.1376 98.6519 35.0476 98.6642 34.9595V22.422Z" fill="#142640"/>
<path d="M111.473 25.4575C113.961 25.4575 115.347 27.414 115.347 30.1691C115.347 30.3448 115.283 30.5134 115.17 30.6377C115.057 30.762 114.904 30.8319 114.745 30.8319H108.739C108.74 31.2777 108.822 31.7189 108.98 32.1293C109.138 32.5398 109.369 32.9111 109.66 33.2215C109.951 33.5319 110.295 33.775 110.673 33.9366C111.05 34.0981 111.453 34.1747 111.858 34.1619C112.642 34.1579 113.404 33.8781 114.034 33.3633C114.096 33.3096 114.169 33.2722 114.246 33.2538C114.323 33.2355 114.404 33.2368 114.48 33.2575C114.557 33.2783 114.629 33.318 114.69 33.3737C114.751 33.4294 114.799 33.4996 114.832 33.5789L114.991 33.8744C115.038 33.9416 115.07 34.0193 115.086 34.102C115.103 34.1846 115.102 34.2702 115.085 34.3525C115.067 34.4349 115.034 34.512 114.986 34.5785C114.939 34.6449 114.879 34.699 114.81 34.7369C113.918 35.4206 112.858 35.7884 111.771 35.791C111.144 35.8186 110.518 35.7039 109.933 35.454C109.347 35.2041 108.815 34.8243 108.369 34.3382C107.922 33.8521 107.572 33.2701 107.338 32.6284C107.105 31.9868 106.994 31.2991 107.013 30.6083C106.984 27.4939 108.913 25.4575 111.473 25.4575ZM113.649 29.5861C113.599 27.8452 112.656 26.9429 111.473 26.9429C110.815 26.9438 110.181 27.2155 109.696 27.7044C109.21 28.1934 108.907 28.8645 108.848 29.5861H113.649Z" fill="#142640"/>
<path d="M120.192 26.3356C120.181 26.2478 120.188 26.1586 120.214 26.0747C120.24 25.9908 120.283 25.9146 120.34 25.852C120.397 25.7894 120.466 25.7421 120.542 25.7137C120.618 25.6854 120.699 25.6769 120.779 25.6887H121.287C121.367 25.6752 121.448 25.6825 121.525 25.7102C121.602 25.7379 121.672 25.7852 121.729 25.8482C121.787 25.9112 121.83 25.9881 121.855 26.0728C121.88 26.1575 121.887 26.2475 121.874 26.3356V27.4695C121.875 27.7182 121.858 27.9665 121.823 28.2122V28.2122C122.215 26.9026 123.223 25.6089 124.58 25.6089C124.986 25.6089 125.146 25.8245 125.146 26.2557V26.8067C125.146 27.238 124.913 27.4536 124.507 27.4536C122.752 27.4536 121.896 29.5458 121.896 31.5023V34.9601C121.908 35.0481 121.902 35.1382 121.877 35.2228C121.851 35.3075 121.808 35.3845 121.751 35.4475C121.694 35.5105 121.624 35.5578 121.547 35.5855C121.47 35.6132 121.388 35.6205 121.309 35.6069H120.757C120.678 35.6188 120.596 35.6102 120.52 35.5819C120.444 35.5536 120.375 35.5063 120.318 35.4437C120.261 35.3811 120.218 35.3049 120.192 35.221C120.167 35.1371 120.159 35.0478 120.17 34.9601L120.192 26.3356Z" fill="#142640"/>
<path d="M130.425 25.4571C131.352 25.4838 132.25 25.8109 133.008 26.3975C133.767 26.984 134.351 27.8039 134.688 28.7543C135.024 29.7047 135.099 30.7435 134.902 31.7403C134.705 32.7372 134.245 33.6478 133.58 34.3581C132.914 35.0684 132.074 35.5468 131.163 35.7333C130.252 35.9198 129.311 35.8062 128.458 35.4066C127.606 35.007 126.879 34.3392 126.37 33.487C125.86 32.6348 125.591 31.636 125.595 30.6158C125.594 29.9247 125.72 29.2406 125.965 28.604C126.209 27.9675 126.567 27.3916 127.018 26.9104C127.469 26.4292 128.002 26.0526 128.588 25.8029C129.173 25.5533 129.798 25.4357 130.425 25.4571ZM130.425 34.1774C130.843 34.1757 131.256 34.0811 131.64 33.8995C132.024 33.7179 132.37 33.4528 132.659 33.1203C132.947 32.7878 133.172 32.3946 133.319 31.9642C133.466 31.5339 133.533 31.0752 133.515 30.6158C133.515 29.7136 133.19 28.8483 132.61 28.2103C132.031 27.5723 131.245 27.2139 130.425 27.2139C129.606 27.2139 128.82 27.5723 128.241 28.2103C127.661 28.8483 127.336 29.7136 127.336 30.6158C127.322 31.0734 127.392 31.5293 127.541 31.9568C127.689 32.3843 127.914 32.7747 128.202 33.1051C128.49 33.4354 128.835 33.6991 129.217 33.8805C129.599 34.0619 130.01 34.1574 130.425 34.1614V34.1774Z" fill="#142640"/>
<path d="M141.421 25.4571C142.347 25.4838 143.245 25.8109 144.004 26.3975C144.762 26.984 145.346 27.8039 145.683 28.7543C146.019 29.7047 146.094 30.7435 145.897 31.7403C145.7 32.7372 145.24 33.6478 144.575 34.3581C143.91 35.0684 143.069 35.5468 142.158 35.7333C141.247 35.9198 140.306 35.8062 139.453 35.4066C138.601 35.007 137.874 34.3392 137.365 33.487C136.856 32.6348 136.586 31.636 136.59 30.6158C136.59 29.9247 136.715 29.2406 136.96 28.604C137.204 27.9675 137.563 27.3916 138.013 26.9104C138.464 26.4292 138.998 26.0526 139.583 25.8029C140.168 25.5533 140.793 25.4357 141.421 25.4571V25.4571ZM141.421 34.1774C141.836 34.1735 142.247 34.0776 142.629 33.8955C143.01 33.7134 143.355 33.4488 143.642 33.1174C143.928 32.7859 144.152 32.3944 144.299 31.966C144.445 31.5377 144.512 31.0812 144.496 30.6238C144.496 29.7215 144.17 28.8563 143.591 28.2183C143.011 27.5803 142.226 27.2219 141.406 27.2219C140.587 27.2219 139.801 27.5803 139.221 28.2183C138.642 28.8563 138.316 29.7215 138.316 30.6238C138.304 31.082 138.374 31.5384 138.525 31.966C138.675 32.3937 138.901 32.7838 139.191 33.1135C139.48 33.4433 139.826 33.7058 140.209 33.8858C140.592 34.0658 141.004 34.1595 141.421 34.1614V34.1774Z" fill="#142640"/>
<path d="M148.174 26.3357C148.164 26.2479 148.171 26.1586 148.197 26.0747C148.223 25.9909 148.266 25.9146 148.323 25.852C148.38 25.7894 148.449 25.7421 148.525 25.7138C148.601 25.6855 148.682 25.6769 148.762 25.6888H149.262C149.342 25.6752 149.424 25.6826 149.501 25.7103C149.578 25.738 149.648 25.7852 149.705 25.8482C149.762 25.9112 149.805 25.9882 149.831 26.0729C149.856 26.1576 149.862 26.2476 149.85 26.3357V27.2141C149.849 27.4044 149.832 27.5942 149.799 27.7811C150.077 27.1153 150.515 26.5463 151.066 26.1365C151.618 25.7266 152.261 25.4916 152.925 25.4572C153.551 25.3825 154.179 25.5742 154.681 25.9928C155.183 26.4115 155.52 27.0256 155.624 27.7092V27.7092C155.914 27.0486 156.364 26.489 156.925 26.0917C157.485 25.6944 158.134 25.4749 158.801 25.4572C160.846 25.4572 161.767 26.727 161.767 29.2504V34.9602C161.779 35.0482 161.773 35.1382 161.748 35.2229C161.722 35.3076 161.68 35.3846 161.622 35.4476C161.565 35.5106 161.495 35.5578 161.418 35.5855C161.341 35.6132 161.26 35.6206 161.18 35.607H160.628C160.549 35.6189 160.468 35.6103 160.391 35.582C160.315 35.5537 160.246 35.5064 160.189 35.4438C160.132 35.3812 160.089 35.305 160.064 35.2211C160.038 35.1372 160.03 35.0479 160.041 34.9602V29.6577C160.041 28.2682 159.794 27.1741 158.46 27.1741C156.791 27.1741 155.798 29.0747 155.798 30.9673V34.9602C155.809 35.046 155.803 35.1335 155.779 35.2162C155.755 35.2988 155.714 35.3742 155.659 35.4367C155.605 35.4992 155.538 35.547 155.464 35.5766C155.389 35.6061 155.31 35.6165 155.232 35.607H154.666C154.588 35.6165 154.509 35.6061 154.435 35.5766C154.36 35.547 154.294 35.4992 154.239 35.4367C154.184 35.3742 154.143 35.2988 154.119 35.2162C154.095 35.1335 154.089 35.046 154.1 34.9602V29.6577C154.1 28.364 153.919 27.1741 152.534 27.1741C150.829 27.1741 149.835 29.1306 149.835 30.9673V34.9602C149.848 35.0482 149.841 35.1382 149.816 35.2229C149.791 35.3076 149.748 35.3846 149.691 35.4476C149.633 35.5106 149.564 35.5578 149.487 35.5855C149.41 35.6132 149.328 35.6206 149.248 35.607H148.697C148.617 35.6189 148.536 35.6103 148.46 35.582C148.384 35.5537 148.314 35.5064 148.257 35.4438C148.201 35.3812 148.158 35.305 148.132 35.2211C148.106 35.1372 148.098 35.0479 148.109 34.9602L148.174 26.3357Z" fill="#142640"/>
</svg>
