<svg width="156" height="33" viewBox="0 0 156 33" fill="none" xmlns="http://www.w3.org/2000/svg">
<path d="M34.3297 31.1106C34.3279 31.5857 34.1356 32.0408 33.7947 32.3761C33.4539 32.7115 32.9925 32.8998 32.5114 32.8998C22.3026 32.1165 12.0477 32.1165 1.83885 32.8998C1.60006 32.9024 1.36307 32.8586 1.14142 32.7708C0.919772 32.683 0.717803 32.553 0.547047 32.3881C0.376291 32.2232 0.240093 32.0267 0.14623 31.8098C0.0523672 31.5929 0.00267796 31.3599 0 31.1241C0.417024 26.3888 0.417024 21.6268 0 16.8915C0.000955128 16.4253 0.184708 15.9777 0.51269 15.6425L5.76264 9.80225C6.52825 12.01 6.2138 16.5539 4.88081 22.3334C4.88081 22.3874 4.88081 22.4549 4.83979 22.5427C4.79878 22.6304 4.83979 22.5427 4.83979 22.5832C4.8099 22.6887 4.80163 22.7991 4.81546 22.9078C4.82928 23.0165 4.86493 23.1214 4.92031 23.2163C4.9757 23.3113 5.0497 23.3943 5.13799 23.4607C5.22629 23.527 5.3271 23.5753 5.43452 23.6027C5.65345 23.6521 5.88319 23.6184 6.07817 23.5083C6.27316 23.3983 6.41916 23.2199 6.48724 23.0085V22.9343C6.7604 21.7115 7.17081 20.5226 7.71086 19.3896C8.30558 18.2013 9.07803 17.2426 9.85732 17.2358C9.92905 17.2257 10.0022 17.2354 10.0686 17.264C10.1351 17.2927 10.1921 17.339 10.2333 17.3979C10.6845 17.992 10.5272 19.7137 10.2333 21.1383C10.0761 21.6852 9.98037 22.0903 9.95302 22.2456C9.91659 22.4557 9.96198 22.6716 10.0801 22.8499C10.1981 23.0283 10.3802 23.156 10.5896 23.2072C10.799 23.2585 11.0204 23.2297 11.2091 23.1264C11.3979 23.0232 11.5402 22.8532 11.6073 22.6507C11.6688 22.4617 11.7782 22.0701 11.8944 21.5569C12.4071 19.8825 13.4803 17.3776 14.9637 17.3776C15.1141 17.3776 15.1551 17.4249 15.1893 17.4654C15.5995 17.9853 15.4354 19.7812 15.1551 20.8953C15.0041 21.2616 14.9562 21.6614 15.0163 22.0524C15.0765 22.4434 15.2425 22.8111 15.4969 23.1166C15.7294 23.3773 16.0279 23.5723 16.3619 23.6814C16.6959 23.7906 17.0532 23.81 17.3973 23.7377C17.8904 23.6103 18.3402 23.3555 18.7006 22.9995C19.0611 22.6436 19.319 22.1992 19.448 21.7122C19.4754 21.6312 19.5164 21.5299 19.5711 21.4084C19.6432 21.6949 19.7609 21.9684 19.9197 22.2186C20.1234 22.5323 20.4019 22.7918 20.7309 22.9743C21.0599 23.1567 21.4292 23.2566 21.8064 23.2651C22.3949 23.3094 22.9833 23.1776 23.4949 22.887C22.9786 25.0044 22.6695 27.1658 22.572 29.3416C22.5632 29.5284 22.6184 29.7128 22.7289 29.8647C22.8393 30.0166 22.9984 30.1273 23.1804 30.1788C23.2578 30.2027 23.3386 30.2141 23.4197 30.2126C23.5666 30.2128 23.7111 30.1757 23.8392 30.1048C23.9673 30.0338 24.0747 29.9314 24.1511 29.8075C24.1921 29.74 28.1228 23.3934 33.9333 22.3401C33.751 25.2692 33.8839 28.2092 34.3297 31.1106V31.1106Z" fill="#FFBD59"/>
<path d="M7.17749 8.74887C7.14417 8.672 7.09795 8.60124 7.04077 8.53957L10.0964 5.89291C11.9507 4.48016 13.7112 2.95113 15.3669 1.31527C15.6898 1.01529 16.1126 0.842191 16.5557 0.828514C16.9989 0.814837 17.4318 0.961528 17.7731 1.241C22.7059 5.96883 28.0595 10.2487 33.769 14.0287C33.9832 14.1964 34.156 14.4099 34.2744 14.6532C34.3928 14.8964 34.4538 15.1631 34.4526 15.433C34.2817 17.256 34.1382 19.0047 34.0493 20.6521C33.9278 20.6249 33.8017 20.6249 33.6802 20.6521C29.5786 21.388 26.441 24.271 24.5816 26.4248C24.971 23.9785 25.5422 21.5639 26.2906 19.2005C26.6174 18.4018 26.8758 17.5775 27.063 16.7361C27.1093 16.5252 27.072 16.3048 26.9589 16.1202C26.8457 15.9356 26.6653 15.8009 26.4546 15.7436C26.2427 15.6895 26.0178 15.7165 25.8252 15.8191C25.6325 15.9218 25.4862 16.0926 25.4156 16.2973C25.1627 17.0872 24.9234 17.8366 24.6978 18.5591C24.0894 20.0579 23.1392 21.6041 21.9635 21.5568C21.8543 21.5655 21.7449 21.5442 21.6472 21.4954C21.5495 21.4465 21.4673 21.372 21.4098 21.28C20.8766 20.463 21.4098 18.1472 21.9293 16.7631C21.9888 16.5661 21.9735 16.3544 21.8861 16.1677C21.7988 15.9811 21.6455 15.8324 21.455 15.7495C21.2645 15.6666 21.0499 15.6552 20.8515 15.7175C20.6531 15.7799 20.4846 15.9116 20.3775 16.0879C20.1588 16.4931 18.2516 20.0782 17.8756 21.1652C17.609 21.9484 17.192 22.0834 17.0963 22.1037C17.0471 22.1157 16.9955 22.1151 16.9465 22.1022C16.8975 22.0892 16.8526 22.0642 16.8161 22.0294C16.7705 21.9417 16.7467 21.8445 16.7467 21.7459C16.7467 21.6472 16.7705 21.55 16.8161 21.4623C16.8189 21.4376 16.8189 21.4127 16.8161 21.388C16.9596 20.8074 17.65 17.8569 16.5495 16.466C16.367 16.2227 16.1288 16.0254 15.8544 15.8905C15.5799 15.7555 15.277 15.6867 14.9704 15.6896V15.6896C14.3906 15.7157 13.8252 15.8766 13.3204 16.1594C12.8155 16.4421 12.3854 16.8387 12.0651 17.3168C11.9829 16.9733 11.8319 16.6496 11.6208 16.3648C11.4227 16.0941 11.1598 15.876 10.8557 15.7299C10.5516 15.5838 10.2156 15.5143 9.87766 15.5276V15.5276C9.46093 15.5412 9.05111 15.6366 8.67204 15.8081C8.29298 15.9797 7.95225 16.224 7.66967 16.5268C8.0183 13.5021 8.0183 10.5786 7.17749 8.74887Z" fill="#FFBD59"/>
<path d="M150.265 14.9805V12.2326H149.294C149.116 12.2326 149.027 12.1516 149.027 11.9828V11.9423C149.027 11.7735 149.116 11.6924 149.294 11.6924H151.864C152.042 11.6924 152.131 11.7735 152.131 11.9423V11.9828C152.131 12.1516 152.042 12.2326 151.864 12.2326H150.894V14.9805C150.898 15.0161 150.894 15.0523 150.882 15.0862C150.87 15.1202 150.851 15.151 150.825 15.1764C150.8 15.2017 150.768 15.221 150.734 15.2327C150.7 15.2444 150.663 15.2482 150.627 15.2438H150.545C150.508 15.2505 150.47 15.2485 150.433 15.2378C150.397 15.2272 150.364 15.2083 150.337 15.1826C150.31 15.1569 150.289 15.1252 150.276 15.0901C150.264 15.055 150.26 15.0174 150.265 14.9805V14.9805ZM152.657 11.9423C152.656 11.908 152.662 11.8739 152.676 11.8422C152.689 11.8105 152.709 11.7819 152.734 11.7583C152.759 11.7347 152.789 11.7167 152.822 11.7053C152.854 11.6939 152.889 11.6896 152.924 11.6924H153.013C153.081 11.6856 153.151 11.7019 153.209 11.7386C153.267 11.7754 153.311 11.8305 153.334 11.895L154.086 13.5492C154.133 13.6588 154.172 13.7716 154.202 13.8867V13.8867C154.233 13.7716 154.271 13.6588 154.318 13.5492L155.07 11.895C155.093 11.8305 155.137 11.7754 155.195 11.7386C155.254 11.7019 155.323 11.6856 155.392 11.6924H155.48C155.515 11.6896 155.55 11.6939 155.583 11.7053C155.615 11.7167 155.645 11.7347 155.67 11.7583C155.696 11.7819 155.715 11.8105 155.729 11.8422C155.742 11.8739 155.748 11.908 155.747 11.9423L155.993 14.9738C156.001 15.01 156 15.0476 155.99 15.0834C155.981 15.1192 155.962 15.1521 155.937 15.1794C155.911 15.2066 155.879 15.2273 155.844 15.2397C155.808 15.2521 155.771 15.2558 155.733 15.2506H155.651C155.617 15.2534 155.582 15.2491 155.549 15.2377C155.516 15.2264 155.486 15.2083 155.461 15.1847C155.436 15.1611 155.416 15.1325 155.403 15.1008C155.39 15.0691 155.384 15.035 155.385 15.0008L155.234 13.1238C155.227 13.0429 155.227 12.9616 155.234 12.8807V12.8807L154.551 14.3864C154.531 14.4504 154.49 14.5059 154.434 14.5439C154.378 14.5819 154.311 14.6001 154.243 14.5957H154.195C154.128 14.6001 154.06 14.5819 154.005 14.5439C153.949 14.5059 153.908 14.4504 153.888 14.3864L153.204 12.8807C153.211 12.9616 153.211 13.0429 153.204 13.1238L153.019 15.0143C153.021 15.0485 153.014 15.0826 153.001 15.1143C152.988 15.146 152.968 15.1746 152.943 15.1982C152.918 15.2218 152.888 15.2399 152.855 15.2512C152.822 15.2626 152.787 15.267 152.753 15.2641H152.671C152.634 15.2693 152.596 15.2656 152.56 15.2532C152.525 15.2408 152.493 15.2201 152.468 15.1929C152.442 15.1657 152.424 15.1327 152.414 15.0969C152.404 15.0611 152.403 15.0235 152.411 14.9873L152.657 11.9423Z" fill="#142640"/>
<path d="M41.3924 13.1917C41.3808 13.1172 41.3871 13.0411 41.4108 12.9695C41.4345 12.8979 41.4749 12.8328 41.5289 12.7796C41.5828 12.7263 41.6487 12.6863 41.7212 12.6629C41.7937 12.6395 41.8707 12.6333 41.9461 12.6448H42.4656C42.5394 12.6367 42.6141 12.6456 42.6839 12.6705C42.7538 12.6955 42.8168 12.7359 42.8683 12.7888C42.9199 12.8416 42.9584 12.9054 42.981 12.9752C43.0036 13.0451 43.0097 13.1191 42.9988 13.1917V16.5675C43.0006 16.8046 42.9846 17.0416 42.951 17.2764V17.2764C43.2236 16.7999 43.6218 16.4052 44.1032 16.1342C44.5846 15.8632 45.1313 15.7259 45.6853 15.737C47.9275 15.737 49.3835 17.5195 49.3835 20.0986C49.3835 22.6778 47.8523 24.521 45.6101 24.521C45.0494 24.5375 44.4953 24.3974 44.0116 24.1167C43.5278 23.836 43.1342 23.4262 42.8758 22.9343V22.9343C42.9106 23.0986 42.9267 23.2662 42.9236 23.434V23.8458C42.9236 24.1429 42.7254 24.3252 42.3699 24.3252H41.9529C41.8776 24.3367 41.8005 24.3305 41.728 24.307C41.6555 24.2836 41.5896 24.2437 41.5357 24.1904C41.4818 24.1371 41.4413 24.0721 41.4176 24.0005C41.3939 23.9289 41.3876 23.8527 41.3992 23.7783L41.3924 13.1917ZM45.3435 23.1166C46.7107 23.1166 47.8044 22.0431 47.8044 20.1391C47.8044 18.2352 46.8201 17.1481 45.4119 17.1481C44.1404 17.1481 42.9646 18.0394 42.9646 20.1256C42.9646 21.6785 43.7508 23.1166 45.3435 23.1166Z" fill="#142640"/>
<path d="M54.9872 15.7573C57.3319 15.7573 58.6375 17.4115 58.6375 19.7408C58.6375 19.8894 58.5777 20.032 58.4713 20.1371C58.3649 20.2422 58.2206 20.3012 58.0701 20.3012H52.41C52.4107 20.6799 52.4886 21.0547 52.6389 21.403C52.7893 21.7514 53.0091 22.0664 53.2853 22.3291C53.5615 22.5918 53.8884 22.7969 54.2466 22.9322C54.6047 23.0675 54.9868 23.1302 55.37 23.1167C56.109 23.1133 56.8275 22.8767 57.4207 22.4415C57.4794 22.3961 57.5478 22.3644 57.6207 22.3489C57.6936 22.3334 57.7692 22.3345 57.8416 22.3521C57.914 22.3696 57.9814 22.4032 58.0388 22.4503C58.0962 22.4973 58.1419 22.5567 58.1727 22.6238L58.3231 22.8736C58.3709 22.934 58.4036 23.0047 58.4185 23.08C58.4334 23.1553 58.43 23.233 58.4087 23.3067C58.3874 23.3805 58.3487 23.4482 58.2958 23.5043C58.2429 23.5605 58.1773 23.6035 58.1043 23.6298C57.2637 24.2079 56.2644 24.5188 55.2401 24.521C54.6489 24.5444 54.0592 24.4474 53.5076 24.2361C52.956 24.0248 52.4543 23.7037 52.0337 23.2927C51.6131 22.8817 51.2826 22.3897 51.0628 21.8472C50.8429 21.3047 50.7384 20.7233 50.7558 20.1392C50.7489 17.479 52.5741 15.7573 54.9872 15.7573ZM57.0379 19.2479C56.9627 17.7761 56.0536 17.0401 54.953 17.0401C54.3327 17.041 53.7351 17.2706 53.2773 17.684C52.8196 18.0974 52.5346 18.6648 52.4784 19.2749L57.0379 19.2479Z" fill="#142640"/>
<path d="M59.9579 22.8665L60.1288 22.6369C60.3476 22.3534 60.5663 22.3399 60.9013 22.5222C61.5017 22.9436 62.2157 23.1786 62.9521 23.1973C63.786 23.1973 64.3944 22.799 64.3944 22.0901C64.3944 20.4561 60.0263 20.9963 60.0263 18.1741C60.0263 16.5874 61.4345 15.7637 63.0888 15.7637C63.9201 15.7594 64.7347 15.994 65.4335 16.4389C65.4945 16.469 65.5485 16.5114 65.5918 16.5635C65.6352 16.6155 65.6669 16.676 65.6849 16.741C65.703 16.806 65.707 16.874 65.6966 16.9406C65.6863 17.0072 65.6618 17.0709 65.6249 17.1276L65.4745 17.3774C65.3036 17.6745 65.0575 17.7082 64.7362 17.5597C64.2162 17.2495 63.621 17.0838 63.0136 17.0803C62.2069 17.0803 61.5917 17.4246 61.5917 18.1403C61.5917 19.808 65.9598 19.2138 65.9598 22.0563C65.9598 23.4809 64.7362 24.5207 62.911 24.5207C61.8883 24.5285 60.8905 24.2087 60.0673 23.6092C60.0052 23.572 59.9522 23.5217 59.912 23.4619C59.8719 23.4022 59.8457 23.3343 59.8352 23.2633C59.8247 23.1923 59.8303 23.1199 59.8516 23.0513C59.8728 22.9827 59.9091 22.9196 59.9579 22.8665Z" fill="#142640"/>
<path d="M67.7773 16.4996C67.7656 16.4251 67.7719 16.349 67.7956 16.2774C67.8193 16.2058 67.8598 16.1408 67.9137 16.0875C67.9677 16.0342 68.0335 15.9943 68.106 15.9708C68.1785 15.9474 68.2556 15.9412 68.331 15.9527H68.7138C69.0829 15.9527 69.2675 16.135 69.2675 16.4186V16.9114C69.2787 17.0598 69.2787 17.2087 69.2675 17.3571V17.3571C69.5403 16.8525 69.9522 16.4345 70.4554 16.1514C70.9586 15.8682 71.5326 15.7315 72.1112 15.7569C74.3875 15.7569 75.8299 17.5393 75.8299 20.1387C75.8299 22.7381 74.2098 24.5206 71.995 24.5206C71.4614 24.5358 70.9339 24.4051 70.4707 24.143C70.0075 23.8809 69.6266 23.4975 69.37 23.0352V23.0352C69.3944 23.2866 69.3989 23.5394 69.3837 23.7914V27.1132C69.3946 27.1858 69.3885 27.2598 69.3659 27.3297C69.3433 27.3995 69.3047 27.4633 69.2532 27.5161C69.2017 27.569 69.1386 27.6094 69.0688 27.6344C68.999 27.6593 68.9243 27.6681 68.8505 27.6601H68.3583C68.2829 27.6716 68.2059 27.6654 68.1334 27.642C68.0609 27.6186 67.995 27.5786 67.9411 27.5253C67.8871 27.4721 67.8467 27.407 67.823 27.3354C67.7993 27.2638 67.793 27.1877 67.8046 27.1132L67.7773 16.4996ZM71.7762 23.1162C73.1434 23.1162 74.2235 22.0427 74.2235 20.1387C74.2235 18.2348 73.2391 17.1478 71.8309 17.1478C70.5595 17.1478 69.3837 18.0255 69.3837 20.159C69.3495 21.6579 70.1903 23.1162 71.7762 23.1162Z" fill="#142640"/>
<path d="M81.6738 15.757C82.5468 15.7796 83.3937 16.0562 84.1082 16.5521C84.8228 17.048 85.3732 17.7411 85.6906 18.5447C86.0081 19.3483 86.0783 20.2265 85.8925 21.0693C85.7068 21.9121 85.2733 22.6821 84.6465 23.2826C84.0196 23.8832 83.2272 24.2876 82.3686 24.4453C81.51 24.603 80.6234 24.5069 79.8199 24.169C79.0163 23.8312 78.3316 23.2666 77.8516 22.5461C77.3715 21.8256 77.1174 20.9811 77.1211 20.1186C77.1209 19.5342 77.2394 18.9558 77.4699 18.4177C77.7003 17.8795 78.0378 17.3925 78.4625 16.9857C78.8871 16.5789 79.3902 16.2605 79.9419 16.0494C80.4935 15.8383 81.0825 15.7389 81.6738 15.757V15.757ZM81.6738 23.1298C82.0675 23.1283 82.4568 23.0484 82.8184 22.8949C83.18 22.7413 83.5066 22.5172 83.7785 22.2361C84.0503 21.9549 84.262 21.6225 84.4007 21.2586C84.5395 20.8948 84.6025 20.507 84.5859 20.1186C84.5859 19.3557 84.2791 18.6242 83.733 18.0848C83.1869 17.5454 82.4462 17.2423 81.6738 17.2423C80.9015 17.2423 80.1608 17.5454 79.6147 18.0848C79.0686 18.6242 78.7617 19.3557 78.7617 20.1186C78.749 20.5054 78.8146 20.8909 78.9549 21.2524C79.0952 21.6138 79.3072 21.9439 79.5786 22.2232C79.8499 22.5025 80.175 22.7254 80.5349 22.8788C80.8947 23.0322 81.2819 23.1129 81.6738 23.1163V23.1298Z" fill="#142640"/>
<path d="M88.0526 13.1917C88.0409 13.1172 88.0472 13.0411 88.0709 12.9695C88.0946 12.8979 88.1351 12.8328 88.189 12.7796C88.243 12.7263 88.3088 12.6863 88.3813 12.6629C88.4538 12.6395 88.5309 12.6333 88.6063 12.6448H89.1258C89.1996 12.6367 89.2743 12.6456 89.3441 12.6705C89.4139 12.6955 89.477 12.7359 89.5285 12.7888C89.58 12.8416 89.6186 12.9054 89.6412 12.9752C89.6638 13.0451 89.6699 13.1191 89.659 13.1917V19.0116H90.9168L92.9675 16.3109C93.0335 16.1926 93.1339 16.0965 93.2558 16.0351C93.3777 15.9737 93.5154 15.9498 93.6511 15.9666H94.2732C94.7244 15.9666 94.8747 16.2637 94.6082 16.6418L92.2635 19.6665L94.9978 23.65C95.2302 24.0281 95.0798 24.3252 94.6287 24.3252H93.9451C93.8056 24.339 93.6653 24.3101 93.543 24.2425C93.4207 24.1748 93.3224 24.0717 93.2615 23.9471L90.9168 20.416H89.659V23.7918C89.6699 23.8643 89.6638 23.9384 89.6412 24.0082C89.6186 24.0781 89.58 24.1419 89.5285 24.1947C89.477 24.2475 89.4139 24.288 89.3441 24.3129C89.2743 24.3379 89.1996 24.3467 89.1258 24.3387H88.6063C88.5309 24.3502 88.4538 24.344 88.3813 24.3205C88.3088 24.2971 88.243 24.2572 88.189 24.2039C88.1351 24.1506 88.0946 24.0856 88.0709 24.014C88.0472 23.9424 88.0409 23.8662 88.0526 23.7918V13.1917Z" fill="#142640"/>
<path d="M100.126 15.7573C102.471 15.7573 103.776 17.4115 103.776 19.7408C103.776 19.8894 103.716 20.032 103.61 20.1371C103.504 20.2422 103.359 20.3012 103.209 20.3012H97.5487C97.5495 20.6782 97.6267 21.0512 97.7758 21.3982C97.9249 21.7452 98.1429 22.0592 98.4169 22.3216C98.6908 22.584 99.0153 22.7896 99.371 22.9262C99.7268 23.0627 100.107 23.1275 100.488 23.1167C101.227 23.1133 101.946 22.8767 102.539 22.4415C102.598 22.3961 102.666 22.3644 102.739 22.3489C102.812 22.3334 102.887 22.3345 102.96 22.3521C103.032 22.3696 103.1 22.4032 103.157 22.4503C103.214 22.4973 103.26 22.5567 103.291 22.6238L103.441 22.8736C103.485 22.9304 103.516 22.9961 103.531 23.066C103.546 23.1359 103.546 23.2082 103.529 23.2778C103.513 23.3475 103.481 23.4127 103.437 23.4689C103.392 23.525 103.335 23.5707 103.27 23.6028C102.43 24.1809 101.43 24.4918 100.406 24.494C99.8149 24.5174 99.2252 24.4204 98.6736 24.2091C98.122 23.9978 97.6203 23.6767 97.1997 23.2657C96.7791 22.8547 96.4486 22.3627 96.2288 21.8202C96.0089 21.2777 95.9044 20.6963 95.9218 20.1122C95.8944 17.479 97.7128 15.7573 100.126 15.7573ZM102.177 19.2479C102.129 17.7761 101.24 17.0131 100.126 17.0131C99.5055 17.014 98.908 17.2436 98.4502 17.657C97.9924 18.0704 97.7075 18.6378 97.6513 19.2479H102.177Z" fill="#142640"/>
<path d="M108.341 16.4997C108.331 16.4255 108.339 16.35 108.363 16.2791C108.387 16.2081 108.427 16.1437 108.481 16.0908C108.535 16.0378 108.6 15.9978 108.672 15.9739C108.744 15.95 108.82 15.9427 108.895 15.9528H109.374C109.449 15.9413 109.526 15.9475 109.598 15.9709C109.671 15.9943 109.737 16.0343 109.791 16.0876C109.845 16.1408 109.885 16.2059 109.909 16.2775C109.933 16.3491 109.939 16.4252 109.927 16.4997V17.4584C109.928 17.6686 109.912 17.8785 109.879 18.0863V18.0863C110.249 16.979 111.199 15.8853 112.477 15.8853C112.86 15.8853 113.01 16.0675 113.01 16.4321V16.898C113.01 17.2626 112.792 17.4449 112.409 17.4449C110.754 17.4449 109.948 19.2138 109.948 20.868V23.7915C109.959 23.8659 109.953 23.942 109.929 24.0136C109.906 24.0852 109.865 24.1503 109.811 24.2036C109.757 24.2568 109.691 24.2968 109.619 24.3202C109.547 24.3436 109.469 24.3499 109.394 24.3384H108.875C108.799 24.3484 108.723 24.3412 108.651 24.3172C108.579 24.2933 108.514 24.2533 108.461 24.2004C108.407 24.1474 108.366 24.083 108.342 24.0121C108.318 23.9411 108.311 23.8657 108.321 23.7915L108.341 16.4997Z" fill="#142640"/>
<path d="M117.986 15.757C118.859 15.7796 119.706 16.0562 120.421 16.5521C121.135 17.048 121.686 17.7411 122.003 18.5447C122.321 19.3483 122.391 20.2265 122.205 21.0693C122.019 21.9121 121.586 22.6821 120.959 23.2826C120.332 23.8832 119.54 24.2876 118.681 24.4453C117.823 24.603 116.936 24.5069 116.133 24.169C115.329 23.8312 114.644 23.2666 114.164 22.5461C113.684 21.8256 113.43 20.9811 113.434 20.1186C113.433 19.5342 113.552 18.9558 113.782 18.4177C114.013 17.8795 114.35 17.3925 114.775 16.9857C115.2 16.5789 115.703 16.2605 116.255 16.0494C116.806 15.8383 117.395 15.7389 117.986 15.757ZM117.986 23.1298C118.38 23.1283 118.769 23.0484 119.131 22.8949C119.493 22.7413 119.819 22.5172 120.091 22.2361C120.363 21.9549 120.575 21.6225 120.713 21.2586C120.852 20.8948 120.915 20.507 120.899 20.1186C120.899 19.3557 120.592 18.6242 120.046 18.0848C119.499 17.5454 118.759 17.2423 117.986 17.2423C117.214 17.2423 116.473 17.5454 115.927 18.0848C115.381 18.6242 115.074 19.3557 115.074 20.1186C115.062 20.5054 115.127 20.8909 115.268 21.2524C115.408 21.6138 115.62 21.9439 115.891 22.2232C116.163 22.5025 116.488 22.7254 116.847 22.8788C117.207 23.0322 117.595 23.1129 117.986 23.1163V23.1298Z" fill="#142640"/>
<path d="M128.35 15.757C129.223 15.7796 130.069 16.0562 130.784 16.5521C131.499 17.048 132.049 17.7411 132.366 18.5447C132.684 19.3483 132.754 20.2265 132.568 21.0693C132.383 21.9121 131.949 22.6821 131.322 23.2826C130.695 23.8832 129.903 24.2876 129.044 24.4453C128.186 24.603 127.299 24.5069 126.496 24.169C125.692 23.8312 125.007 23.2666 124.527 22.5461C124.047 21.8256 123.793 20.9811 123.797 20.1186C123.797 19.5342 123.915 18.9558 124.146 18.4177C124.376 17.8795 124.714 17.3925 125.138 16.9857C125.563 16.5789 126.066 16.2605 126.618 16.0494C127.169 15.8383 127.758 15.7389 128.35 15.757V15.757ZM128.35 23.1298C128.741 23.1265 129.129 23.0455 129.488 22.8915C129.848 22.7375 130.172 22.5138 130.443 22.2336C130.713 21.9533 130.924 21.6223 131.062 21.2602C131.2 20.898 131.264 20.5121 131.248 20.1253C131.248 19.3625 130.941 18.6309 130.395 18.0915C129.849 17.5521 129.108 17.2491 128.336 17.2491C127.564 17.2491 126.823 17.5521 126.277 18.0915C125.731 18.6309 125.424 19.3625 125.424 20.1253C125.412 20.5128 125.479 20.8986 125.62 21.2602C125.762 21.6217 125.975 21.9516 126.248 22.2303C126.521 22.5091 126.847 22.7311 127.208 22.8833C127.569 23.0355 127.957 23.1147 128.35 23.1163V23.1298Z" fill="#142640"/>
<path d="M134.714 16.4997C134.704 16.4255 134.712 16.35 134.736 16.2791C134.76 16.2082 134.801 16.1438 134.854 16.0908C134.908 16.0379 134.973 15.9979 135.045 15.974C135.117 15.95 135.193 15.9428 135.268 15.9528H135.74C135.815 15.9413 135.892 15.9476 135.965 15.971C136.037 15.9944 136.103 16.0344 136.157 16.0876C136.211 16.1409 136.251 16.206 136.275 16.2776C136.299 16.3492 136.305 16.4253 136.293 16.4997V17.2424C136.293 17.4033 136.276 17.5638 136.246 17.7218C136.507 17.1589 136.92 16.6778 137.44 16.3313C137.959 15.9848 138.566 15.7861 139.192 15.757C139.782 15.6939 140.374 15.8559 140.846 16.2099C141.319 16.5639 141.637 17.083 141.735 17.661V17.661C142.009 17.1025 142.433 16.6294 142.961 16.2935C143.489 15.9576 144.101 15.772 144.729 15.757C146.657 15.757 147.525 16.8305 147.525 18.9641V23.7915C147.536 23.866 147.53 23.9421 147.506 24.0137C147.483 24.0853 147.442 24.1504 147.388 24.2036C147.334 24.2569 147.269 24.2969 147.196 24.3203C147.124 24.3437 147.046 24.3499 146.971 24.3384H146.452C146.376 24.3485 146.3 24.3412 146.228 24.3173C146.156 24.2933 146.091 24.2534 146.038 24.2004C145.984 24.1475 145.944 24.0831 145.919 24.0121C145.895 23.9412 145.888 23.8657 145.898 23.7915V19.3084C145.898 18.1336 145.665 17.2086 144.408 17.2086C142.835 17.2086 141.899 18.8155 141.899 20.4157V23.7915C141.91 23.8641 141.904 23.9381 141.881 24.008C141.858 24.0778 141.82 24.1416 141.768 24.1944C141.717 24.2473 141.654 24.2877 141.584 24.3127C141.514 24.3376 141.44 24.3464 141.366 24.3384H140.833C140.759 24.3464 140.684 24.3376 140.614 24.3127C140.544 24.2877 140.481 24.2473 140.43 24.1944C140.378 24.1416 140.34 24.0778 140.317 24.008C140.294 23.9381 140.288 23.8641 140.299 23.7915V19.3084C140.299 18.2146 140.128 17.2086 138.823 17.2086C137.216 17.2086 136.28 18.8628 136.28 20.4157V23.7915C136.291 23.866 136.285 23.9421 136.261 24.0137C136.238 24.0853 136.197 24.1504 136.143 24.2036C136.089 24.2569 136.024 24.2969 135.951 24.3203C135.879 24.3437 135.801 24.3499 135.726 24.3384H135.207C135.131 24.3485 135.055 24.3412 134.983 24.3173C134.911 24.2933 134.846 24.2534 134.793 24.2004C134.739 24.1475 134.699 24.0831 134.674 24.0121C134.65 23.9412 134.643 23.8657 134.653 23.7915L134.714 16.4997Z" fill="#142640"/>
</svg>
