<svg width="34" height="34" viewBox="0 0 34 34" fill="none" xmlns="http://www.w3.org/2000/svg">
<path fill-rule="evenodd" clip-rule="evenodd" d="M33.0201 17C33.0201 25.818 25.866 32.9997 17 32.9997C8.13403 32.9997 0.979861 25.818 0.979861 17C0.979861 8.18204 8.13403 1.00032 17 1.00032C25.866 1.00032 33.0201 8.18282 33.0201 17ZM34 17C34 26.3886 26.3886 34 17 34C7.61143 34 0 26.3886 0 17C0 7.61143 7.61143 0 17 0C26.3886 0 34 7.61143 34 17Z" fill="#CCCCCC"/>
<path fill-rule="evenodd" clip-rule="evenodd" d="M22.3802 15.7724L17 21.1534L11.6198 15.7724L13.0719 14.3203L17 18.2492L20.9281 14.3203L22.3802 15.7724Z" fill="#132549"/>
</svg>
