<svg width="46" height="32" viewBox="0 0 46 32" fill="none" xmlns="http://www.w3.org/2000/svg">
<path d="M34.7509 32H11.2495C5.04642 32 0 26.9746 0 20.7983V11.2017C0 5.02498 5.04642 0 11.2495 0H34.7513C40.954 0 46.0004 5.02498 46.0004 11.2017V20.7983C46.0004 26.975 40.954 32 34.7513 32H34.7509ZM11.2495 1.93526C6.11834 1.93526 1.9439 6.09196 1.9439 11.2017V20.7983C1.9439 25.9077 6.11834 30.0647 11.2495 30.0647H34.7513C39.8824 30.0647 44.0569 25.908 44.0569 20.7983V11.2017C44.0569 6.09235 39.8824 1.93526 34.7513 1.93526H11.2495Z" fill="black"/>
<path d="M28.9376 15.1018L19.2732 9.54565C18.5789 9.1467 17.7112 9.64558 17.7112 10.4439V21.5558C17.7112 22.354 18.5789 22.8529 19.2732 22.454L28.9376 16.8978C29.6319 16.4989 29.6319 15.5007 28.9376 15.1018Z" fill="black"/>
</svg>
