<svg width="261" height="57" viewBox="0 0 261 57" fill="none" xmlns="http://www.w3.org/2000/svg">
<path d="M58.6655 52.9549C58.6624 53.7858 58.3337 54.5815 57.7513 55.168C57.1689 55.7544 56.3803 56.0836 55.5582 56.0836C38.1125 54.714 20.588 54.714 3.14238 56.0836C2.73431 56.0883 2.32933 56.0117 1.95056 55.8582C1.57178 55.7046 1.22664 55.4772 0.93484 55.1889C0.643038 54.9005 0.410291 54.5569 0.24989 54.1777C0.0894894 53.7984 0.00457632 53.3909 0 52.9785C0.712645 44.698 0.712645 36.3707 0 28.0903C0.0016322 27.2751 0.315645 26.4922 0.876128 25.906L9.84768 15.6934C11.156 19.5541 10.6187 27.4999 8.34074 37.6063C8.34074 37.7008 8.34074 37.8189 8.27065 37.9724C8.20056 38.1258 8.27065 37.9723 8.27065 38.0432C8.21957 38.2277 8.20543 38.4207 8.22905 38.6108C8.25268 38.8009 8.3136 38.9843 8.40824 39.1504C8.50288 39.3164 8.62935 39.4617 8.78024 39.5777C8.93112 39.6937 9.10339 39.7781 9.28695 39.826C9.66109 39.9123 10.0537 39.8535 10.3869 39.661C10.7201 39.4686 10.9696 39.1566 11.0859 38.787V38.6571C11.5527 36.5188 12.2541 34.4398 13.177 32.4587C14.1933 30.3807 15.5133 28.7042 16.845 28.6924C16.9676 28.6746 17.0926 28.6916 17.2061 28.7417C17.3196 28.7918 17.4171 28.8728 17.4875 28.9757C18.2585 30.0147 17.9898 33.0254 17.4875 35.5166C17.2188 36.4729 17.0553 37.1813 17.0086 37.4529C16.9463 37.8202 17.0239 38.1977 17.2256 38.5097C17.4274 38.8216 17.7385 39.0448 18.0964 39.1345C18.4543 39.2242 18.8325 39.1737 19.1551 38.9931C19.4777 38.8126 19.7208 38.5154 19.8355 38.1613C19.9407 37.8307 20.1276 37.1459 20.3262 36.2486C21.2023 33.3206 23.0363 28.9403 25.5712 28.9403C25.8282 28.9403 25.8983 29.023 25.9567 29.0938C26.6576 30.0029 26.3773 33.1435 25.8983 35.0915C25.6403 35.7321 25.5583 36.4312 25.6612 37.115C25.764 37.7988 26.0477 38.4418 26.4824 38.9759C26.8797 39.4319 27.3899 39.7728 27.9606 39.9637C28.5313 40.1546 29.142 40.1886 29.7299 40.0621C30.5726 39.8393 31.3413 39.3937 31.9572 38.7712C32.5731 38.1488 33.014 37.3718 33.2344 36.5201C33.2812 36.3785 33.3513 36.2014 33.4447 35.9888C33.568 36.4899 33.7691 36.9681 34.0405 37.4056C34.3885 37.9542 34.8646 38.408 35.4267 38.7271C35.9889 39.0461 36.62 39.2208 37.2646 39.2357C38.2703 39.313 39.2757 39.0826 40.15 38.5745C39.2677 42.2771 38.7396 46.0568 38.573 49.8616C38.5578 50.1883 38.6523 50.5106 38.841 50.7763C39.0297 51.042 39.3016 51.2355 39.6127 51.3256C39.7449 51.3674 39.883 51.3873 40.0215 51.3846C40.2725 51.3851 40.5194 51.3201 40.7384 51.196C40.9573 51.072 41.1409 50.8929 41.2715 50.6762C41.3416 50.5581 48.0585 39.46 57.988 37.6182C57.6766 42.7402 57.9037 47.8812 58.6655 52.9549V52.9549Z" fill="#FFBD59"/>
<path d="M12.2667 13.8517C12.2098 13.7173 12.1308 13.5936 12.0331 13.4857L17.2548 8.85757C20.4236 6.38712 23.432 3.71332 26.2614 0.852717C26.8133 0.328153 27.5358 0.0254505 28.2931 0.00153358C29.0503 -0.0223833 29.7901 0.234133 30.3734 0.722845C38.803 8.99033 47.9516 16.4744 57.7085 23.0845C58.0745 23.3777 58.3699 23.7511 58.5722 24.1765C58.7746 24.6019 58.8787 25.0682 58.8767 25.5402C58.5847 28.728 58.3394 31.7859 58.1875 34.6667C57.9799 34.6191 57.7643 34.6191 57.5567 34.6667C50.5477 35.9536 45.1858 40.995 42.0083 44.7613C42.6737 40.4836 43.6498 36.2612 44.9288 32.1283C45.4873 30.7317 45.9289 29.2902 46.2488 27.8189C46.3279 27.4501 46.2642 27.0647 46.0708 26.7419C45.8775 26.4191 45.5691 26.1835 45.2091 26.0833C44.8469 25.9887 44.4627 26.0359 44.1334 26.2154C43.8042 26.3949 43.5542 26.6936 43.4335 27.0515C43.0013 28.4328 42.5924 29.7434 42.2069 31.0067C41.1673 33.6277 39.5435 36.3314 37.5342 36.2488C37.3477 36.264 37.1607 36.2268 36.9937 36.1414C36.8267 36.056 36.6864 35.9256 36.588 35.7647C35.6769 34.3361 36.588 30.2865 37.4758 27.8661C37.5776 27.5216 37.5513 27.1514 37.4021 26.825C37.2528 26.4986 36.9908 26.2385 36.6653 26.0936C36.3397 25.9486 35.973 25.9288 35.634 26.0378C35.295 26.1467 35.007 26.3771 34.8241 26.6855C34.4503 27.3939 31.1911 33.6632 30.5486 35.564C30.093 36.9336 29.3804 37.1697 29.2169 37.2051C29.1327 37.2261 29.0446 37.2251 28.9609 37.2024C28.8771 37.1797 28.8004 37.136 28.7379 37.0753C28.66 36.9218 28.6194 36.7518 28.6194 36.5794C28.6194 36.4069 28.66 36.2369 28.7379 36.0835C28.7427 36.0403 28.7427 35.9968 28.7379 35.9536C28.9832 34.9383 30.1631 29.7788 28.2823 27.3466C27.9706 26.921 27.5635 26.5761 27.0945 26.3401C26.6254 26.1041 26.1078 25.9838 25.5839 25.9889V25.9889C24.5931 26.0345 23.6269 26.3159 22.7642 26.8104C21.9014 27.3049 21.1665 27.9983 20.6191 28.8343C20.4787 28.2336 20.2205 27.6676 19.8598 27.1695C19.5212 26.6962 19.0721 26.3148 18.5523 26.0594C18.0326 25.804 17.4585 25.6824 16.881 25.7055V25.7055C16.1688 25.7294 15.4685 25.8962 14.8207 26.1962C14.173 26.4962 13.5907 26.9234 13.1078 27.4529C13.7036 22.1636 13.7036 17.0513 12.2667 13.8517Z" fill="#FFBD59"/>
<path d="M251.701 34.4315V29.8711H250.127C249.839 29.8711 249.695 29.7366 249.695 29.4565V29.3893C249.695 29.1092 249.839 28.9747 250.127 28.9747H254.296C254.584 28.9747 254.728 29.1092 254.728 29.3893V29.4565C254.728 29.7366 254.584 29.8711 254.296 29.8711H252.721V34.4315C252.729 34.4906 252.722 34.5506 252.703 34.607C252.684 34.6633 252.652 34.7144 252.611 34.7566C252.569 34.7987 252.518 34.8307 252.463 34.85C252.407 34.8694 252.348 34.8758 252.289 34.8685H252.156C252.096 34.8796 252.034 34.8762 251.975 34.8586C251.917 34.8409 251.863 34.8095 251.819 34.7669C251.774 34.7243 251.741 34.6717 251.72 34.6134C251.7 34.5551 251.694 34.4928 251.701 34.4315V34.4315ZM255.582 29.3893C255.58 29.3324 255.59 29.2758 255.612 29.2232C255.633 29.1706 255.665 29.1232 255.706 29.084C255.747 29.0449 255.795 29.0149 255.848 28.996C255.902 28.9772 255.958 28.9699 256.014 28.9747H256.158C256.27 28.9634 256.382 28.9904 256.476 29.0514C256.571 29.1124 256.642 29.2038 256.679 29.3108L257.899 32.0561C257.975 32.238 258.038 32.4253 258.087 32.6163V32.6163C258.137 32.4253 258.2 32.238 258.276 32.0561L259.495 29.3108C259.532 29.2038 259.604 29.1124 259.698 29.0514C259.793 28.9904 259.905 28.9634 260.016 28.9747H260.16C260.217 28.9699 260.273 28.9772 260.326 28.996C260.379 29.0149 260.428 29.0449 260.469 29.084C260.509 29.1232 260.542 29.1706 260.563 29.2232C260.584 29.2758 260.595 29.3324 260.593 29.3893L260.992 34.4203C261.005 34.4804 261.004 34.5429 260.988 34.6023C260.972 34.6617 260.942 34.7164 260.9 34.7615C260.859 34.8067 260.807 34.841 260.75 34.8616C260.692 34.8822 260.631 34.8884 260.571 34.8797H260.438C260.382 34.8845 260.325 34.8772 260.272 34.8584C260.219 34.8395 260.17 34.8095 260.129 34.7704C260.089 34.7312 260.056 34.6838 260.035 34.6312C260.014 34.5786 260.003 34.522 260.005 34.4651L259.761 31.3501C259.75 31.2159 259.75 31.081 259.761 30.9468V30.9468L258.653 33.4455C258.62 33.5517 258.554 33.6439 258.463 33.7069C258.373 33.77 258.264 33.8002 258.154 33.7928H258.076C257.966 33.8002 257.858 33.77 257.767 33.7069C257.676 33.6439 257.61 33.5517 257.577 33.4455L256.469 30.9468C256.48 31.081 256.48 31.2159 256.469 31.3501L256.169 34.4875C256.171 34.5444 256.161 34.601 256.14 34.6536C256.118 34.7062 256.086 34.7536 256.045 34.7928C256.004 34.832 255.956 34.8619 255.903 34.8808C255.849 34.8996 255.793 34.9069 255.737 34.9021H255.604C255.544 34.9108 255.482 34.9046 255.425 34.884C255.367 34.8634 255.316 34.8291 255.274 34.7839C255.233 34.7388 255.203 34.6841 255.187 34.6247C255.171 34.5653 255.169 34.5028 255.183 34.4427L255.582 29.3893Z" fill="#142640"/>
<path d="M75.1313 31.4618C75.1124 31.3383 75.1226 31.212 75.1611 31.0931C75.1995 30.9743 75.2652 30.8663 75.3526 30.7779C75.4401 30.6895 75.5469 30.6232 75.6645 30.5843C75.7821 30.5455 75.907 30.5352 76.0293 30.5542H76.8719C76.9916 30.5409 77.1127 30.5555 77.2259 30.597C77.3391 30.6384 77.4415 30.7055 77.525 30.7932C77.6085 30.8808 77.671 30.9867 77.7077 31.1026C77.7444 31.2186 77.7543 31.3414 77.7366 31.4618V37.0643C77.7394 37.4579 77.7135 37.8511 77.659 38.2408V38.2408C78.1012 37.4501 78.7469 36.7951 79.5276 36.3453C80.3084 35.8955 81.1951 35.6677 82.0936 35.6861C85.73 35.6861 88.0914 38.6442 88.0914 42.9245C88.0914 47.2048 85.608 50.2638 81.9716 50.2638C81.0622 50.2912 80.1635 50.0586 79.3791 49.5928C78.5946 49.127 77.9561 48.4469 77.5371 47.6306V47.6306C77.5935 47.9032 77.6196 48.1813 77.6147 48.4598V49.1433C77.6147 49.6363 77.2931 49.9388 76.7166 49.9388H76.0404C75.9181 49.9579 75.7932 49.9476 75.6756 49.9087C75.558 49.8699 75.4512 49.8035 75.3637 49.7151C75.2762 49.6267 75.2106 49.5188 75.1722 49.3999C75.1337 49.2811 75.1235 49.1548 75.1424 49.0312L75.1313 31.4618ZM81.5393 47.9332C83.7566 47.9332 85.5304 46.1516 85.5304 42.9918C85.5304 39.832 83.9339 38.028 81.6501 38.028C79.588 38.028 77.6812 39.507 77.6812 42.9693C77.6812 45.5465 78.9561 47.9332 81.5393 47.9332Z" fill="#142640"/>
<path d="M96.8655 36.1758C100.668 36.1758 102.786 38.921 102.786 42.7867C102.786 43.0334 102.689 43.2699 102.516 43.4443C102.344 43.6187 102.11 43.7167 101.866 43.7167H92.6859C92.687 44.3453 92.8133 44.9671 93.0571 45.5453C93.301 46.1235 93.6576 46.6462 94.1055 47.0821C94.5534 47.5181 95.0836 47.8586 95.6644 48.0831C96.2453 48.3077 96.8649 48.4118 97.4864 48.3892C98.6849 48.3836 99.8502 47.991 100.812 47.2687C100.908 47.1933 101.018 47.1408 101.137 47.1151C101.255 47.0894 101.377 47.0912 101.495 47.1203C101.612 47.1494 101.722 47.2052 101.815 47.2833C101.908 47.3614 101.982 47.4599 102.032 47.5712L102.276 47.9858C102.353 48.0861 102.406 48.2035 102.431 48.3284C102.455 48.4533 102.449 48.5822 102.415 48.7046C102.38 48.827 102.317 48.9394 102.231 49.0326C102.146 49.1258 102.039 49.1971 101.921 49.2408C100.558 50.2002 98.937 50.7163 97.2757 50.7198C96.317 50.7587 95.3605 50.5978 94.4659 50.2471C93.5713 49.8964 92.7577 49.3635 92.0756 48.6814C91.3934 47.9993 90.8574 47.1828 90.5009 46.2824C90.1443 45.382 89.9749 44.4172 90.003 43.4478C89.9919 39.033 92.952 36.1758 96.8655 36.1758ZM100.191 41.9688C100.07 39.5261 98.595 38.3047 96.8101 38.3047C95.8041 38.3061 94.8349 38.6872 94.0925 39.3733C93.3501 40.0594 92.888 41.001 92.7968 42.0136L100.191 41.9688Z" fill="#142640"/>
<path d="M105.241 47.9982L105.518 47.6172C105.873 47.1466 106.227 47.1242 106.771 47.4267C107.744 48.1261 108.902 48.5162 110.096 48.5472C111.449 48.5472 112.436 47.8861 112.436 46.7096C112.436 43.998 105.351 44.8944 105.351 40.2107C105.351 37.5776 107.635 36.2105 110.318 36.2105C111.666 36.2034 112.988 36.5927 114.121 37.331C114.22 37.3809 114.307 37.4514 114.378 37.5378C114.448 37.6242 114.499 37.7246 114.529 37.8324C114.558 37.9403 114.564 38.0531 114.548 38.1637C114.531 38.2742 114.491 38.3799 114.431 38.4739L114.187 38.8885C113.91 39.3816 113.511 39.4376 112.99 39.1911C112.147 38.6762 111.181 38.4014 110.196 38.3955C108.888 38.3955 107.89 38.967 107.89 40.1547C107.89 42.9223 114.975 41.9363 114.975 46.6536C114.975 49.0178 112.99 50.7434 110.03 50.7434C108.371 50.7563 106.753 50.2256 105.418 49.2307C105.317 49.1691 105.231 49.0856 105.166 48.9864C105.101 48.8871 105.058 48.7746 105.042 48.6568C105.025 48.5389 105.034 48.4188 105.068 48.3049C105.102 48.1911 105.161 48.0863 105.241 47.9982Z" fill="#142640"/>
<path d="M117.923 36.9533C117.904 36.8298 117.914 36.7035 117.953 36.5847C117.991 36.4658 118.057 36.3578 118.144 36.2694C118.232 36.181 118.338 36.1147 118.456 36.0759C118.574 36.037 118.699 36.0267 118.821 36.0457H119.442C120.04 36.0457 120.34 36.3483 120.34 36.8189V37.6368C120.358 37.883 120.358 38.1302 120.34 38.3764V38.3764C120.782 37.5391 121.45 36.8454 122.266 36.3755C123.082 35.9056 124.013 35.6786 124.952 35.7208C128.643 35.7208 130.983 38.6789 130.983 42.9928C130.983 47.3067 128.355 50.2649 124.763 50.2649C123.898 50.29 123.042 50.0732 122.291 49.6382C121.54 49.2032 120.922 48.567 120.506 47.7998V47.7998C120.545 48.2169 120.553 48.6364 120.528 49.0547V54.5676C120.546 54.6879 120.536 54.8108 120.499 54.9268C120.463 55.0427 120.4 55.1486 120.316 55.2362C120.233 55.3239 120.131 55.391 120.017 55.4324C119.904 55.4739 119.783 55.4885 119.663 55.4752H118.865C118.743 55.4942 118.618 55.4839 118.5 55.4451C118.383 55.4062 118.276 55.3399 118.188 55.2515C118.101 55.1631 118.035 55.0551 117.997 54.9362C117.958 54.8174 117.948 54.6911 117.967 54.5676L117.923 36.9533ZM124.408 47.9342C126.626 47.9342 128.377 46.1526 128.377 42.9928C128.377 39.833 126.781 38.029 124.497 38.029C122.435 38.029 120.528 39.4857 120.528 43.0264C120.473 45.5139 121.836 47.9342 124.408 47.9342Z" fill="#142640"/>
<path d="M140.46 35.7198C141.876 35.7573 143.25 36.2163 144.408 37.0393C145.567 37.8623 146.46 39.0127 146.975 40.3463C147.49 41.6798 147.604 43.1373 147.302 44.536C147.001 45.9348 146.298 47.2125 145.281 48.2092C144.265 49.2059 142.98 49.8771 141.587 50.1388C140.195 50.4005 138.757 50.241 137.454 49.6803C136.15 49.1196 135.04 48.1827 134.261 46.9869C133.483 45.7911 133.071 44.3897 133.077 42.9582C133.076 41.9885 133.269 41.0286 133.642 40.1354C134.016 39.2423 134.563 38.4341 135.252 37.759C135.941 37.0838 136.757 36.5554 137.651 36.2051C138.546 35.8548 139.501 35.6898 140.46 35.7198V35.7198ZM140.46 47.9556C141.099 47.9532 141.73 47.8205 142.317 47.5657C142.903 47.3108 143.433 46.939 143.874 46.4724C144.315 46.0058 144.658 45.454 144.883 44.8502C145.108 44.2464 145.21 43.6029 145.183 42.9582C145.183 41.6922 144.686 40.4781 143.8 39.5829C142.914 38.6878 141.713 38.1849 140.46 38.1849C139.208 38.1849 138.006 38.6878 137.121 39.5829C136.235 40.4781 135.737 41.6922 135.737 42.9582C135.717 43.6002 135.823 44.24 136.051 44.8398C136.278 45.4397 136.622 45.9874 137.062 46.451C137.502 46.9145 138.03 47.2844 138.613 47.539C139.197 47.7935 139.825 47.9276 140.46 47.9332V47.9556Z" fill="#142640"/>
<path d="M150.806 31.4618C150.787 31.3383 150.797 31.212 150.835 31.0931C150.874 30.9743 150.939 30.8663 151.027 30.7779C151.114 30.6895 151.221 30.6232 151.339 30.5843C151.456 30.5455 151.581 30.5352 151.704 30.5542H152.546C152.666 30.5409 152.787 30.5555 152.9 30.597C153.013 30.6384 153.116 30.7055 153.199 30.7932C153.283 30.8808 153.345 30.9867 153.382 31.1026C153.419 31.2186 153.429 31.3414 153.411 31.4618V41.1205H155.451L158.777 36.6385C158.884 36.4421 159.047 36.2826 159.244 36.1808C159.442 36.0789 159.665 36.0393 159.885 36.0671H160.894C161.626 36.0671 161.87 36.5601 161.438 37.1876L157.635 42.2074L162.069 48.8183C162.446 49.4458 162.202 49.9388 161.471 49.9388H160.362C160.136 49.9617 159.908 49.9138 159.71 49.8016C159.512 49.6893 159.352 49.5182 159.253 49.3114L155.451 43.4512H153.411V49.0536C153.429 49.174 153.419 49.2969 153.382 49.4128C153.345 49.5288 153.283 49.6346 153.199 49.7223C153.116 49.81 153.013 49.8771 152.9 49.9185C152.787 49.96 152.666 49.9746 152.546 49.9613H151.704C151.581 49.9803 151.456 49.97 151.339 49.9311C151.221 49.8923 151.114 49.826 151.027 49.7376C150.939 49.6491 150.874 49.5412 150.835 49.4223C150.797 49.3035 150.787 49.1772 150.806 49.0536V31.4618Z" fill="#142640"/>
<path d="M170.386 35.7202C174.189 35.7202 176.306 38.4654 176.306 42.3311C176.306 42.5778 176.209 42.8144 176.037 42.9888C175.864 43.1632 175.63 43.2612 175.386 43.2612H166.207C166.208 43.8868 166.333 44.5058 166.575 45.0817C166.817 45.6576 167.17 46.1787 167.614 46.6142C168.059 47.0497 168.585 47.3909 169.162 47.6175C169.739 47.8441 170.355 47.9516 170.974 47.9336C172.172 47.9281 173.338 47.5355 174.3 46.8131C174.395 46.7378 174.506 46.6852 174.624 46.6595C174.742 46.6338 174.865 46.6356 174.982 46.6647C175.1 46.6939 175.209 46.7496 175.302 46.8277C175.395 46.9058 175.469 47.0043 175.519 47.1157L175.763 47.5303C175.834 47.6246 175.884 47.7336 175.909 47.8496C175.933 47.9656 175.932 48.0856 175.906 48.2011C175.879 48.3167 175.828 48.4249 175.755 48.5181C175.683 48.6113 175.591 48.6872 175.486 48.7404C174.123 49.6999 172.502 50.2159 170.841 50.2195C169.882 50.2583 168.925 50.0974 168.031 49.7467C167.136 49.396 166.323 48.8631 165.64 48.181C164.958 47.499 164.422 46.6824 164.066 45.782C163.709 44.8817 163.54 43.9168 163.568 42.9474C163.524 38.5775 166.473 35.7202 170.386 35.7202ZM173.712 41.5132C173.634 39.0705 172.193 37.8043 170.386 37.8043C169.38 37.8057 168.411 38.1868 167.669 38.8729C166.926 39.559 166.464 40.5006 166.373 41.5132H173.712Z" fill="#142640"/>
<path d="M183.71 36.9528C183.693 36.8297 183.705 36.7044 183.745 36.5867C183.784 36.469 183.85 36.362 183.936 36.2742C184.023 36.1863 184.129 36.12 184.246 36.0802C184.362 36.0405 184.486 36.0285 184.608 36.0452H185.384C185.506 36.0261 185.631 36.0364 185.749 36.0753C185.866 36.1141 185.973 36.1805 186.061 36.2689C186.148 36.3573 186.214 36.4652 186.252 36.5841C186.291 36.7029 186.301 36.8292 186.282 36.9528V38.5439C186.283 38.8927 186.257 39.2411 186.204 39.5859V39.5859C186.803 37.7483 188.344 35.9331 190.417 35.9331C191.038 35.9331 191.282 36.2356 191.282 36.8407V37.6139C191.282 38.2189 190.927 38.5215 190.306 38.5215C187.623 38.5215 186.315 41.4572 186.315 44.2024V49.0541C186.334 49.1777 186.324 49.304 186.285 49.4228C186.247 49.5416 186.181 49.6496 186.094 49.738C186.006 49.8264 185.9 49.8928 185.782 49.9316C185.664 49.9705 185.539 49.9808 185.417 49.9617H184.575C184.453 49.9784 184.329 49.9664 184.212 49.9267C184.096 49.8869 183.99 49.8206 183.903 49.7327C183.816 49.6449 183.751 49.5379 183.711 49.4202C183.672 49.3025 183.66 49.1772 183.677 49.0541L183.71 36.9528Z" fill="#142640"/>
<path d="M199.352 35.7198C200.768 35.7573 202.142 36.2163 203.301 37.0393C204.459 37.8623 205.352 39.0127 205.867 40.3463C206.382 41.6798 206.496 43.1373 206.194 44.536C205.893 45.9348 205.19 47.2125 204.173 48.2092C203.157 49.2059 201.872 49.8771 200.479 50.1388C199.087 50.4005 197.649 50.241 196.346 49.6803C195.042 49.1196 193.932 48.1827 193.153 46.9869C192.375 45.7911 191.963 44.3897 191.969 42.9582C191.968 41.9885 192.161 41.0286 192.534 40.1354C192.908 39.2423 193.456 38.4341 194.144 37.759C194.833 37.0838 195.649 36.5554 196.544 36.2051C197.438 35.8548 198.393 35.6898 199.352 35.7198ZM199.352 47.9556C199.991 47.9532 200.622 47.8205 201.209 47.5657C201.795 47.3108 202.325 46.939 202.766 46.4724C203.207 46.0058 203.55 45.454 203.775 44.8502C204 44.2464 204.102 43.6029 204.075 42.9582C204.075 41.6922 203.578 40.4781 202.692 39.5829C201.806 38.6878 200.605 38.1849 199.352 38.1849C198.1 38.1849 196.899 38.6878 196.013 39.5829C195.127 40.4781 194.63 41.6922 194.63 42.9582C194.609 43.6002 194.715 44.24 194.943 44.8398C195.17 45.4397 195.514 45.9874 195.954 46.451C196.394 46.9145 196.922 47.2844 197.505 47.539C198.089 47.7935 198.717 47.9276 199.352 47.9332V47.9556Z" fill="#142640"/>
<path d="M216.16 35.7198C217.575 35.7573 218.949 36.2163 220.108 37.0393C221.267 37.8623 222.159 39.0127 222.674 40.3463C223.189 41.6798 223.303 43.1373 223.001 44.536C222.7 45.9348 221.997 47.2125 220.981 48.2092C219.964 49.2059 218.679 49.8771 217.286 50.1388C215.894 50.4005 214.456 50.241 213.153 49.6803C211.85 49.1196 210.739 48.1827 209.961 46.9869C209.182 45.7911 208.77 44.3897 208.776 42.9582C208.775 41.9885 208.968 41.0286 209.342 40.1354C209.715 39.2423 210.263 38.4341 210.951 37.759C211.64 37.0838 212.456 36.5554 213.351 36.2051C214.245 35.8548 215.201 35.6898 216.16 35.7198V35.7198ZM216.16 47.9556C216.795 47.9501 217.423 47.8156 218.006 47.5601C218.589 47.3046 219.116 46.9333 219.554 46.4682C219.993 46.0032 220.334 45.4538 220.559 44.8528C220.783 44.2517 220.885 43.6113 220.86 42.9694C220.86 41.7034 220.363 40.4893 219.477 39.5942C218.591 38.699 217.39 38.1961 216.137 38.1961C214.885 38.1961 213.684 38.699 212.798 39.5942C211.912 40.4893 211.415 41.7034 211.415 42.9694C211.395 43.6124 211.504 44.2528 211.733 44.8528C211.963 45.4528 212.309 46.0002 212.751 46.4629C213.193 46.9255 213.723 47.294 214.308 47.5465C214.894 47.799 215.523 47.9305 216.16 47.9332V47.9556Z" fill="#142640"/>
<path d="M226.482 36.9525C226.466 36.8294 226.477 36.7041 226.517 36.5864C226.556 36.4687 226.622 36.3618 226.709 36.2739C226.795 36.1861 226.901 36.1197 227.018 36.08C227.134 36.0403 227.258 36.0283 227.38 36.0449H228.145C228.267 36.0258 228.392 36.0361 228.51 36.075C228.627 36.1139 228.734 36.1802 228.822 36.2686C228.909 36.357 228.975 36.465 229.013 36.5838C229.052 36.7026 229.062 36.829 229.043 36.9525V38.1851C229.041 38.4521 229.015 38.7184 228.965 38.9806C229.389 38.0464 230.059 37.2481 230.902 36.673C231.745 36.0979 232.728 35.7682 233.744 35.72C234.7 35.6151 235.66 35.884 236.427 36.4715C237.194 37.059 237.709 37.9206 237.868 38.8798V38.8798C238.312 37.9529 239 37.1677 239.856 36.6102C240.713 36.0528 241.705 35.7448 242.724 35.72C245.85 35.72 247.258 37.5015 247.258 41.0423V49.0539C247.277 49.1774 247.267 49.3037 247.228 49.4226C247.19 49.5414 247.124 49.6494 247.037 49.7378C246.949 49.8262 246.842 49.8925 246.725 49.9314C246.607 49.9702 246.482 49.9806 246.36 49.9615H245.517C245.396 49.9781 245.272 49.9661 245.155 49.9264C245.039 49.8867 244.933 49.8203 244.846 49.7325C244.759 49.6446 244.693 49.5377 244.654 49.42C244.615 49.3023 244.603 49.177 244.619 49.0539V41.6138C244.619 39.6641 244.243 38.129 242.203 38.129C239.653 38.129 238.134 40.7958 238.134 43.4514V49.0539C238.152 49.1743 238.142 49.2972 238.105 49.4131C238.068 49.529 238.006 49.6349 237.922 49.7225C237.839 49.8102 237.736 49.8773 237.623 49.9188C237.51 49.9602 237.389 49.9748 237.269 49.9615H236.404C236.285 49.9748 236.164 49.9602 236.05 49.9188C235.937 49.8773 235.835 49.8102 235.751 49.7225C235.668 49.6349 235.605 49.529 235.569 49.4131C235.532 49.2972 235.522 49.1743 235.54 49.0539V41.6138C235.54 39.7986 235.262 38.129 233.145 38.129C230.54 38.129 229.021 40.8742 229.021 43.4514V49.0539C229.04 49.1774 229.029 49.3037 228.991 49.4226C228.953 49.5414 228.887 49.6494 228.799 49.7378C228.712 49.8262 228.605 49.8925 228.488 49.9314C228.37 49.9702 228.245 49.9806 228.123 49.9615H227.28C227.158 49.9781 227.034 49.9661 226.918 49.9264C226.802 49.8867 226.696 49.8203 226.609 49.7325C226.522 49.6446 226.456 49.5377 226.417 49.42C226.378 49.3023 226.366 49.177 226.382 49.0539L226.482 36.9525Z" fill="#142640"/>
</svg>
