<svg width="132" height="31" viewBox="0 0 132 31" fill="none" xmlns="http://www.w3.org/2000/svg">
<path d="M28.9247 28.5701C28.9232 29.0116 28.7611 29.4345 28.4739 29.7461C28.1868 30.0577 27.798 30.2327 27.3926 30.2327C18.7911 29.5049 10.1508 29.5049 1.54933 30.2327C1.34814 30.2352 1.14846 30.1945 0.96171 30.1129C0.774959 30.0313 0.604789 29.9105 0.460917 29.7572C0.317046 29.604 0.202292 29.4214 0.123207 29.2199C0.0441222 29.0183 0.00225633 28.8018 0 28.5826C0.351365 24.1823 0.351365 19.7571 0 15.3568C0.000804748 14.9237 0.155627 14.5076 0.431969 14.1961L4.85534 8.76904C5.50041 10.8207 5.23547 15.0431 4.11235 20.4138C4.11235 20.464 4.11235 20.5267 4.07779 20.6083C4.04323 20.6898 4.07779 20.6083 4.07779 20.6459C4.05261 20.744 4.04564 20.8465 4.05728 20.9475C4.06893 21.0486 4.09897 21.146 4.14563 21.2343C4.1923 21.3225 4.25465 21.3997 4.32904 21.4613C4.40343 21.523 4.48837 21.5678 4.57888 21.5933C4.76334 21.6392 4.95691 21.6079 5.12119 21.5056C5.28548 21.4034 5.40849 21.2376 5.46585 21.0412V20.9722C5.69601 19.8358 6.0418 18.731 6.49682 17.6783C6.99791 16.574 7.64874 15.6831 8.30533 15.6768C8.36577 15.6673 8.42743 15.6764 8.48339 15.703C8.53934 15.7296 8.58739 15.7727 8.62211 15.8274C9.00224 16.3795 8.86977 17.9794 8.62211 19.3032C8.48964 19.8114 8.40901 20.1879 8.38597 20.3322C8.35527 20.5274 8.39351 20.728 8.493 20.8938C8.59249 21.0595 8.74587 21.1782 8.92233 21.2258C9.09879 21.2735 9.28527 21.2466 9.44432 21.1507C9.60337 21.0548 9.72322 20.8969 9.77979 20.7086C9.83163 20.533 9.92378 20.1691 10.0217 19.6922C10.4537 18.1363 11.3579 15.8086 12.6077 15.8086C12.7345 15.8086 12.769 15.8525 12.7978 15.8901C13.1434 16.3732 13.0052 18.0422 12.769 19.0774C12.6418 19.4178 12.6014 19.7893 12.6521 20.1527C12.7028 20.516 12.8427 20.8577 13.057 21.1416C13.2529 21.3839 13.5044 21.565 13.7858 21.6665C14.0672 21.7679 14.3683 21.786 14.6582 21.7188C15.0736 21.6003 15.4527 21.3636 15.7563 21.0328C16.06 20.702 16.2773 20.2891 16.386 19.8365C16.4091 19.7613 16.4436 19.6671 16.4897 19.5542C16.5505 19.8205 16.6496 20.0746 16.7835 20.3071C16.9551 20.5986 17.1898 20.8397 17.4669 21.0093C17.7441 21.1789 18.0553 21.2717 18.3731 21.2796C18.8689 21.3207 19.3646 21.1983 19.7957 20.9282C19.3607 22.8958 19.1003 24.9044 19.0182 26.9263C19.0107 27.0999 19.0573 27.2712 19.1503 27.4124C19.2433 27.5535 19.3774 27.6564 19.5308 27.7043C19.596 27.7265 19.6641 27.7371 19.7324 27.7356C19.8561 27.7359 19.9779 27.7014 20.0858 27.6354C20.1938 27.5695 20.2843 27.4743 20.3486 27.3592C20.3832 27.2964 23.695 21.3988 28.5906 20.42C28.4371 23.1419 28.5491 25.8739 28.9247 28.5701V28.5701Z" fill="#FFBD59"/>
<path d="M6.04763 7.79011C6.01955 7.71868 5.98061 7.65292 5.93243 7.59562L8.50697 5.13617C10.0693 3.82336 11.5526 2.40249 12.9476 0.882339C13.2197 0.603582 13.576 0.442724 13.9493 0.430014C14.3227 0.417305 14.6874 0.553619 14.975 0.813324C19.1312 5.20673 23.6418 9.18381 28.4524 12.6965C28.6329 12.8523 28.7785 13.0507 28.8783 13.2768C28.978 13.5028 29.0294 13.7506 29.0284 14.0015C28.8844 15.6955 28.7635 17.3205 28.6886 18.8513C28.5862 18.826 28.4799 18.826 28.3776 18.8513C24.9218 19.5352 22.2782 22.2143 20.7116 24.2157C21.0396 21.9425 21.5209 19.6986 22.1515 17.5024C22.4268 16.7602 22.6445 15.9942 22.8023 15.2124C22.8413 15.0164 22.8099 14.8116 22.7145 14.6401C22.6192 14.4685 22.4672 14.3433 22.2897 14.2901C22.1111 14.2398 21.9217 14.2648 21.7593 14.3603C21.597 14.4557 21.4737 14.6143 21.4142 14.8045C21.2011 15.5386 20.9995 16.235 20.8095 16.9064C20.2969 18.2992 19.4963 19.736 18.5056 19.6921C18.4137 19.7001 18.3214 19.6804 18.2391 19.635C18.1568 19.5896 18.0876 19.5203 18.0391 19.4348C17.5899 18.6757 18.0391 16.5237 18.4768 15.2375C18.527 15.0544 18.5141 14.8576 18.4405 14.6842C18.3669 14.5107 18.2377 14.3725 18.0772 14.2955C17.9167 14.2185 17.7359 14.2079 17.5687 14.2659C17.4016 14.3238 17.2596 14.4462 17.1694 14.6101C16.9851 14.9865 15.3782 18.318 15.0614 19.3282C14.8368 20.056 14.4854 20.1814 14.4048 20.2003C14.3633 20.2114 14.3199 20.2109 14.2786 20.1988C14.2373 20.1868 14.1995 20.1635 14.1687 20.1313C14.1302 20.0497 14.1102 19.9594 14.1102 19.8677C14.1102 19.7761 14.1302 19.6858 14.1687 19.6042C14.171 19.5813 14.171 19.5581 14.1687 19.5352C14.2896 18.9956 14.8713 16.2539 13.944 14.9614C13.7903 14.7352 13.5896 14.5519 13.3584 14.4265C13.1271 14.3011 12.8719 14.2372 12.6136 14.2399V14.2399C12.1251 14.2641 11.6487 14.4137 11.2233 14.6764C10.798 14.9392 10.4356 15.3077 10.1657 15.7519C10.0965 15.4328 9.96918 15.1319 9.79136 14.8673C9.62442 14.6157 9.40297 14.4131 9.14672 14.2773C8.89047 14.1416 8.60738 14.077 8.32267 14.0893V14.0893C7.97155 14.102 7.62625 14.1906 7.30687 14.35C6.98749 14.5094 6.7004 14.7365 6.46232 15.0179C6.75606 12.2071 6.75606 9.49039 6.04763 7.79011Z" fill="#FFBD59"/>
<path d="M126.607 13.5808V11.0273H125.789C125.639 11.0273 125.564 10.952 125.564 10.7951V10.7575C125.564 10.6006 125.639 10.5253 125.789 10.5253H127.955C128.104 10.5253 128.179 10.6006 128.179 10.7575V10.7951C128.179 10.952 128.104 11.0273 127.955 11.0273H127.137V13.5808C127.141 13.6139 127.137 13.6475 127.127 13.6791C127.117 13.7106 127.101 13.7392 127.079 13.7628C127.058 13.7864 127.031 13.8043 127.002 13.8152C126.973 13.826 126.943 13.8296 126.912 13.8255H126.843C126.812 13.8317 126.78 13.8298 126.749 13.8199C126.719 13.8101 126.691 13.7925 126.668 13.7686C126.645 13.7448 126.627 13.7153 126.617 13.6827C126.606 13.65 126.603 13.6151 126.607 13.5808V13.5808ZM128.623 10.7575C128.622 10.7256 128.627 10.694 128.638 10.6645C128.649 10.635 128.666 10.6085 128.687 10.5866C128.709 10.5646 128.734 10.5478 128.761 10.5373C128.789 10.5267 128.818 10.5227 128.847 10.5253H128.922C128.98 10.519 129.039 10.5341 129.088 10.5683C129.137 10.6024 129.174 10.6536 129.193 10.7136L129.827 12.2507C129.866 12.3526 129.899 12.4574 129.924 12.5644V12.5644C129.95 12.4574 129.983 12.3526 130.022 12.2507L130.656 10.7136C130.675 10.6536 130.712 10.6024 130.761 10.5683C130.81 10.5341 130.869 10.519 130.927 10.5253H131.002C131.031 10.5227 131.06 10.5267 131.088 10.5373C131.115 10.5478 131.14 10.5646 131.162 10.5866C131.183 10.6085 131.2 10.635 131.211 10.6645C131.222 10.694 131.227 10.7256 131.226 10.7575L131.433 13.5745C131.44 13.6082 131.44 13.6432 131.431 13.6765C131.423 13.7097 131.407 13.7403 131.386 13.7656C131.364 13.7909 131.338 13.8101 131.308 13.8217C131.278 13.8332 131.246 13.8367 131.215 13.8318H131.146C131.116 13.8345 131.087 13.8304 131.059 13.8198C131.032 13.8093 131.007 13.7925 130.985 13.7706C130.964 13.7486 130.947 13.7221 130.936 13.6926C130.925 13.6632 130.92 13.6315 130.921 13.5996L130.794 11.8554C130.788 11.7803 130.788 11.7047 130.794 11.6296V11.6296L130.218 13.0287C130.201 13.0882 130.167 13.1398 130.12 13.1751C130.073 13.2104 130.016 13.2273 129.959 13.2232H129.919C129.862 13.2273 129.805 13.2104 129.758 13.1751C129.711 13.1398 129.676 13.0882 129.66 13.0287L129.084 11.6296C129.09 11.7047 129.09 11.7803 129.084 11.8554L128.928 13.6122C128.929 13.644 128.924 13.6757 128.913 13.7052C128.901 13.7346 128.885 13.7612 128.864 13.7831C128.842 13.805 128.817 13.8218 128.789 13.8324C128.762 13.8429 128.733 13.847 128.703 13.8443H128.634C128.603 13.8492 128.571 13.8457 128.541 13.8342C128.511 13.8227 128.485 13.8034 128.463 13.7782C128.442 13.7529 128.426 13.7223 128.418 13.689C128.409 13.6557 128.409 13.6208 128.415 13.5871L128.623 10.7575Z" fill="white"/>
<path d="M34.8739 11.9182C34.8641 11.849 34.8694 11.7783 34.8894 11.7118C34.9094 11.6452 34.9435 11.5848 34.9889 11.5353C35.0344 11.4858 35.0899 11.4486 35.1509 11.4269C35.212 11.4051 35.2769 11.3993 35.3405 11.41H35.7782C35.8404 11.4025 35.9033 11.4107 35.9621 11.4339C36.0209 11.4571 36.0741 11.4947 36.1175 11.5438C36.1609 11.5929 36.1934 11.6522 36.2124 11.7171C36.2315 11.782 36.2366 11.8508 36.2274 11.9182V15.0552C36.2289 15.2756 36.2154 15.4958 36.1871 15.714V15.714C36.4168 15.2712 36.7523 14.9045 37.1579 14.6526C37.5635 14.4008 38.0242 14.2732 38.491 14.2835C40.3801 14.2835 41.6069 15.9399 41.6069 18.3366C41.6069 20.7333 40.3167 22.4461 38.4276 22.4461C37.9551 22.4615 37.4883 22.3312 37.0807 22.0704C36.6732 21.8096 36.3415 21.4288 36.1238 20.9717V20.9717C36.1531 21.1243 36.1666 21.2801 36.1641 21.436V21.8187C36.1641 22.0948 35.997 22.2642 35.6975 22.2642H35.3462C35.2827 22.2749 35.2178 22.2691 35.1567 22.2473C35.0956 22.2256 35.0401 22.1884 34.9947 22.1389C34.9492 22.0894 34.9151 22.029 34.8952 21.9624C34.8752 21.8959 34.8699 21.8252 34.8797 21.756L34.8739 11.9182ZM38.203 21.1411C39.3549 21.1411 40.2764 20.1435 40.2764 18.3742C40.2764 16.6049 39.447 15.5948 38.2606 15.5948C37.1893 15.5948 36.1986 16.423 36.1986 18.3617C36.1986 19.8047 36.861 21.1411 38.203 21.1411Z" fill="white"/>
<path d="M46.3304 14.3027C48.306 14.3027 49.406 15.8399 49.406 18.0044C49.406 18.1426 49.3557 18.275 49.266 18.3727C49.1764 18.4703 49.0548 18.5252 48.928 18.5252H44.1591C44.1596 18.8771 44.2252 19.2253 44.3519 19.5491C44.4786 19.8728 44.6638 20.1655 44.8965 20.4096C45.1292 20.6538 45.4047 20.8444 45.7064 20.9701C46.0082 21.0958 46.3301 21.1541 46.653 21.1415C47.2756 21.1384 47.881 20.9185 48.3808 20.5141C48.4303 20.4719 48.4879 20.4425 48.5493 20.4281C48.6108 20.4137 48.6744 20.4147 48.7354 20.431C48.7964 20.4473 48.8533 20.4785 48.9016 20.5222C48.9499 20.566 48.9885 20.6211 49.0144 20.6835L49.1411 20.9156C49.1814 20.9718 49.209 21.0375 49.2215 21.1074C49.2341 21.1774 49.2312 21.2496 49.2133 21.3181C49.1953 21.3866 49.1627 21.4496 49.1181 21.5017C49.0735 21.5539 49.0183 21.5939 48.9568 21.6183C48.2485 22.1556 47.4066 22.4445 46.5435 22.4465C46.0454 22.4683 45.5486 22.3781 45.0838 22.1818C44.619 21.9854 44.1963 21.687 43.842 21.3051C43.4876 20.9232 43.2091 20.466 43.0239 19.9618C42.8387 19.4577 42.7506 18.9174 42.7652 18.3746C42.7595 15.9026 44.2973 14.3027 46.3304 14.3027ZM48.0583 17.5464C47.9949 16.1787 47.2289 15.4948 46.3016 15.4948C45.779 15.4956 45.2755 15.709 44.8898 16.0932C44.5041 16.4773 44.264 17.0046 44.2167 17.5715L48.0583 17.5464Z" fill="white"/>
<path d="M50.5169 20.909L50.6609 20.6957C50.8452 20.4322 51.0295 20.4196 51.3117 20.589C51.8176 20.9806 52.4192 21.199 53.0396 21.2164C53.7423 21.2164 54.2549 20.8463 54.2549 20.1875C54.2549 18.6691 50.5745 19.1711 50.5745 16.5485C50.5745 15.0741 51.761 14.3086 53.1548 14.3086C53.8552 14.3047 54.5416 14.5226 55.1304 14.9361C55.1818 14.964 55.2273 15.0034 55.2638 15.0518C55.3003 15.1002 55.327 15.1564 55.3422 15.2168C55.3574 15.2772 55.3608 15.3404 55.3521 15.4023C55.3434 15.4642 55.3228 15.5234 55.2916 15.576L55.1649 15.8082C55.0209 16.0842 54.8136 16.1156 54.5429 15.9776C54.1048 15.6893 53.6033 15.5354 53.0915 15.5321C52.4118 15.5321 51.8935 15.8521 51.8935 16.5171C51.8935 18.0668 55.5738 17.5147 55.5738 20.1561C55.5738 21.4799 54.5429 22.4461 53.0051 22.4461C52.1433 22.4534 51.3027 22.1562 50.6091 21.5991C50.5567 21.5646 50.512 21.5179 50.4782 21.4623C50.4444 21.4068 50.4223 21.3437 50.4135 21.2778C50.4047 21.2118 50.4094 21.1445 50.4273 21.0807C50.4452 21.017 50.4758 20.9583 50.5169 20.909Z" fill="white"/>
<path d="M57.1063 14.9932C57.0965 14.924 57.1018 14.8533 57.1218 14.7868C57.1418 14.7203 57.1759 14.6598 57.2213 14.6103C57.2668 14.5608 57.3223 14.5237 57.3834 14.5019C57.4444 14.4801 57.5094 14.4743 57.5729 14.485H57.8954C58.2064 14.485 58.3619 14.6544 58.3619 14.9179V15.3759C58.3714 15.5138 58.3714 15.6522 58.3619 15.79V15.79C58.5919 15.3212 58.9388 14.9328 59.3628 14.6697C59.7868 14.4065 60.2705 14.2794 60.7579 14.3031C62.6759 14.3031 63.8911 15.9594 63.8911 18.375C63.8911 20.7905 62.5261 22.4469 60.66 22.4469C60.2104 22.461 59.766 22.3395 59.3757 22.096C58.9855 21.8524 58.6645 21.4962 58.4483 21.0666V21.0666C58.4689 21.3001 58.4727 21.535 58.4599 21.7692V24.8561C58.469 24.9235 58.4639 24.9923 58.4448 25.0572C58.4258 25.1221 58.3933 25.1814 58.3499 25.2305C58.3065 25.2796 58.2534 25.3172 58.1945 25.3404C58.1357 25.3636 58.0728 25.3718 58.0106 25.3643H57.5959C57.5324 25.375 57.4675 25.3692 57.4064 25.3474C57.3453 25.3257 57.2898 25.2885 57.2444 25.239C57.1989 25.1895 57.1648 25.1291 57.1449 25.0625C57.1249 24.996 57.1196 24.9253 57.1294 24.8561L57.1063 14.9932ZM60.4757 21.1418C61.6276 21.1418 62.5376 20.1443 62.5376 18.375C62.5376 16.6057 61.7083 15.5955 60.5218 15.5955C59.4505 15.5955 58.4599 16.4112 58.4599 18.3938C58.4311 19.7866 59.1395 21.1418 60.4757 21.1418Z" fill="white"/>
<path d="M68.8154 14.3027C69.551 14.3237 70.2645 14.5807 70.8665 15.0416C71.4686 15.5024 71.9324 16.1465 72.1998 16.8933C72.4672 17.64 72.5264 18.4561 72.3699 19.2393C72.2134 20.0225 71.8482 20.738 71.32 21.296C70.7919 21.8541 70.1242 22.2299 69.4008 22.3765C68.6774 22.523 67.9304 22.4337 67.2534 22.1198C66.5763 21.8058 65.9994 21.2812 65.595 20.6116C65.1905 19.942 64.9764 19.1573 64.9795 18.3558C64.9793 17.8128 65.0792 17.2753 65.2734 16.7752C65.4675 16.2751 65.7519 15.8226 66.1097 15.4445C66.4675 15.0665 66.8914 14.7706 67.3562 14.5745C67.821 14.3783 68.3172 14.2859 68.8154 14.3027V14.3027ZM68.8154 21.154C69.1471 21.1527 69.4751 21.0784 69.7798 20.9357C70.0845 20.793 70.3596 20.5848 70.5887 20.3235C70.8178 20.0622 70.9961 19.7533 71.113 19.4152C71.2299 19.0771 71.283 18.7168 71.269 18.3558C71.269 17.6469 71.0105 16.9671 70.5504 16.4659C70.0902 15.9646 69.4661 15.683 68.8154 15.683C68.1647 15.683 67.5406 15.9646 67.0805 16.4659C66.6203 16.9671 66.3618 17.6469 66.3618 18.3558C66.3511 18.7153 66.4064 19.0735 66.5246 19.4094C66.6428 19.7453 66.8214 20.052 67.05 20.3115C67.2787 20.5711 67.5526 20.7782 67.8558 20.9208C68.1589 21.0633 68.4852 21.1383 68.8154 21.1415V21.154Z" fill="white"/>
<path d="M74.1903 11.9182C74.1805 11.849 74.1858 11.7783 74.2058 11.7118C74.2258 11.6452 74.2599 11.5848 74.3053 11.5353C74.3508 11.4858 74.4063 11.4486 74.4673 11.4269C74.5284 11.4051 74.5933 11.3993 74.6569 11.41H75.0946C75.1568 11.4025 75.2197 11.4107 75.2785 11.4339C75.3374 11.4571 75.3905 11.4947 75.4339 11.5438C75.4773 11.5929 75.5098 11.6522 75.5288 11.7171C75.5479 11.782 75.553 11.8508 75.5438 11.9182V17.3265H76.6036L78.3315 14.8168C78.3871 14.7068 78.4717 14.6175 78.5744 14.5605C78.677 14.5035 78.7931 14.4813 78.9074 14.4969H79.4316C79.8117 14.4969 79.9384 14.7729 79.7138 15.1243L77.7382 17.9351L80.0421 21.6368C80.2379 21.9881 80.1112 22.2642 79.7311 22.2642H79.1551C79.0376 22.277 78.9194 22.2502 78.8163 22.1873C78.7133 22.1245 78.6305 22.0286 78.5791 21.9128L76.6036 18.6315H75.5438V21.7685C75.553 21.8359 75.5479 21.9047 75.5288 21.9697C75.5098 22.0346 75.4773 22.0938 75.4339 22.1429C75.3905 22.192 75.3374 22.2296 75.2785 22.2528C75.2197 22.276 75.1568 22.2842 75.0946 22.2767H74.6569C74.5933 22.2874 74.5284 22.2816 74.4673 22.2599C74.4063 22.2381 74.3508 22.201 74.3053 22.1515C74.2599 22.102 74.2258 22.0415 74.2058 21.975C74.1858 21.9084 74.1805 21.8377 74.1903 21.7685V11.9182Z" fill="white"/>
<path d="M84.3621 14.3027C86.3376 14.3027 87.4377 15.8399 87.4377 18.0044C87.4377 18.1426 87.3873 18.275 87.2977 18.3727C87.208 18.4703 87.0864 18.5252 86.9596 18.5252H82.1907C82.1913 18.8755 82.2564 19.2221 82.382 19.5446C82.5077 19.867 82.6913 20.1588 82.9222 20.4027C83.153 20.6466 83.4264 20.8376 83.7261 20.9645C84.0258 21.0914 84.3459 21.1516 84.6673 21.1415C85.29 21.1384 85.8954 20.9185 86.3952 20.5141C86.4447 20.4719 86.5023 20.4425 86.5637 20.4281C86.6251 20.4137 86.6888 20.4147 86.7498 20.431C86.8108 20.4473 86.8676 20.4785 86.916 20.5222C86.9643 20.566 87.0029 20.6211 87.0288 20.6835L87.1555 20.9156C87.1924 20.9685 87.2182 21.0295 87.231 21.0944C87.2439 21.1594 87.2434 21.2266 87.2296 21.2913C87.2159 21.356 87.1892 21.4166 87.1515 21.4688C87.1138 21.521 87.066 21.5635 87.0115 21.5932C86.3032 22.1305 85.4613 22.4194 84.5982 22.4214C84.1001 22.4432 83.6032 22.353 83.1385 22.1567C82.6737 21.9603 82.251 21.6619 81.8966 21.28C81.5423 20.8981 81.2638 20.4409 81.0786 19.9367C80.8933 19.4326 80.8053 18.8923 80.8199 18.3495C80.7969 15.9026 82.3289 14.3027 84.3621 14.3027ZM86.0899 17.5464C86.0496 16.1787 85.3009 15.4697 84.3621 15.4697C83.8394 15.4705 83.3359 15.6839 82.9502 16.0681C82.5645 16.4522 82.3245 16.9795 82.2771 17.5464H86.0899Z" fill="white"/>
<path d="M91.2837 14.9928C91.2752 14.9239 91.2813 14.8537 91.3017 14.7878C91.3222 14.7219 91.3563 14.662 91.4014 14.6128C91.4466 14.5637 91.5016 14.5265 91.5621 14.5043C91.6226 14.482 91.687 14.4753 91.7502 14.4846H92.1534C92.2169 14.4739 92.2818 14.4797 92.3429 14.5015C92.404 14.5232 92.4595 14.5604 92.5049 14.6099C92.5504 14.6594 92.5845 14.7198 92.6045 14.7864C92.6244 14.8529 92.6297 14.9236 92.6199 14.9928V15.8837C92.6204 16.0791 92.6069 16.2742 92.5796 16.4672V16.4672C92.8906 15.4383 93.6912 14.4219 94.7683 14.4219C95.0908 14.4219 95.2175 14.5913 95.2175 14.9301V15.363C95.2175 15.7018 95.0332 15.8712 94.7107 15.8712C93.3169 15.8712 92.6372 17.515 92.6372 19.0522V21.7688C92.647 21.838 92.6417 21.9087 92.6217 21.9753C92.6018 22.0418 92.5677 22.1023 92.5222 22.1518C92.4768 22.2013 92.4213 22.2384 92.3602 22.2602C92.2991 22.2819 92.2342 22.2877 92.1707 22.277H91.733C91.6697 22.2864 91.6053 22.2796 91.5448 22.2574C91.4843 22.2352 91.4293 22.198 91.3842 22.1488C91.339 22.0996 91.3049 22.0397 91.2845 21.9738C91.264 21.9079 91.2579 21.8378 91.2664 21.7688L91.2837 14.9928Z" fill="white"/>
<path d="M99.4101 14.3027C100.146 14.3237 100.859 14.5807 101.461 15.0416C102.063 15.5024 102.527 16.1465 102.795 16.8933C103.062 17.64 103.121 18.4561 102.965 19.2393C102.808 20.0225 102.443 20.738 101.915 21.296C101.387 21.8541 100.719 22.2299 99.9956 22.3765C99.2721 22.523 98.5251 22.4337 97.8481 22.1198C97.1711 21.8058 96.5942 21.2812 96.1897 20.6116C95.7852 19.942 95.5711 19.1573 95.5743 18.3558C95.574 17.8128 95.6739 17.2753 95.8681 16.7752C96.0622 16.2751 96.3466 15.8226 96.7044 15.4445C97.0622 15.0665 97.4861 14.7706 97.9509 14.5745C98.4157 14.3783 98.9119 14.2859 99.4101 14.3027ZM99.4101 21.154C99.7418 21.1527 100.07 21.0784 100.374 20.9357C100.679 20.793 100.954 20.5848 101.183 20.3235C101.412 20.0622 101.591 19.7533 101.708 19.4152C101.825 19.0771 101.878 18.7168 101.864 18.3558C101.864 17.6469 101.605 16.9671 101.145 16.4659C100.685 15.9646 100.061 15.683 99.4101 15.683C98.7594 15.683 98.1353 15.9646 97.6752 16.4659C97.2151 16.9671 96.9566 17.6469 96.9566 18.3558C96.9458 18.7153 97.0011 19.0735 97.1193 19.4094C97.2375 19.7453 97.4162 20.052 97.6448 20.3115C97.8734 20.5711 98.1473 20.7782 98.4505 20.9208C98.7537 21.0633 99.08 21.1383 99.4101 21.1415V21.154Z" fill="white"/>
<path d="M108.143 14.3027C108.878 14.3237 109.592 14.5807 110.194 15.0416C110.796 15.5024 111.26 16.1465 111.527 16.8933C111.794 17.64 111.854 18.4561 111.697 19.2393C111.541 20.0225 111.175 20.738 110.647 21.296C110.119 21.8541 109.451 22.2299 108.728 22.3765C108.005 22.523 107.258 22.4337 106.581 22.1198C105.903 21.8058 105.327 21.2812 104.922 20.6116C104.518 19.942 104.304 19.1573 104.307 18.3558C104.306 17.8128 104.406 17.2753 104.6 16.7752C104.795 16.2751 105.079 15.8226 105.437 15.4445C105.795 15.0665 106.219 14.7706 106.683 14.5745C107.148 14.3783 107.644 14.2859 108.143 14.3027V14.3027ZM108.143 21.154C108.473 21.151 108.799 21.0756 109.102 20.9326C109.405 20.7895 109.678 20.5816 109.906 20.3212C110.134 20.0608 110.311 19.7532 110.428 19.4166C110.544 19.0801 110.598 18.7215 110.585 18.3621C110.585 17.6532 110.326 16.9734 109.866 16.4721C109.406 15.9709 108.782 15.6893 108.131 15.6893C107.48 15.6893 106.856 15.9709 106.396 16.4721C105.936 16.9734 105.677 17.6532 105.677 18.3621C105.667 18.7221 105.724 19.0807 105.843 19.4166C105.962 19.7526 106.142 20.0591 106.372 20.3182C106.602 20.5772 106.877 20.7835 107.181 20.9249C107.485 21.0663 107.812 21.14 108.143 21.1415V21.154Z" fill="white"/>
<path d="M113.505 14.9926C113.496 14.9237 113.502 14.8535 113.523 14.7876C113.543 14.7217 113.577 14.6618 113.623 14.6127C113.668 14.5635 113.723 14.5263 113.783 14.5041C113.844 14.4818 113.908 14.4751 113.971 14.4844H114.369C114.432 14.4737 114.497 14.4795 114.558 14.5013C114.619 14.523 114.675 14.5602 114.72 14.6097C114.766 14.6592 114.8 14.7196 114.82 14.7862C114.84 14.8527 114.845 14.9234 114.835 14.9926V15.6828C114.834 15.8323 114.821 15.9814 114.795 16.1282C115.015 15.6052 115.363 15.1581 115.801 14.8361C116.239 14.5141 116.75 14.3295 117.277 14.3025C117.774 14.2438 118.273 14.3943 118.671 14.7233C119.07 15.0522 119.338 15.5347 119.42 16.0718V16.0718C119.651 15.5528 120.008 15.1131 120.453 14.801C120.898 14.4888 121.413 14.3164 121.943 14.3025C123.567 14.3025 124.298 15.3001 124.298 17.2827V21.7686C124.308 21.8378 124.303 21.9086 124.283 21.9751C124.263 22.0416 124.229 22.1021 124.183 22.1516C124.138 22.2011 124.082 22.2382 124.021 22.26C123.96 22.2817 123.895 22.2875 123.832 22.2768H123.394C123.331 22.2862 123.266 22.2794 123.206 22.2572C123.145 22.235 123.09 22.1978 123.045 22.1486C123 22.0994 122.966 22.0395 122.946 21.9736C122.925 21.9077 122.919 21.8376 122.927 21.7686V17.6026C122.927 16.511 122.732 15.6514 121.672 15.6514C120.347 15.6514 119.558 17.1446 119.558 18.6316V21.7686C119.567 21.8361 119.562 21.9049 119.543 21.9698C119.524 22.0347 119.492 22.094 119.448 22.143C119.405 22.1921 119.352 22.2297 119.293 22.2529C119.234 22.2761 119.171 22.2843 119.109 22.2768H118.66C118.597 22.2843 118.535 22.2761 118.476 22.2529C118.417 22.2297 118.364 22.1921 118.32 22.143C118.277 22.094 118.244 22.0347 118.225 21.9698C118.206 21.9049 118.201 21.8361 118.21 21.7686V17.6026C118.21 16.5862 118.066 15.6514 116.966 15.6514C115.613 15.6514 114.824 17.1886 114.824 18.6316V21.7686C114.834 21.8378 114.828 21.9086 114.808 21.9751C114.788 22.0416 114.754 22.1021 114.709 22.1516C114.663 22.2011 114.608 22.2382 114.547 22.26C114.486 22.2817 114.421 22.2875 114.357 22.2768H113.919C113.856 22.2862 113.792 22.2794 113.731 22.2572C113.671 22.235 113.616 22.1978 113.571 22.1486C113.526 22.0994 113.491 22.0395 113.471 21.9736C113.451 21.9077 113.444 21.8376 113.453 21.7686L113.505 14.9926Z" fill="white"/>
</svg>
