<svg width="46" height="32" viewBox="0 0 46 32" fill="none" xmlns="http://www.w3.org/2000/svg">
<g clip-path="url(#clip0_940_727)">
<g clip-path="url(#clip1_940_727)">
<path d="M11.2495 32H34.7509C40.9536 32 46.0004 26.975 46.0004 20.7983V11.2017C46.0004 5.02498 40.954 0 34.7513 0H11.2495C5.04642 0 0 5.02498 0 11.2017V20.7983C0 26.9746 5.04642 32 11.2495 32Z" fill="#FFBD59"/>
<path d="M28.9374 15.1018L19.2729 9.54565C18.5786 9.1467 17.7109 9.64558 17.7109 10.4439V21.5558C17.7109 22.354 18.5786 22.8529 19.2729 22.454L28.9374 16.8978C29.6317 16.4989 29.6317 15.5007 28.9374 15.1018Z" fill="white"/>
</g>
</g>
<defs>
<clipPath id="clip0_940_727">
<rect width="46" height="32" fill="white"/>
</clipPath>
<clipPath id="clip1_940_727">
<rect width="46" height="32" fill="white"/>
</clipPath>
</defs>
</svg>
