<svg width="46" height="33" viewBox="0 0 46 33" fill="none" xmlns="http://www.w3.org/2000/svg">
<g clip-path="url(#clip0_597_105)">
<g clip-path="url(#clip1_597_105)">
<path d="M11.2495 32.9736H34.7509C40.9536 32.9736 46.0004 27.9487 46.0004 21.7719V12.1753C46.0004 5.99862 40.954 0.973633 34.7513 0.973633H11.2495C5.04642 0.973633 0 5.99862 0 12.1753V21.7719C0 27.9483 5.04642 32.9736 11.2495 32.9736Z" fill="#FFBD59"/>
<path d="M28.9374 16.0754L19.2729 10.5193C18.5786 10.1203 17.7109 10.6192 17.7109 11.4175V22.5294C17.7109 23.3277 18.5786 23.8266 19.2729 23.4276L28.9374 17.8715C29.6317 17.4725 29.6317 16.4744 28.9374 16.0754Z" fill="white"/>
</g>
</g>
<defs>
<clipPath id="clip0_597_105">
<rect width="46" height="32" fill="white" transform="translate(0 0.973633)"/>
</clipPath>
<clipPath id="clip1_597_105">
<rect width="46" height="32" fill="white" transform="translate(0 0.973633)"/>
</clipPath>
</defs>
</svg>
