<svg width="27" height="19" viewBox="0 0 27 19" fill="none" xmlns="http://www.w3.org/2000/svg">
<g clip-path="url(#clip0_11_192)">
<g clip-path="url(#clip1_11_192)">
<path d="M6.60296 19H20.3973C24.038 19 27.0002 16.0164 27.0002 12.349V6.65102C27.0002 2.98358 24.0382 0 20.3975 0H6.60296C2.96203 0 0 2.98358 0 6.65102V12.349C0 16.0162 2.96203 19 6.60296 19Z" fill="#FFBD59"/>
<path d="M16.9849 8.96678L11.3123 5.66782C10.9048 5.43095 10.3955 5.72716 10.3955 6.20114V12.7988C10.3955 13.2728 10.9048 13.569 11.3123 13.3321L16.9849 10.0332C17.3925 9.79631 17.3925 9.20366 16.9849 8.96678Z" fill="white"/>
</g>
</g>
<defs>
<clipPath id="clip0_11_192">
<rect width="27" height="19" fill="white"/>
</clipPath>
<clipPath id="clip1_11_192">
<rect width="27" height="19" fill="white"/>
</clipPath>
</defs>
</svg>
