<svg width="28" height="19" viewBox="0 0 28 19" fill="none" xmlns="http://www.w3.org/2000/svg">
<g clip-path="url(#clip0_11_205)">
<g clip-path="url(#clip1_11_205)">
<path d="M6.80492 19H21.0211C24.7732 19 27.826 16.0164 27.826 12.349V6.65102C27.826 2.98358 24.7734 0 21.0214 0H6.80492C3.05262 0 0 2.98358 0 6.65102V12.349C0 16.0162 3.05262 19 6.80492 19Z" fill="#FFBD59"/>
<path d="M17.5046 8.96669L11.6585 5.66773C11.2385 5.43085 10.7136 5.72706 10.7136 6.20105V12.7987C10.7136 13.2727 11.2385 13.5689 11.6585 13.3321L17.5046 10.0331C17.9246 9.79622 17.9246 9.20356 17.5046 8.96669Z" fill="white"/>
</g>
</g>
<defs>
<clipPath id="clip0_11_205">
<rect width="27.8258" height="19" fill="white"/>
</clipPath>
<clipPath id="clip1_11_205">
<rect width="27.8258" height="19" fill="white"/>
</clipPath>
</defs>
</svg>
