<svg width="19" height="18" viewBox="0 0 19 18" fill="none" xmlns="http://www.w3.org/2000/svg">
<g clip-path="url(#clip0_11_336)">
<path d="M7.74375 14.3117C3.71857 14.3117 0.443695 11.1015 0.443695 7.15584C0.443695 3.21018 3.71857 0 7.74375 0C11.7689 0 15.0438 3.21018 15.0438 7.15584C15.0438 11.1015 11.7689 14.3117 7.74375 14.3117ZM7.74375 1.59085C4.61341 1.59085 2.06661 4.08735 2.06661 7.15584C2.06661 10.2243 4.61341 12.7208 7.74375 12.7208C10.8741 12.7208 13.4209 10.2243 13.4209 7.15584C13.4209 4.08735 10.8741 1.59085 7.74375 1.59085Z" fill="#132549"/>
<path d="M18.5695 17.767C18.2526 18.0776 17.7388 18.0776 17.422 17.767L12.2982 12.7443C12.7218 12.4126 13.1064 12.0348 13.4457 11.6196L18.5695 16.6421C18.8863 16.9528 18.8863 17.4564 18.5695 17.767Z" fill="#132549"/>
</g>
<defs>
<clipPath id="clip0_11_336">
<rect width="18.3631" height="18" fill="white" transform="translate(0.443695)"/>
</clipPath>
</defs>
</svg>
