<svg width="18" height="18" viewBox="0 0 18 18" fill="none" xmlns="http://www.w3.org/2000/svg">
<g clip-path="url(#clip0_1_396)">
<path d="M7.1557 14.3117C3.21012 14.3117 0 11.1015 0 7.15584C0 3.21018 3.21012 0 7.1557 0C11.1013 0 14.3114 3.21018 14.3114 7.15584C14.3114 11.1015 11.1013 14.3117 7.1557 14.3117ZM7.1557 1.59085C4.08727 1.59085 1.59082 4.08735 1.59082 7.15584C1.59082 10.2243 4.08727 12.7208 7.1557 12.7208C10.2241 12.7208 12.7206 10.2243 12.7206 7.15584C12.7206 4.08735 10.2241 1.59085 7.1557 1.59085Z" fill="#201E1F"/>
<path d="M17.7674 17.7671C17.4568 18.0777 16.9531 18.0777 16.6425 17.7671L11.6201 12.7444C12.0353 12.4127 12.4124 12.0349 12.7449 11.6197L17.7674 16.6422C18.078 16.9529 18.078 17.4565 17.7674 17.7671Z" fill="#201E1F"/>
</g>
<defs>
<clipPath id="clip0_1_396">
<rect width="18" height="18" fill="white"/>
</clipPath>
</defs>
</svg>
