<svg width="28" height="32" viewBox="0 0 28 32" fill="none" xmlns="http://www.w3.org/2000/svg">
<path d="M25.7987 8.68994H20.2152V6.10206C20.2152 2.7359 17.4259 0 14 0C10.5741 0 7.78966 2.7359 7.78966 6.10206V8.68994H2.20618C0.986463 8.68994 0 9.66398 0 10.8577V29.8323C0 31.026 0.991322 32 2.20618 32H25.7938C27.0087 32 28 31.026 28 29.8323V10.8624C28 9.66398 27.0087 8.69472 25.7938 8.69472L25.7987 8.68994ZM9.75286 6.10206C9.75286 3.80066 11.6578 1.9242 14.0049 1.9242C16.352 1.9242 18.2569 3.79588 18.2569 6.10206V8.68994H9.75286V6.10206ZM26.0465 29.8371C26.0465 29.9708 25.9347 30.0806 25.8035 30.0806H2.20618C2.07011 30.0806 1.95835 29.9708 1.95835 29.8371V10.8624C1.95835 10.7287 2.07011 10.6189 2.20618 10.6189H7.78966V14.7968C7.78966 15.3268 8.227 15.7613 8.77126 15.7613C9.31552 15.7613 9.75286 15.3315 9.75286 14.7968V10.6189H18.2569V14.7968C18.2569 15.3268 18.6942 15.7613 19.2385 15.7613C19.7827 15.7613 20.2201 15.3315 20.2201 14.7968V10.6189H25.8035C25.9396 10.6189 26.0465 10.7287 26.0465 10.8624V29.8371Z" fill="#132549"/>
</svg>
