<svg width="32" height="32" viewBox="0 0 32 32" fill="none" xmlns="http://www.w3.org/2000/svg">
<path d="M30.4289 22.9112C30.4503 22.8668 30.4714 22.8224 30.4924 22.7777C31.2823 21.0954 31.7874 19.2543 31.946 17.3165C31.9472 17.3025 31.9484 17.2886 31.9495 17.2746C31.953 17.2293 31.9565 17.1837 31.9598 17.1381C31.9619 17.1079 31.9642 17.0779 31.966 17.0476C31.9677 17.0211 31.9693 16.9949 31.9709 16.9683C31.9737 16.9204 31.9767 16.8725 31.9791 16.8244C31.9791 16.8204 31.9795 16.8167 31.9795 16.8128C31.9933 16.5428 32.0005 16.2716 32.0005 15.9998C32.0005 13.3103 31.3333 10.7739 30.1559 8.54696C27.4711 3.46874 22.1331 0 16 0C7.17747 0 0 7.1777 0 16C0 16.1567 0.00255807 16.313 0.00697654 16.4686C0.00697654 16.473 0.00720909 16.4772 0.00744164 16.4816C0.00930205 16.5479 0.0118601 16.6142 0.0146507 16.6802C0.0155809 16.7032 0.0167437 16.7265 0.0176739 16.7495C0.0197669 16.793 0.0218598 16.8365 0.0241853 16.88C0.0262783 16.9207 0.0286038 16.9611 0.0311619 17.0018C0.0323246 17.0207 0.0334874 17.0397 0.0348827 17.0586C0.333944 21.6956 2.59318 25.9125 6.33703 28.7506C8.74626 30.5803 11.558 31.6672 14.5421 31.934C14.5835 31.9377 14.6249 31.9412 14.6663 31.9447C14.6759 31.9454 14.6854 31.9463 14.6949 31.947C15.1254 31.9819 15.5607 32 16 32C18.1002 32 20.1069 31.593 21.9459 30.8542C21.9575 30.8496 21.9691 30.8449 21.9808 30.8403C22.014 30.8268 22.047 30.8133 22.0801 30.7998C22.1273 30.7805 22.1742 30.7607 22.2212 30.741C22.2214 30.741 22.2219 30.7407 22.2221 30.7405C23.7819 30.0826 25.239 29.1764 26.5334 28.0438C28.1782 26.6032 29.4908 24.8602 30.4173 22.9351C30.4212 22.9272 30.4249 22.9191 30.4286 22.9112H30.4289ZM30.2782 16.9323C30.2761 16.9639 30.2738 16.9958 30.2714 17.0274C30.2689 17.0635 30.2663 17.0993 30.2635 17.1353C30.2621 17.1518 30.2607 17.1683 30.2594 17.1851C30.2549 17.2376 30.2505 17.29 30.2456 17.3423C30.2456 17.3441 30.2452 17.3462 30.2452 17.3481C30.0894 18.9939 29.6498 20.5894 28.9571 22.0677C28.9438 22.0959 28.9306 22.1238 28.9171 22.1519C28.908 22.171 28.8989 22.1903 28.8896 22.2094C28.1689 23.6993 27.1973 25.046 26.0302 26.1946C24.4798 22.4573 20.7978 19.8306 16.5004 19.8306C11.9445 19.8306 8.07953 22.7828 6.71562 26.879C3.86919 24.4463 1.98529 20.9185 1.72297 16.9546C1.72158 16.9332 1.72018 16.9118 1.71879 16.8904C1.71669 16.8579 1.71507 16.8253 1.71321 16.7928C1.71088 16.7497 1.70855 16.7065 1.70669 16.6635C1.706 16.6467 1.70507 16.6297 1.70437 16.613C1.696 16.4095 1.69158 16.2053 1.69158 16.0002C1.69158 8.11116 8.10976 1.69297 15.9988 1.69297C21.485 1.69297 26.2599 4.79567 28.6606 9.33833C29.7124 11.3292 30.3082 13.5966 30.3082 16.0005C30.3082 16.2953 30.2991 16.5884 30.2814 16.8788C30.2803 16.8967 30.2794 16.9149 30.2782 16.9328V16.9323Z" fill="#132549"/>
</svg>
